G04*
G04 #@! TF.GenerationSoftware,Altium Limited,Altium Designer,23.4.1 (23)*
G04*
G04 Layer_Color=8388736*
%FSLAX44Y44*%
%MOMM*%
G71*
G04*
G04 #@! TF.SameCoordinates,ED8CA8E1-86DF-42A4-AF38-516AE62C0134*
G04*
G04*
G04 #@! TF.FilePolarity,Negative*
G04*
G01*
G75*
G04:AMPARAMS|DCode=17|XSize=1.8mm|YSize=1.5mm|CornerRadius=0.425mm|HoleSize=0mm|Usage=FLASHONLY|Rotation=90.000|XOffset=0mm|YOffset=0mm|HoleType=Round|Shape=RoundedRectangle|*
%AMROUNDEDRECTD17*
21,1,1.8000,0.6500,0,0,90.0*
21,1,0.9500,1.5000,0,0,90.0*
1,1,0.8500,0.3250,0.4750*
1,1,0.8500,0.3250,-0.4750*
1,1,0.8500,-0.3250,-0.4750*
1,1,0.8500,-0.3250,0.4750*
%
%ADD17ROUNDEDRECTD17*%
G04:AMPARAMS|DCode=18|XSize=3mm|YSize=4mm|CornerRadius=0.8mm|HoleSize=0mm|Usage=FLASHONLY|Rotation=270.000|XOffset=0mm|YOffset=0mm|HoleType=Round|Shape=RoundedRectangle|*
%AMROUNDEDRECTD18*
21,1,3.0000,2.4000,0,0,270.0*
21,1,1.4000,4.0000,0,0,270.0*
1,1,1.6000,-1.2000,-0.7000*
1,1,1.6000,-1.2000,0.7000*
1,1,1.6000,1.2000,0.7000*
1,1,1.6000,1.2000,-0.7000*
%
%ADD18ROUNDEDRECTD18*%
G04:AMPARAMS|DCode=19|XSize=2mm|YSize=2.7mm|CornerRadius=0.55mm|HoleSize=0mm|Usage=FLASHONLY|Rotation=270.000|XOffset=0mm|YOffset=0mm|HoleType=Round|Shape=RoundedRectangle|*
%AMROUNDEDRECTD19*
21,1,2.0000,1.6000,0,0,270.0*
21,1,0.9000,2.7000,0,0,270.0*
1,1,1.1000,-0.8000,-0.4500*
1,1,1.1000,-0.8000,0.4500*
1,1,1.1000,0.8000,0.4500*
1,1,1.1000,0.8000,-0.4500*
%
%ADD19ROUNDEDRECTD19*%
%ADD20R,1.8000X1.8000*%
%ADD21C,1.8000*%
%ADD22C,2.0000*%
%ADD23C,0.2000*%
G04:AMPARAMS|DCode=24|XSize=2.2mm|YSize=8.2mm|CornerRadius=0.6mm|HoleSize=0mm|Usage=FLASHONLY|Rotation=0.000|XOffset=0mm|YOffset=0mm|HoleType=Round|Shape=RoundedRectangle|*
%AMROUNDEDRECTD24*
21,1,2.2000,7.0000,0,0,0.0*
21,1,1.0000,8.2000,0,0,0.0*
1,1,1.2000,0.5000,-3.5000*
1,1,1.2000,-0.5000,-3.5000*
1,1,1.2000,-0.5000,3.5000*
1,1,1.2000,0.5000,3.5000*
%
%ADD24ROUNDEDRECTD24*%
%ADD25C,6.2000*%
D17*
X555500Y210000D02*
D03*
Y140000D02*
D03*
X510500D02*
D03*
Y210000D02*
D03*
X555500Y420000D02*
D03*
Y350000D02*
D03*
X510500D02*
D03*
Y420000D02*
D03*
X555500Y630000D02*
D03*
Y560000D02*
D03*
X510500D02*
D03*
Y630000D02*
D03*
D18*
X362000Y107500D02*
D03*
Y242500D02*
D03*
X112000D02*
D03*
Y107500D02*
D03*
X362000Y317500D02*
D03*
Y452500D02*
D03*
X112000Y452500D02*
D03*
Y317500D02*
D03*
X362000Y527500D02*
D03*
Y662500D02*
D03*
X112000D02*
D03*
Y527500D02*
D03*
X362000Y737500D02*
D03*
Y872500D02*
D03*
X112000D02*
D03*
Y737500D02*
D03*
D19*
X442000Y150000D02*
D03*
Y200000D02*
D03*
X282000D02*
D03*
Y175000D02*
D03*
Y150000D02*
D03*
X32000Y200000D02*
D03*
Y150000D02*
D03*
X192000D02*
D03*
Y175000D02*
D03*
Y200000D02*
D03*
X442000Y360000D02*
D03*
Y410000D02*
D03*
X282000D02*
D03*
Y385000D02*
D03*
Y360000D02*
D03*
X32000Y410000D02*
D03*
Y360000D02*
D03*
X192000D02*
D03*
Y385000D02*
D03*
Y410000D02*
D03*
X442000Y570000D02*
D03*
Y620000D02*
D03*
X282000D02*
D03*
Y595000D02*
D03*
Y570000D02*
D03*
X32000Y620000D02*
D03*
Y570000D02*
D03*
X192000D02*
D03*
Y595000D02*
D03*
Y620000D02*
D03*
X442000Y780000D02*
D03*
Y830000D02*
D03*
X282000D02*
D03*
Y805000D02*
D03*
Y780000D02*
D03*
X32000Y830000D02*
D03*
Y780000D02*
D03*
X192000D02*
D03*
Y805000D02*
D03*
Y830000D02*
D03*
D20*
X49000Y945900D02*
D03*
D21*
Y971300D02*
D03*
Y996700D02*
D03*
Y1022100D02*
D03*
X508000Y825000D02*
D03*
Y805000D02*
D03*
Y785000D02*
D03*
X558000Y825000D02*
D03*
Y805000D02*
D03*
Y785000D02*
D03*
D22*
X198900Y1178920D02*
D03*
X224300D02*
D03*
X249700D02*
D03*
X275100D02*
D03*
X154000Y490000D02*
D03*
Y515000D02*
D03*
X570400Y863000D02*
D03*
X545000D02*
D03*
X519600D02*
D03*
X494200D02*
D03*
X468800D02*
D03*
X536600Y1111000D02*
D03*
X468800Y1108500D02*
D03*
D23*
X362000Y150000D02*
D03*
Y195000D02*
D03*
X112000Y200000D02*
D03*
Y155000D02*
D03*
X362000Y360000D02*
D03*
Y405000D02*
D03*
X112000Y410000D02*
D03*
Y365000D02*
D03*
X362000Y570000D02*
D03*
Y615000D02*
D03*
X112000Y620000D02*
D03*
Y575000D02*
D03*
X362000Y780000D02*
D03*
Y825000D02*
D03*
X112000Y830000D02*
D03*
Y785000D02*
D03*
D24*
X25000Y260000D02*
D03*
X575000D02*
D03*
D25*
X570000Y30000D02*
D03*
X30000D02*
D03*
X570000Y1170000D02*
D03*
X30000D02*
D03*
M02*
