M48
;Layer_Color=9474304
;FILE_FORMAT=4:4
METRIC,LZ
;TYPE=PLATED
T1F00S00C0.3000
T2F00S00C0.9000
T3F00S00C1.0000
T4F00S00C1.1000
T5F00S00C1.2000
T7F00S00C3.0000
%
T01
X001Y0005
X0015
X002
X0025
X003
X0035
X003Y001
X0025
Y0015
X002Y001
X0015
Y0015
Y002
Y0025
X002
Y003
X0015
Y0035
X001
X0005Y003
Y0025
Y001
X003Y0025
Y003
X0035Y0035
X00282Y00385
X004Y0035
Y003
X0045
X005
X0055
Y0025
X005
X0045
X004
Y002
Y0015
Y001
X0045
X005
X0055
X005Y0005
X0045
X004
Y004
Y0045
X0045
X005
X0055
Y004
X005
Y005
X0045
Y006
Y0065
X005
X0055Y007
Y0075
X005
X0045Y007
X004Y0075
Y0065
Y006
Y0055
X0035
Y006
X00272929Y00593332
X003Y0055
X003075Y00491
Y00476
X002925
Y00491
X003225Y00491
Y00476
X0035Y005
X00334089Y00715911
X00328735Y00722565
X0031854Y0072524
X0029421Y0072977
X00293Y007
X0029621Y00692086
X0027582Y00687381
X00266583Y00675245
X00258613Y00700192
X00259135Y00708716
X00257839Y00717157
X00259258Y00726016
X00224Y00712
X00244811Y00686486
X0024454Y00657098
X0021044Y006655
X00208104Y00680159
X00178Y00657
X0013996Y00702664
X0014146Y007141
X00148292Y00722409
X00159Y00781
X00139082Y00783564
X00131559Y00789044
X001Y007
X0005
Y0075
Y0065
Y006
X001
X0015
Y0055
X001
Y005
X0005
Y0055
Y0045
X001Y004
X0015
X00318Y00781
X00320706Y00791585
X00333Y0078854
X0035Y0085
X00297987Y00854987
X00301Y00880427
X00309171Y00877944
X00292Y00914
X0031254Y00938
X00312Y00951
Y00975
Y00988
X003Y01
Y0105
X0025
X002
Y01
X00168Y00975
X00183Y00923
X0015Y009
Y0085
X0018Y0085846
X0021002Y00835126
X00219Y00812
X0025742
X00266599Y00841284
X0005Y0085
Y009
X001Y0095
Y01
Y011
Y0115
X00151547Y01077458
X0035Y011
X0036025Y0110575
X00369189Y0105846
X0038925Y0105375
X003745Y010205
X00375Y01
X0005Y008
X004
X0045
Y0085
X004
X00421Y00929
X00433Y00949
X0045Y0095
X00429Y00965
X004Y0095
Y01
X0045
X005
X0055
Y0105
X005
X0045
Y011
Y0115
X005
X004
Y011
Y0105
X005Y0095
X0055
T02
X00508Y00785
X00558
Y00805
Y00825
X00508
Y00805
T03
X00112Y002
X00362Y0015
Y0036
Y0057
Y0078
X00112Y0062
X00154Y00515
Y0049
X00112Y0041
Y0083
X001989Y0117892
X002243
X002497
X002751
X004688Y011085
X005366Y01111
X00545Y00863
X005704
X005196
X004942
X004688
T04
X00049Y009459
Y009713
Y009967
Y010221
T05
X00112Y00155
Y00365
X00362Y00195
Y00405
Y00615
X00112Y00575
Y00785
X00362Y00825
T07
X0003Y0003
X0057
X0003Y0117
X0057
M30
