G04*
G04 #@! TF.GenerationSoftware,Altium Limited,Altium Designer,23.4.1 (23)*
G04*
G04 Layer_Color=32896*
%FSLAX44Y44*%
%MOMM*%
G71*
G04*
G04 #@! TF.SameCoordinates,ED8CA8E1-86DF-42A4-AF38-516AE62C0134*
G04*
G04*
G04 #@! TF.FilePolarity,Positive*
G04*
G01*
G75*
%ADD11C,0.2000*%
%ADD12C,0.1000*%
%ADD13C,0.1500*%
%ADD47C,0.5000*%
%ADD65C,0.3000*%
G36*
X222803Y536324D02*
X223392Y536913D01*
X226975D01*
Y533083D01*
X226510Y532618D01*
X224657Y534471D01*
X222803Y536324D01*
D02*
G37*
G36*
X176198Y267222D02*
Y266259D01*
X176124Y265370D01*
X175976Y264481D01*
X175828Y263814D01*
X175754Y263148D01*
X175606Y262703D01*
X175531Y262407D01*
Y262333D01*
X175235Y261592D01*
X174939Y260852D01*
X174643Y260185D01*
X174420Y259667D01*
X174124Y259222D01*
X173902Y258852D01*
X173828Y258630D01*
X173754Y258556D01*
X172865Y257445D01*
X172421Y256926D01*
X171976Y256556D01*
X171606Y256186D01*
X171310Y255963D01*
X171161Y255815D01*
X171087Y255741D01*
X169902Y255000D01*
X168939Y254334D01*
X168495Y254112D01*
X168199Y253964D01*
X167977Y253890D01*
X167903Y253815D01*
X166717Y253297D01*
X166125Y253149D01*
X165681Y253001D01*
X165236Y252853D01*
X164940Y252778D01*
X164718Y252704D01*
X164644D01*
X163459Y252556D01*
X162866Y252482D01*
X162422D01*
X162051Y252408D01*
X158274D01*
Y238039D01*
X150201D01*
Y252408D01*
X147016D01*
X145905Y252482D01*
X144868Y252556D01*
X144498Y252630D01*
X144201D01*
X143979Y252704D01*
X143905D01*
X142646Y253001D01*
X142128Y253223D01*
X141609Y253371D01*
X141165Y253593D01*
X140868Y253667D01*
X140646Y253815D01*
X140572D01*
X139387Y254482D01*
X138869Y254778D01*
X138424Y255075D01*
X137980Y255371D01*
X137683Y255593D01*
X137535Y255667D01*
X137461Y255741D01*
X136350Y256704D01*
X135536Y257593D01*
X135239Y257963D01*
X135017Y258259D01*
X134869Y258482D01*
X134795Y258556D01*
X134054Y259815D01*
X133758Y260481D01*
X133462Y261074D01*
X133314Y261592D01*
X133165Y261963D01*
X133017Y262259D01*
Y262333D01*
X132573Y264037D01*
X132425Y264851D01*
X132351Y265592D01*
X132277Y266259D01*
Y266777D01*
Y267073D01*
Y267222D01*
Y281961D01*
X140276D01*
Y267222D01*
Y266481D01*
X140350Y265814D01*
X140498Y265222D01*
X140572Y264777D01*
X140720Y264407D01*
X140868Y264111D01*
X140942Y263962D01*
Y263888D01*
X141461Y263074D01*
X141905Y262407D01*
X142350Y262037D01*
X142424Y261889D01*
X142498D01*
X143238Y261444D01*
X143979Y261148D01*
X144275Y261074D01*
X144498Y261000D01*
X144646Y260926D01*
X144720D01*
X145609Y260704D01*
X146275Y260630D01*
X146572Y260555D01*
X146794Y260481D01*
X161385D01*
X162496Y260555D01*
X163384Y260704D01*
X163681Y260778D01*
X163977Y260852D01*
X164125Y260926D01*
X164199D01*
X165088Y261296D01*
X165755Y261740D01*
X166199Y262111D01*
X166273Y262259D01*
X166347D01*
X166940Y263000D01*
X167384Y263666D01*
X167532Y263962D01*
X167680Y264185D01*
X167754Y264333D01*
Y264407D01*
X168051Y265370D01*
X168199Y266259D01*
X168273Y266629D01*
Y266925D01*
Y267147D01*
Y267222D01*
Y281961D01*
X176198D01*
Y267222D01*
D02*
G37*
G36*
X262485Y255963D02*
X237303D01*
Y263962D01*
X262485D01*
Y255963D01*
D02*
G37*
G36*
X464316Y281887D02*
X464835Y281812D01*
X465131Y281664D01*
X465279Y281590D01*
X465798Y281294D01*
X466242Y281072D01*
X466538Y280776D01*
X466612Y280702D01*
X466983Y280257D01*
X467205Y279887D01*
X467353Y279591D01*
X467427Y279442D01*
X467575Y278924D01*
X467649Y278405D01*
X467723Y278035D01*
Y277961D01*
Y277887D01*
Y242039D01*
X467649Y241446D01*
X467575Y240928D01*
X467501Y240558D01*
X467427Y240409D01*
X467205Y239891D01*
X466909Y239521D01*
X466686Y239224D01*
X466612Y239150D01*
X466168Y238780D01*
X465724Y238558D01*
X465427Y238410D01*
X465279Y238336D01*
X464687Y238187D01*
X464242Y238113D01*
X463872Y238039D01*
X433431D01*
X432468Y238113D01*
X431653Y238187D01*
X430912Y238336D01*
X430246Y238558D01*
X429727Y238706D01*
X429283Y238854D01*
X429061Y238928D01*
X428987Y239002D01*
X428320Y239373D01*
X427728Y239817D01*
X427209Y240187D01*
X426839Y240558D01*
X426468Y240854D01*
X426246Y241150D01*
X426098Y241298D01*
X426024Y241372D01*
X425283Y242483D01*
X424691Y243446D01*
X424543Y243890D01*
X424394Y244187D01*
X424320Y244409D01*
Y244483D01*
X424024Y245668D01*
X423950Y246261D01*
X423876Y246705D01*
X423802Y247075D01*
Y247446D01*
Y247594D01*
Y247668D01*
Y249149D01*
Y250038D01*
X423876Y250853D01*
X423950Y251519D01*
X424024Y252186D01*
X424172Y252704D01*
X424246Y253075D01*
X424320Y253371D01*
Y253445D01*
X424765Y254778D01*
X424987Y255371D01*
X425209Y255889D01*
X425432Y256260D01*
X425580Y256630D01*
X425654Y256778D01*
X425728Y256852D01*
X426394Y257963D01*
X427061Y258778D01*
X427357Y259148D01*
X427579Y259370D01*
X427728Y259519D01*
X427802Y259593D01*
X428690Y260407D01*
X429505Y261074D01*
X429801Y261296D01*
X430098Y261444D01*
X430246Y261592D01*
X430320D01*
X429801Y262407D01*
X429283Y263222D01*
X428913Y263962D01*
X428616Y264703D01*
X428394Y265296D01*
X428246Y265740D01*
X428098Y266110D01*
Y266185D01*
X427654Y267962D01*
X427505Y268703D01*
X427431Y269369D01*
X427357Y269962D01*
Y270406D01*
Y270703D01*
Y270777D01*
Y272258D01*
X427431Y273221D01*
X427505Y274110D01*
X427654Y274850D01*
X427802Y275517D01*
X428024Y276035D01*
X428172Y276406D01*
X428246Y276628D01*
X428320Y276702D01*
X428690Y277369D01*
X429135Y277961D01*
X429505Y278480D01*
X429875Y278924D01*
X430246Y279294D01*
X430542Y279517D01*
X430690Y279665D01*
X430764Y279739D01*
X431875Y280479D01*
X432912Y281072D01*
X433357Y281220D01*
X433653Y281368D01*
X433875Y281442D01*
X433949D01*
X435134Y281738D01*
X435653Y281812D01*
X436097Y281887D01*
X436467Y281961D01*
X463724D01*
X464316Y281887D01*
D02*
G37*
G36*
X397508D02*
X399138Y281738D01*
X400619Y281442D01*
X401952Y281146D01*
X403063Y280850D01*
X403434Y280702D01*
X403878Y280553D01*
X404174Y280479D01*
X404397Y280405D01*
X404471Y280331D01*
X404545D01*
X406026Y279665D01*
X407285Y278924D01*
X408470Y278183D01*
X409507Y277443D01*
X410322Y276776D01*
X410989Y276258D01*
X411359Y275887D01*
X411507Y275739D01*
X412544Y274628D01*
X413507Y273443D01*
X414247Y272258D01*
X414914Y271147D01*
X415433Y270184D01*
X415803Y269443D01*
X415951Y269147D01*
X416025Y268925D01*
X416099Y268851D01*
Y268777D01*
X416618Y267222D01*
X417062Y265740D01*
X417358Y264259D01*
X417506Y262852D01*
X417654Y261667D01*
Y261222D01*
X417729Y260778D01*
Y260407D01*
Y260185D01*
Y260037D01*
Y259963D01*
Y238039D01*
X409803D01*
Y248779D01*
X381806D01*
Y238039D01*
X373807D01*
Y277887D01*
X373881Y278480D01*
X373955Y278998D01*
X374029Y279294D01*
X374103Y279442D01*
X374400Y279961D01*
X374622Y280331D01*
X374918Y280627D01*
X374992Y280702D01*
X375437Y281072D01*
X375807Y281368D01*
X376103Y281516D01*
X376251Y281590D01*
X376770Y281812D01*
X377288Y281887D01*
X377659Y281961D01*
X395805D01*
X397508Y281887D01*
D02*
G37*
G36*
X367956Y273962D02*
X350402D01*
Y238039D01*
X342403D01*
Y273962D01*
X324849D01*
Y281961D01*
X367956D01*
Y273962D01*
D02*
G37*
G36*
X322405D02*
X304851D01*
Y238039D01*
X296852D01*
Y273962D01*
X279298D01*
Y281961D01*
X322405D01*
Y273962D01*
D02*
G37*
G36*
X270188Y281887D02*
X270707Y281812D01*
X271077Y281664D01*
X271225Y281590D01*
X271744Y281294D01*
X272114Y281072D01*
X272410Y280776D01*
X272484Y280702D01*
X272855Y280257D01*
X273151Y279887D01*
X273299Y279591D01*
X273373Y279442D01*
X273521Y278924D01*
X273595Y278405D01*
X273669Y278035D01*
Y277961D01*
Y277887D01*
Y249149D01*
X273595Y248038D01*
X273521Y247075D01*
X273299Y246187D01*
X273077Y245446D01*
X272929Y244779D01*
X272707Y244335D01*
X272633Y244039D01*
X272558Y243965D01*
X272114Y243224D01*
X271595Y242483D01*
X271151Y241891D01*
X270707Y241446D01*
X270336Y241002D01*
X270040Y240706D01*
X269818Y240558D01*
X269744Y240483D01*
X268485Y239595D01*
X267818Y239298D01*
X267300Y239002D01*
X266781Y238854D01*
X266411Y238706D01*
X266189Y238558D01*
X266115D01*
X264707Y238262D01*
X264115Y238187D01*
X263522Y238113D01*
X263078Y238039D01*
X233748D01*
Y245964D01*
X262411D01*
X263004Y246038D01*
X263448Y246112D01*
X263893Y246261D01*
X264263Y246409D01*
X264485Y246557D01*
X264707Y246631D01*
X264781Y246779D01*
X264855D01*
X265152Y247150D01*
X265300Y247520D01*
X265596Y248260D01*
Y248631D01*
X265670Y248927D01*
Y249075D01*
Y249149D01*
Y273962D01*
X233748D01*
Y281961D01*
X269596D01*
X270188Y281887D01*
D02*
G37*
G36*
X222638D02*
X223156Y281812D01*
X223452Y281664D01*
X223601Y281590D01*
X224119Y281294D01*
X224563Y281072D01*
X224860Y280776D01*
X224934Y280702D01*
X225304Y280257D01*
X225526Y279887D01*
X225674Y279591D01*
X225748Y279442D01*
X225897Y278924D01*
X225971Y278405D01*
X226045Y278035D01*
Y277961D01*
Y277887D01*
Y238039D01*
X218120D01*
Y273962D01*
X191382D01*
X191308Y273887D01*
X191234D01*
X190863Y273813D01*
X190715Y273739D01*
X190493Y273591D01*
X190345Y273443D01*
X190271Y273295D01*
Y273221D01*
X190197Y272925D01*
X190123Y272554D01*
Y272332D01*
Y272184D01*
Y267147D01*
X190197Y266036D01*
X190345Y265148D01*
X190493Y264851D01*
X190567Y264555D01*
X190641Y264407D01*
Y264333D01*
X191011Y263518D01*
X191530Y262852D01*
X191900Y262407D01*
X191974Y262333D01*
X192048Y262259D01*
X192789Y261740D01*
X193456Y261296D01*
X193752Y261148D01*
X193974Y261000D01*
X194122Y260926D01*
X194196D01*
X195085Y260630D01*
X195974Y260481D01*
X196344Y260407D01*
X196640Y260333D01*
X214935D01*
Y252334D01*
X209158D01*
X192567Y238039D01*
X180272D01*
X196863Y252334D01*
X195752Y252408D01*
X194715Y252556D01*
X194344D01*
X194048Y252630D01*
X193826Y252704D01*
X193752D01*
X192493Y253001D01*
X191974Y253223D01*
X191456Y253371D01*
X191011Y253593D01*
X190715Y253667D01*
X190493Y253815D01*
X190419D01*
X189234Y254408D01*
X188715Y254704D01*
X188271Y255000D01*
X187826Y255297D01*
X187530Y255519D01*
X187382Y255593D01*
X187308Y255667D01*
X186271Y256630D01*
X185456Y257519D01*
X185160Y257889D01*
X184938Y258185D01*
X184790Y258408D01*
X184716Y258482D01*
X183901Y259815D01*
X183605Y260407D01*
X183308Y261000D01*
X183160Y261518D01*
X183012Y261889D01*
X182864Y262185D01*
Y262259D01*
X182420Y263962D01*
X182271Y264777D01*
X182197Y265518D01*
X182123Y266185D01*
Y266703D01*
Y266999D01*
Y267147D01*
Y272258D01*
X182197Y273369D01*
X182346Y274406D01*
X182494Y274776D01*
X182568Y275072D01*
X182642Y275295D01*
Y275369D01*
X183160Y276554D01*
X183382Y277146D01*
X183679Y277591D01*
X183975Y277961D01*
X184123Y278331D01*
X184271Y278480D01*
X184345Y278554D01*
X185308Y279591D01*
X186271Y280331D01*
X186641Y280627D01*
X187012Y280850D01*
X187234Y280924D01*
X187308Y280998D01*
X188049Y281294D01*
X188789Y281590D01*
X189530Y281738D01*
X190271Y281812D01*
X190863Y281887D01*
X191382Y281961D01*
X222045D01*
X222638Y281887D01*
D02*
G37*
%LPC*%
G36*
X459724Y273962D02*
X437060D01*
X436541Y273887D01*
X436097Y273665D01*
X435801Y273443D01*
X435653Y273147D01*
X435504Y272776D01*
X435430Y272554D01*
Y272332D01*
Y272258D01*
Y270777D01*
X435504Y269666D01*
X435653Y268777D01*
X435727Y268481D01*
X435801Y268184D01*
X435875Y268036D01*
Y267962D01*
X436245Y267073D01*
X436690Y266407D01*
X437060Y265962D01*
X437134Y265888D01*
X437208Y265814D01*
X437949Y265222D01*
X438615Y264777D01*
X438912Y264629D01*
X439134Y264481D01*
X439282Y264407D01*
X439356D01*
X440319Y264185D01*
X441208Y264037D01*
X441578Y263962D01*
X456539D01*
Y255963D01*
X438615D01*
X437504Y255889D01*
X436615Y255741D01*
X436245Y255593D01*
X436023Y255519D01*
X435875Y255445D01*
X435801D01*
X434912Y255075D01*
X434245Y254630D01*
X433801Y254260D01*
X433727Y254186D01*
X433653Y254112D01*
X433060Y253371D01*
X432616Y252704D01*
X432468Y252408D01*
X432394Y252186D01*
X432320Y252038D01*
Y251964D01*
X432023Y251001D01*
X431875Y250112D01*
X431801Y249742D01*
Y249445D01*
Y249223D01*
Y249149D01*
Y247742D01*
Y247298D01*
X431875Y247001D01*
X431949Y246779D01*
X432023Y246705D01*
X432172Y246483D01*
X432246Y246335D01*
X432320Y246187D01*
X432394D01*
X432764Y246038D01*
X432912Y245964D01*
X459724D01*
Y273962D01*
D02*
G37*
G36*
X396101D02*
X381806D01*
Y256778D01*
X409803D01*
Y259963D01*
X409729Y261148D01*
X409655Y262259D01*
X409507Y263222D01*
X409285Y264037D01*
X409137Y264703D01*
X408989Y265148D01*
X408915Y265518D01*
X408841Y265592D01*
X408470Y266407D01*
X408026Y267222D01*
X407655Y267888D01*
X407285Y268481D01*
X406989Y268925D01*
X406693Y269221D01*
X406544Y269443D01*
X406470Y269517D01*
X405359Y270629D01*
X404841Y270999D01*
X404397Y271369D01*
X403952Y271665D01*
X403656Y271888D01*
X403434Y271962D01*
X403360Y272036D01*
X402100Y272628D01*
X401508Y272850D01*
X400989Y272999D01*
X400619Y273147D01*
X400323Y273221D01*
X400101Y273295D01*
X400027D01*
X398916Y273591D01*
X398101Y273739D01*
X397805D01*
X397583Y273813D01*
X397360D01*
X396916Y273887D01*
X396620D01*
X396101Y273962D01*
D02*
G37*
%LPD*%
D11*
X315050Y1077506D02*
G03*
X315050Y1077506I-1000J0D01*
G01*
X272500Y802500D02*
G03*
X272670Y803057I1000J0D01*
G01*
X50000Y60000D02*
Y460000D01*
X550000Y60000D02*
Y460000D01*
X50000Y60000D02*
X550000D01*
X50000Y460000D02*
X550000D01*
X61700Y933200D02*
Y1034800D01*
X36300D02*
X61700D01*
X36300Y933200D02*
Y1034800D01*
Y933200D02*
X61700D01*
X156000Y463000D02*
Y474000D01*
X82000Y463000D02*
X156000D01*
X82000D02*
Y542000D01*
X156000D01*
Y531000D02*
Y542000D01*
X444400Y847000D02*
X454400D01*
X444400D02*
Y1128000D01*
X495400D01*
X576400D02*
X594400D01*
Y847000D02*
Y1128000D01*
X585400Y847000D02*
X594400D01*
X189050Y1095006D02*
Y1147006D01*
X314050Y1103756D02*
Y1147256D01*
X289050D02*
X314050D01*
X289050Y1129506D02*
Y1147256D01*
X264050Y1129506D02*
X289050D01*
X264050D02*
Y1147256D01*
X238800D02*
X264050D01*
X238800Y1129506D02*
Y1147256D01*
X214050Y1129506D02*
X238800D01*
X214050D02*
Y1147006D01*
X164050D02*
X214050D01*
X147737Y1085382D02*
Y1153784D01*
Y896228D02*
X174128D01*
X330363D02*
Y904737D01*
X147737Y1153784D02*
X330363D01*
X147737Y896228D02*
Y904737D01*
X303972Y896228D02*
X330363D01*
Y1085382D02*
Y1153784D01*
X164050Y1095006D02*
Y1147006D01*
X261860Y703000D02*
Y805000D01*
X216140Y703000D02*
Y805000D01*
X261860D01*
X216140Y703000D02*
X261860D01*
X226975Y502250D02*
Y537250D01*
X197000Y502250D02*
Y537250D01*
X226975D01*
X197000Y502250D02*
X226975D01*
X597750Y582500D02*
Y622500D01*
X537750Y582500D02*
Y622500D01*
X597750D01*
X537750Y582500D02*
X597750D01*
Y462500D02*
Y622500D01*
X277750Y462500D02*
Y622500D01*
X597750D01*
X277750Y462500D02*
X597750D01*
X283560Y649500D02*
X294060D01*
Y670500D01*
X283560Y649500D02*
Y670500D01*
X294060D01*
X119500Y803250D02*
Y813750D01*
Y803250D02*
X140500D01*
X119500Y813750D02*
X140500D01*
Y803250D02*
Y813750D01*
X406750Y1000500D02*
X417250D01*
X406750Y979500D02*
Y1000500D01*
X417250Y979500D02*
Y1000500D01*
X406750Y979500D02*
X417250D01*
X244560Y649500D02*
X255060D01*
Y670500D01*
X244560Y649500D02*
Y670500D01*
X255060D01*
X119500Y752250D02*
Y762750D01*
Y752250D02*
X140500D01*
X119500Y762750D02*
X140500D01*
Y752250D02*
Y762750D01*
X406500Y958750D02*
Y969250D01*
Y958750D02*
X427500D01*
X406500Y969250D02*
X427500D01*
Y958750D02*
Y969250D01*
X270560Y670500D02*
X281060D01*
X270560Y649500D02*
Y670500D01*
X281060Y649500D02*
Y670500D01*
X270560Y649500D02*
X281060D01*
X257560Y670500D02*
X268060D01*
X257560Y649500D02*
Y670500D01*
X268060Y649500D02*
Y670500D01*
X257560Y649500D02*
X268060D01*
X140500Y790400D02*
Y800900D01*
X119500D02*
X140500D01*
X119500Y790400D02*
X140500D01*
X119500D02*
Y800900D01*
X140500Y765250D02*
Y775750D01*
X119500D02*
X140500D01*
X119500Y765250D02*
X140500D01*
X119500D02*
Y775750D01*
X350000Y689150D02*
Y699650D01*
X329000D02*
X350000D01*
X329000Y689150D02*
X350000D01*
X329000D02*
Y699650D01*
X119500Y738150D02*
Y748650D01*
Y738150D02*
X140500D01*
X119500Y748650D02*
X140500D01*
Y738150D02*
Y748650D01*
X350000Y738150D02*
Y748650D01*
X329000D02*
X350000D01*
X329000Y738150D02*
X350000D01*
X329000D02*
Y748650D01*
X119500Y689150D02*
Y699650D01*
Y689150D02*
X140500D01*
X119500Y699650D02*
X140500D01*
Y689150D02*
Y699650D01*
X406750Y1024500D02*
X417250D01*
X406750Y1003500D02*
Y1024500D01*
X417250Y1003500D02*
Y1024500D01*
X406750Y1003500D02*
X417250D01*
X329000Y702150D02*
Y712650D01*
Y702150D02*
X350000D01*
X329000Y712650D02*
X350000D01*
Y702150D02*
Y712650D01*
X329000Y725150D02*
Y735650D01*
Y725150D02*
X350000D01*
X329000Y735650D02*
X350000D01*
Y725150D02*
Y735650D01*
X140500Y725150D02*
Y735650D01*
X119500D02*
X140500D01*
X119500Y725150D02*
X140500D01*
X119500D02*
Y735650D01*
X140500Y702150D02*
Y712650D01*
X119500D02*
X140500D01*
X119500Y702150D02*
X140500D01*
X119500D02*
Y712650D01*
X406500Y945750D02*
Y956250D01*
Y945750D02*
X427500D01*
X406500Y956250D02*
X427500D01*
Y945750D02*
Y956250D01*
X350000Y752250D02*
Y762750D01*
X329000D02*
X350000D01*
X329000Y752250D02*
X350000D01*
X329000D02*
Y762750D01*
X183750Y649500D02*
X194250D01*
Y670500D01*
X183750Y649500D02*
Y670500D01*
X194250D01*
X350000Y803250D02*
Y813750D01*
X329000D02*
X350000D01*
X329000Y803250D02*
X350000D01*
X329000D02*
Y813750D01*
X222750Y649500D02*
X233250D01*
Y670500D01*
X222750Y649500D02*
Y670500D01*
X233250D01*
X329000Y765250D02*
Y775750D01*
Y765250D02*
X350000D01*
X329000Y775750D02*
X350000D01*
Y765250D02*
Y775750D01*
X329000Y790400D02*
Y800900D01*
Y790400D02*
X350000D01*
X329000Y800900D02*
X350000D01*
Y790400D02*
Y800900D01*
X196600Y670500D02*
X207100D01*
X196600Y649500D02*
Y670500D01*
X207100Y649500D02*
Y670500D01*
X196600Y649500D02*
X207100D01*
X209750Y670500D02*
X220250D01*
X209750Y649500D02*
Y670500D01*
X220250Y649500D02*
Y670500D01*
X209750Y649500D02*
X220250D01*
X406750Y1048500D02*
X417250D01*
X406750Y1027500D02*
Y1048500D01*
X417250Y1027500D02*
Y1048500D01*
X406750Y1027500D02*
X417250D01*
X406500Y932750D02*
Y943250D01*
Y932750D02*
X427500D01*
X406500Y943250D02*
X427500D01*
Y932750D02*
Y943250D01*
X244560Y865500D02*
X255060D01*
X244560Y844500D02*
Y865500D01*
X255060Y844500D02*
Y865500D01*
X244560Y844500D02*
X255060D01*
X183750Y865500D02*
X194250D01*
X183750Y844500D02*
Y865500D01*
X194250Y844500D02*
Y865500D01*
X183750Y844500D02*
X194250D01*
X283560Y865500D02*
X294060D01*
X283560Y844500D02*
Y865500D01*
X294060Y844500D02*
Y865500D01*
X283560Y844500D02*
X294060D01*
X222750Y865500D02*
X233250D01*
X222750Y844500D02*
Y865500D01*
X233250Y844500D02*
Y865500D01*
X222750Y844500D02*
X233250D01*
X257560D02*
X268060D01*
Y865500D01*
X257560Y844500D02*
Y865500D01*
X268060D01*
X270560Y844500D02*
X281060D01*
Y865500D01*
X270560Y844500D02*
Y865500D01*
X281060D01*
X196750Y844500D02*
X207250D01*
Y865500D01*
X196750Y844500D02*
Y865500D01*
X207250D01*
X209750Y844500D02*
X220250D01*
Y865500D01*
X209750Y844500D02*
Y865500D01*
X220250D01*
X167750Y736500D02*
X178250D01*
X167750Y715500D02*
Y736500D01*
X178250Y715500D02*
Y736500D01*
X167750Y715500D02*
X178250D01*
X114500Y1046750D02*
Y1057250D01*
Y1046750D02*
X135500D01*
X114500Y1057250D02*
X135500D01*
Y1046750D02*
Y1057250D01*
X114500Y1008750D02*
Y1019250D01*
Y1008750D02*
X135500D01*
X114500Y1019250D02*
X135500D01*
Y1008750D02*
Y1019250D01*
X114500Y906750D02*
Y917250D01*
Y906750D02*
X135500D01*
X114500Y917250D02*
X135500D01*
Y906750D02*
Y917250D01*
X361500Y1033750D02*
Y1044250D01*
X340500D02*
X361500D01*
X340500Y1033750D02*
X361500D01*
X340500D02*
Y1044250D01*
X361500Y932750D02*
Y943250D01*
X340500D02*
X361500D01*
X340500Y932750D02*
X361500D01*
X340500D02*
Y943250D01*
X361500Y945750D02*
Y956250D01*
X340500D02*
X361500D01*
X340500Y945750D02*
X361500D01*
X340500D02*
Y956250D01*
X361500Y970750D02*
Y981250D01*
X340500D02*
X361500D01*
X340500Y970750D02*
X361500D01*
X340500D02*
Y981250D01*
X361500Y983750D02*
Y994250D01*
X340500D02*
X361500D01*
X340500Y983750D02*
X361500D01*
X340500D02*
Y994250D01*
X253750Y522500D02*
X264250D01*
X253750Y501500D02*
Y522500D01*
X264250Y501500D02*
Y522500D01*
X253750Y501500D02*
X264250D01*
X253750Y545500D02*
X264250D01*
X253750Y524500D02*
Y545500D01*
X264250Y524500D02*
Y545500D01*
X253750Y524500D02*
X264250D01*
X240750Y501500D02*
X251250D01*
Y522500D01*
X240750Y501500D02*
Y522500D01*
X251250D01*
X171750Y533750D02*
X194250D01*
X171750Y505250D02*
X194250D01*
X171750D02*
Y533750D01*
X194250Y505250D02*
Y533750D01*
X381500Y997500D02*
Y999500D01*
X392250D01*
Y981500D02*
Y999500D01*
X381500Y981500D02*
X392250D01*
X381500D02*
Y997500D01*
X276310Y672500D02*
X278310D01*
X276310D02*
Y683250D01*
X294310D01*
Y672500D02*
Y683250D01*
X278310Y672500D02*
X294310D01*
X154000Y795500D02*
Y797500D01*
X143250Y795500D02*
X154000D01*
X143250D02*
Y813500D01*
X154000D01*
Y797500D02*
Y813500D01*
X260310Y683500D02*
X262310D01*
Y672750D02*
Y683500D01*
X244310Y672750D02*
X262310D01*
X244310D02*
Y683500D01*
X260310D01*
X143000Y768500D02*
Y770500D01*
X153750D01*
Y752500D02*
Y770500D01*
X143000Y752500D02*
X153750D01*
X143000D02*
Y768500D01*
X315500Y705500D02*
Y707500D01*
X326250D01*
Y689500D02*
Y707500D01*
X315500Y689500D02*
X326250D01*
X315500D02*
Y705500D01*
X154000Y730500D02*
Y732500D01*
X143250Y730500D02*
X154000D01*
X143250D02*
Y748500D01*
X154000D01*
Y732500D02*
Y748500D01*
X326500Y730500D02*
Y732500D01*
X315750Y730500D02*
X326500D01*
X315750D02*
Y748500D01*
X326500D01*
Y732500D02*
Y748500D01*
X143000Y705500D02*
Y707500D01*
X153750D01*
Y689500D02*
Y707500D01*
X143000Y689500D02*
X153750D01*
X143000D02*
Y705500D01*
X381500Y1021500D02*
Y1023500D01*
X392250D01*
Y1005500D02*
Y1023500D01*
X381500Y1005500D02*
X392250D01*
X381500D02*
Y1021500D01*
X315500Y769500D02*
Y771500D01*
X326250D01*
Y753500D02*
Y771500D01*
X315500Y753500D02*
X326250D01*
X315500D02*
Y769500D01*
X199500Y683500D02*
X201500D01*
Y672750D02*
Y683500D01*
X183500Y672750D02*
X201500D01*
X183500D02*
Y683500D01*
X199500D01*
X326500Y795500D02*
Y797500D01*
X315750Y795500D02*
X326500D01*
X315750D02*
Y813500D01*
X326500D01*
Y797500D02*
Y813500D01*
X215500Y672500D02*
X217500D01*
X215500D02*
Y683250D01*
X233500D01*
Y672500D02*
Y683250D01*
X217500Y672500D02*
X233500D01*
X381500Y1045500D02*
Y1047500D01*
X392250D01*
Y1029500D02*
Y1047500D01*
X381500Y1029500D02*
X392250D01*
X381500D02*
Y1045500D01*
X260310Y842500D02*
X262310D01*
Y831750D02*
Y842500D01*
X244310Y831750D02*
X262310D01*
X244310D02*
Y842500D01*
X260310D01*
X199500Y842500D02*
X201500D01*
Y831750D02*
Y842500D01*
X183500Y831750D02*
X201500D01*
X183500D02*
Y842500D01*
X199500D01*
X276310Y831500D02*
X278310D01*
X276310D02*
Y842250D01*
X294310D01*
Y831500D02*
Y842250D01*
X278310Y831500D02*
X294310D01*
X215500Y831500D02*
X217500D01*
X215500D02*
Y842250D01*
X233500D01*
Y831500D02*
Y842250D01*
X217500Y831500D02*
X233500D01*
X191500Y717500D02*
Y719500D01*
X180750Y717500D02*
X191500D01*
X180750D02*
Y735500D01*
X191500D01*
Y719500D02*
Y735500D01*
X357500Y1057500D02*
X359500D01*
Y1046750D02*
Y1057500D01*
X341500Y1046750D02*
X359500D01*
X341500D02*
Y1057500D01*
X357500D01*
X337500Y1078500D02*
Y1080500D01*
X348250D01*
Y1062500D02*
Y1080500D01*
X337500Y1062500D02*
X348250D01*
X337500D02*
Y1078500D01*
X353000Y1062000D02*
Y1087000D01*
Y1062000D02*
X367000D01*
Y1087000D01*
X353000D02*
X367000D01*
X299500Y732500D02*
Y734500D01*
X288750Y732500D02*
X299500D01*
X288750D02*
Y750500D01*
X299500D01*
Y734500D02*
Y750500D01*
X251500Y524500D02*
Y526500D01*
X240750Y524500D02*
X251500D01*
X240750D02*
Y542500D01*
X251500D01*
Y526500D02*
Y542500D01*
X221000Y499000D02*
X273000D01*
X221000Y470000D02*
Y499000D01*
Y470000D02*
X273000D01*
Y499000D01*
X221000Y577500D02*
X273000D01*
X221000Y548500D02*
Y577500D01*
Y548500D02*
X273000D01*
Y577500D01*
D12*
X66000Y1087000D02*
G03*
X49000Y1104000I-17000J0D01*
G01*
D02*
G03*
X32000Y1087000I0J-17000D01*
G01*
X49000Y1064000D02*
G03*
X66000Y1081000I0J17000D01*
G01*
X32000D02*
G03*
X49000Y1064000I17000J0D01*
G01*
X221937Y537191D02*
X226510Y532618D01*
X226613Y535613D02*
X227000Y536000D01*
X32000Y1081000D02*
Y1087000D01*
X66000Y1081000D02*
Y1087000D01*
D13*
X168668Y490000D02*
X175332D01*
X172000Y493332D02*
Y486668D01*
X32329Y949132D02*
X30663Y950798D01*
X27331D01*
X25665Y949132D01*
Y947466D01*
X27331Y945800D01*
X28997D01*
X27331D01*
X25665Y944134D01*
Y942468D01*
X27331Y940802D01*
X30663D01*
X32329Y942468D01*
X22332Y950798D02*
Y944134D01*
X19000Y940802D01*
X15668Y944134D01*
Y950798D01*
X12335Y949132D02*
X10669Y950798D01*
X7337D01*
X5671Y949132D01*
Y947466D01*
X7337Y945800D01*
X9003D01*
X7337D01*
X5671Y944134D01*
Y942468D01*
X7337Y940802D01*
X10669D01*
X12335Y942468D01*
X32329Y976198D02*
X25665D01*
X28997D01*
Y966202D01*
X22332Y976198D02*
X15668Y966202D01*
Y976198D02*
X22332Y966202D01*
X12335Y974532D02*
X10669Y976198D01*
X7337D01*
X5671Y974532D01*
Y967868D01*
X7337Y966202D01*
X10669D01*
X12335Y967868D01*
Y974532D01*
X32329Y991602D02*
Y1001598D01*
X27331D01*
X25665Y999932D01*
Y996600D01*
X27331Y994934D01*
X32329D01*
X28997D02*
X25665Y991602D01*
X22332Y1001598D02*
X15668Y991602D01*
Y1001598D02*
X22332Y991602D01*
X12335Y999932D02*
X10669Y1001598D01*
X7337D01*
X5671Y999932D01*
Y993268D01*
X7337Y991602D01*
X10669D01*
X12335Y993268D01*
Y999932D01*
X25665Y1025332D02*
X27331Y1026998D01*
X30663D01*
X32329Y1025332D01*
Y1018668D01*
X30663Y1017002D01*
X27331D01*
X25665Y1018668D01*
Y1022000D01*
X28997D01*
X22332Y1017002D02*
Y1026998D01*
X15668Y1017002D01*
Y1026998D01*
X12335D02*
Y1017002D01*
X7337D01*
X5671Y1018668D01*
Y1025332D01*
X7337Y1026998D01*
X12335D01*
X25998Y1065673D02*
X16002D01*
Y1070671D01*
X17668Y1072337D01*
X19334D01*
X21000Y1070671D01*
Y1065673D01*
Y1070671D01*
X22666Y1072337D01*
X24332D01*
X25998Y1070671D01*
Y1065673D01*
Y1080668D02*
Y1077336D01*
X24332Y1075669D01*
X17668D01*
X16002Y1077336D01*
Y1080668D01*
X17668Y1082334D01*
X24332D01*
X25998Y1080668D01*
Y1090665D02*
Y1087332D01*
X24332Y1085666D01*
X17668D01*
X16002Y1087332D01*
Y1090665D01*
X17668Y1092331D01*
X24332D01*
X25998Y1090665D01*
Y1095663D02*
Y1102327D01*
Y1098995D01*
X16002D01*
X55665Y1045999D02*
X50333Y1038001D01*
Y1045999D02*
X55665Y1038001D01*
X47667Y1044666D02*
X46334Y1045999D01*
X43668D01*
X42336Y1044666D01*
Y1043333D01*
X43668Y1042000D01*
X45001D01*
X43668D01*
X42336Y1040667D01*
Y1039334D01*
X43668Y1038001D01*
X46334D01*
X47667Y1039334D01*
X156332Y553999D02*
X151000Y546001D01*
Y553999D02*
X156332Y546001D01*
X148334D02*
X145668D01*
X147001D01*
Y553999D01*
X148334Y552666D01*
X440999Y848335D02*
X434334D01*
X433001Y849668D01*
Y852334D01*
X434334Y853667D01*
X440999D01*
Y861665D02*
Y856333D01*
X437000D01*
X438333Y858999D01*
Y860332D01*
X437000Y861665D01*
X434334D01*
X433001Y860332D01*
Y857666D01*
X434334Y856333D01*
X329664Y1165999D02*
Y1159334D01*
X328332Y1158001D01*
X325666D01*
X324333Y1159334D01*
Y1165999D01*
X317668Y1158001D02*
Y1165999D01*
X321667Y1162000D01*
X316336D01*
X246665Y815999D02*
Y809334D01*
X245332Y808001D01*
X242666D01*
X241333Y809334D01*
Y815999D01*
X238667Y814666D02*
X237334Y815999D01*
X234668D01*
X233335Y814666D01*
Y813333D01*
X234668Y812000D01*
X236001D01*
X234668D01*
X233335Y810667D01*
Y809334D01*
X234668Y808001D01*
X237334D01*
X238667Y809334D01*
X210665Y547999D02*
Y541334D01*
X209332Y540001D01*
X206666D01*
X205333Y541334D01*
Y547999D01*
X197335Y540001D02*
X202667D01*
X197335Y545333D01*
Y546666D01*
X198668Y547999D01*
X201334D01*
X202667Y546666D01*
X581582Y633999D02*
Y627334D01*
X580249Y626001D01*
X577583D01*
X576250Y627334D01*
Y633999D01*
X573584Y626001D02*
X570918D01*
X572251D01*
Y633999D01*
X573584Y632666D01*
X285001Y625337D02*
X292999D01*
Y629336D01*
X291666Y630668D01*
X289000D01*
X287667Y629336D01*
Y625337D01*
Y628003D02*
X285001Y630668D01*
X292999Y638666D02*
Y633334D01*
X289000D01*
X290333Y636000D01*
Y637333D01*
X289000Y638666D01*
X286334D01*
X285001Y637333D01*
Y634667D01*
X286334Y633334D01*
X291666Y641332D02*
X292999Y642664D01*
Y645330D01*
X291666Y646663D01*
X286334D01*
X285001Y645330D01*
Y642664D01*
X286334Y641332D01*
X291666D01*
X116663Y804501D02*
Y812499D01*
X112664D01*
X111332Y811166D01*
Y808500D01*
X112664Y807167D01*
X116663D01*
X113997D02*
X111332Y804501D01*
X104667D02*
Y812499D01*
X108666Y808500D01*
X103334D01*
X100668Y805834D02*
X99335Y804501D01*
X96670D01*
X95337Y805834D01*
Y811166D01*
X96670Y812499D01*
X99335D01*
X100668Y811166D01*
Y809833D01*
X99335Y808500D01*
X95337D01*
X420001Y979337D02*
X427999D01*
Y983335D01*
X426666Y984668D01*
X424000D01*
X422667Y983335D01*
Y979337D01*
Y982003D02*
X420001Y984668D01*
Y991333D02*
X427999D01*
X424000Y987334D01*
Y992666D01*
X426666Y995332D02*
X427999Y996665D01*
Y999330D01*
X426666Y1000663D01*
X425333D01*
X424000Y999330D01*
X422667Y1000663D01*
X421334D01*
X420001Y999330D01*
Y996665D01*
X421334Y995332D01*
X422667D01*
X424000Y996665D01*
X425333Y995332D01*
X426666D01*
X424000Y996665D02*
Y999330D01*
X245811Y625337D02*
X253809D01*
Y629336D01*
X252476Y630668D01*
X249810D01*
X248477Y629336D01*
Y625337D01*
Y628003D02*
X245811Y630668D01*
Y637333D02*
X253809D01*
X249810Y633334D01*
Y638666D01*
X253809Y641332D02*
Y646663D01*
X252476D01*
X247144Y641332D01*
X245811D01*
X116663Y754501D02*
Y762499D01*
X112664D01*
X111332Y761166D01*
Y758500D01*
X112664Y757167D01*
X116663D01*
X113997D02*
X111332Y754501D01*
X104667D02*
Y762499D01*
X108666Y758500D01*
X103334D01*
X95337Y762499D02*
X98003Y761166D01*
X100668Y758500D01*
Y755834D01*
X99335Y754501D01*
X96670D01*
X95337Y755834D01*
Y757167D01*
X96670Y758500D01*
X100668D01*
X403663Y960275D02*
Y968272D01*
X399664D01*
X398332Y966939D01*
Y964274D01*
X399664Y962941D01*
X403663D01*
X400997D02*
X398332Y960275D01*
X391667D02*
Y968272D01*
X395666Y964274D01*
X390334D01*
X382337Y968272D02*
X387668D01*
Y964274D01*
X385003Y965607D01*
X383670D01*
X382337Y964274D01*
Y961608D01*
X383670Y960275D01*
X386335D01*
X387668Y961608D01*
X272001Y625337D02*
X279999D01*
Y629336D01*
X278666Y630668D01*
X276000D01*
X274667Y629336D01*
Y625337D01*
Y628003D02*
X272001Y630668D01*
Y637333D02*
X279999D01*
X276000Y633334D01*
Y638666D01*
X272001Y645330D02*
X279999D01*
X276000Y641332D01*
Y646663D01*
X259001Y625337D02*
X266999D01*
Y629336D01*
X265666Y630668D01*
X263000D01*
X261667Y629336D01*
Y625337D01*
Y628003D02*
X259001Y630668D01*
Y637333D02*
X266999D01*
X263000Y633334D01*
Y638666D01*
X265666Y641332D02*
X266999Y642664D01*
Y645330D01*
X265666Y646663D01*
X264333D01*
X263000Y645330D01*
Y643997D01*
Y645330D01*
X261667Y646663D01*
X260334D01*
X259001Y645330D01*
Y642664D01*
X260334Y641332D01*
X116663Y792001D02*
Y799999D01*
X112664D01*
X111332Y798666D01*
Y796000D01*
X112664Y794667D01*
X116663D01*
X113997D02*
X111332Y792001D01*
X104667D02*
Y799999D01*
X108666Y796000D01*
X103334D01*
X95337Y792001D02*
X100668D01*
X95337Y797333D01*
Y798666D01*
X96670Y799999D01*
X99335D01*
X100668Y798666D01*
X116330Y767001D02*
Y774999D01*
X112332D01*
X110999Y773666D01*
Y771000D01*
X112332Y769667D01*
X116330D01*
X113665D02*
X110999Y767001D01*
X104334D02*
Y774999D01*
X108333Y771000D01*
X103001D01*
X100336Y767001D02*
X97670D01*
X99003D01*
Y774999D01*
X100336Y773666D01*
X374163Y690401D02*
Y698399D01*
X370164D01*
X368832Y697066D01*
Y694400D01*
X370164Y693067D01*
X374163D01*
X371497D02*
X368832Y690401D01*
X362167D02*
Y698399D01*
X366166Y694400D01*
X360834D01*
X358168Y697066D02*
X356836Y698399D01*
X354170D01*
X352837Y697066D01*
Y691734D01*
X354170Y690401D01*
X356836D01*
X358168Y691734D01*
Y697066D01*
X116663Y739401D02*
Y747399D01*
X112664D01*
X111332Y746066D01*
Y743400D01*
X112664Y742067D01*
X116663D01*
X113997D02*
X111332Y739401D01*
X108666Y746066D02*
X107333Y747399D01*
X104667D01*
X103334Y746066D01*
Y744733D01*
X104667Y743400D01*
X106000D01*
X104667D01*
X103334Y742067D01*
Y740734D01*
X104667Y739401D01*
X107333D01*
X108666Y740734D01*
X100668D02*
X99335Y739401D01*
X96670D01*
X95337Y740734D01*
Y746066D01*
X96670Y747399D01*
X99335D01*
X100668Y746066D01*
Y744733D01*
X99335Y743400D01*
X95337D01*
X374163Y739401D02*
Y747399D01*
X370164D01*
X368832Y746066D01*
Y743400D01*
X370164Y742067D01*
X374163D01*
X371497D02*
X368832Y739401D01*
X366166Y746066D02*
X364833Y747399D01*
X362167D01*
X360834Y746066D01*
Y744733D01*
X362167Y743400D01*
X363500D01*
X362167D01*
X360834Y742067D01*
Y740734D01*
X362167Y739401D01*
X364833D01*
X366166Y740734D01*
X358168Y746066D02*
X356836Y747399D01*
X354170D01*
X352837Y746066D01*
Y744733D01*
X354170Y743400D01*
X352837Y742067D01*
Y740734D01*
X354170Y739401D01*
X356836D01*
X358168Y740734D01*
Y742067D01*
X356836Y743400D01*
X358168Y744733D01*
Y746066D01*
X356836Y743400D02*
X354170D01*
X116663Y690401D02*
Y698399D01*
X112664D01*
X111332Y697066D01*
Y694400D01*
X112664Y693067D01*
X116663D01*
X113997D02*
X111332Y690401D01*
X108666Y697066D02*
X107333Y698399D01*
X104667D01*
X103334Y697066D01*
Y695733D01*
X104667Y694400D01*
X106000D01*
X104667D01*
X103334Y693067D01*
Y691734D01*
X104667Y690401D01*
X107333D01*
X108666Y691734D01*
X100668Y698399D02*
X95337D01*
Y697066D01*
X100668Y691734D01*
Y690401D01*
X420001Y1003337D02*
X427999D01*
Y1007336D01*
X426666Y1008668D01*
X424000D01*
X422667Y1007336D01*
Y1003337D01*
Y1006003D02*
X420001Y1008668D01*
X426666Y1011334D02*
X427999Y1012667D01*
Y1015333D01*
X426666Y1016666D01*
X425333D01*
X424000Y1015333D01*
Y1014000D01*
Y1015333D01*
X422667Y1016666D01*
X421334D01*
X420001Y1015333D01*
Y1012667D01*
X421334Y1011334D01*
X427999Y1024663D02*
X426666Y1021997D01*
X424000Y1019332D01*
X421334D01*
X420001Y1020665D01*
Y1023330D01*
X421334Y1024663D01*
X422667D01*
X424000Y1023330D01*
Y1019332D01*
X374663Y703001D02*
Y710999D01*
X370664D01*
X369332Y709666D01*
Y707000D01*
X370664Y705667D01*
X374663D01*
X371997D02*
X369332Y703001D01*
X366666Y709666D02*
X365333Y710999D01*
X362667D01*
X361334Y709666D01*
Y708333D01*
X362667Y707000D01*
X364000D01*
X362667D01*
X361334Y705667D01*
Y704334D01*
X362667Y703001D01*
X365333D01*
X366666Y704334D01*
X353337Y710999D02*
X358668D01*
Y707000D01*
X356003Y708333D01*
X354670D01*
X353337Y707000D01*
Y704334D01*
X354670Y703001D01*
X357336D01*
X358668Y704334D01*
X374163Y726001D02*
Y733999D01*
X370164D01*
X368832Y732666D01*
Y730000D01*
X370164Y728667D01*
X374163D01*
X371497D02*
X368832Y726001D01*
X366166Y732666D02*
X364833Y733999D01*
X362167D01*
X360834Y732666D01*
Y731333D01*
X362167Y730000D01*
X363500D01*
X362167D01*
X360834Y728667D01*
Y727334D01*
X362167Y726001D01*
X364833D01*
X366166Y727334D01*
X354170Y726001D02*
Y733999D01*
X358168Y730000D01*
X352837D01*
X116663Y727001D02*
Y734999D01*
X112664D01*
X111332Y733666D01*
Y731000D01*
X112664Y729667D01*
X116663D01*
X113997D02*
X111332Y727001D01*
X108666Y733666D02*
X107333Y734999D01*
X104667D01*
X103334Y733666D01*
Y732333D01*
X104667Y731000D01*
X106000D01*
X104667D01*
X103334Y729667D01*
Y728334D01*
X104667Y727001D01*
X107333D01*
X108666Y728334D01*
X100668Y733666D02*
X99335Y734999D01*
X96670D01*
X95337Y733666D01*
Y732333D01*
X96670Y731000D01*
X98003D01*
X96670D01*
X95337Y729667D01*
Y728334D01*
X96670Y727001D01*
X99335D01*
X100668Y728334D01*
X116663Y703001D02*
Y710999D01*
X112664D01*
X111332Y709666D01*
Y707000D01*
X112664Y705667D01*
X116663D01*
X113997D02*
X111332Y703001D01*
X108666Y709666D02*
X107333Y710999D01*
X104667D01*
X103334Y709666D01*
Y708333D01*
X104667Y707000D01*
X106000D01*
X104667D01*
X103334Y705667D01*
Y704334D01*
X104667Y703001D01*
X107333D01*
X108666Y704334D01*
X95337Y703001D02*
X100668D01*
X95337Y708333D01*
Y709666D01*
X96670Y710999D01*
X99335D01*
X100668Y709666D01*
X403330Y947001D02*
Y954999D01*
X399332D01*
X397999Y953666D01*
Y951000D01*
X399332Y949667D01*
X403330D01*
X400664D02*
X397999Y947001D01*
X395333Y953666D02*
X394000Y954999D01*
X391334D01*
X390001Y953666D01*
Y952333D01*
X391334Y951000D01*
X392667D01*
X391334D01*
X390001Y949667D01*
Y948334D01*
X391334Y947001D01*
X394000D01*
X395333Y948334D01*
X387336Y947001D02*
X384670D01*
X386003D01*
Y954999D01*
X387336Y953666D01*
X374163Y753501D02*
Y761499D01*
X370164D01*
X368832Y760166D01*
Y757500D01*
X370164Y756167D01*
X374163D01*
X371497D02*
X368832Y753501D01*
X366166Y760166D02*
X364833Y761499D01*
X362167D01*
X360834Y760166D01*
Y758833D01*
X362167Y757500D01*
X363500D01*
X362167D01*
X360834Y756167D01*
Y754834D01*
X362167Y753501D01*
X364833D01*
X366166Y754834D01*
X358168Y760166D02*
X356836Y761499D01*
X354170D01*
X352837Y760166D01*
Y754834D01*
X354170Y753501D01*
X356836D01*
X358168Y754834D01*
Y760166D01*
X185001Y625337D02*
X192999D01*
Y629336D01*
X191666Y630668D01*
X189000D01*
X187667Y629336D01*
Y625337D01*
Y628003D02*
X185001Y630668D01*
Y638666D02*
Y633334D01*
X190333Y638666D01*
X191666D01*
X192999Y637333D01*
Y634667D01*
X191666Y633334D01*
X186334Y641332D02*
X185001Y642664D01*
Y645330D01*
X186334Y646663D01*
X191666D01*
X192999Y645330D01*
Y642664D01*
X191666Y641332D01*
X190333D01*
X189000Y642664D01*
Y646663D01*
X374163Y804501D02*
Y812499D01*
X370164D01*
X368832Y811166D01*
Y808500D01*
X370164Y807167D01*
X374163D01*
X371497D02*
X368832Y804501D01*
X360834D02*
X366166D01*
X360834Y809833D01*
Y811166D01*
X362167Y812499D01*
X364833D01*
X366166Y811166D01*
X358168D02*
X356836Y812499D01*
X354170D01*
X352837Y811166D01*
Y809833D01*
X354170Y808500D01*
X352837Y807167D01*
Y805834D01*
X354170Y804501D01*
X356836D01*
X358168Y805834D01*
Y807167D01*
X356836Y808500D01*
X358168Y809833D01*
Y811166D01*
X356836Y808500D02*
X354170D01*
X224001Y625337D02*
X231999D01*
Y629336D01*
X230666Y630668D01*
X228000D01*
X226667Y629336D01*
Y625337D01*
Y628003D02*
X224001Y630668D01*
Y638666D02*
Y633334D01*
X229333Y638666D01*
X230666D01*
X231999Y637333D01*
Y634667D01*
X230666Y633334D01*
X231999Y641332D02*
Y646663D01*
X230666D01*
X225334Y641332D01*
X224001D01*
X374163Y766001D02*
Y773999D01*
X370164D01*
X368832Y772666D01*
Y770000D01*
X370164Y768667D01*
X374163D01*
X371497D02*
X368832Y766001D01*
X360834D02*
X366166D01*
X360834Y771333D01*
Y772666D01*
X362167Y773999D01*
X364833D01*
X366166Y772666D01*
X352837Y773999D02*
X355503Y772666D01*
X358168Y770000D01*
Y767334D01*
X356836Y766001D01*
X354170D01*
X352837Y767334D01*
Y768667D01*
X354170Y770000D01*
X358168D01*
X374663Y792001D02*
Y799999D01*
X370664D01*
X369332Y798666D01*
Y796000D01*
X370664Y794667D01*
X374663D01*
X371997D02*
X369332Y792001D01*
X361334D02*
X366666D01*
X361334Y797333D01*
Y798666D01*
X362667Y799999D01*
X365333D01*
X366666Y798666D01*
X353337Y799999D02*
X358668D01*
Y796000D01*
X356003Y797333D01*
X354670D01*
X353337Y796000D01*
Y793334D01*
X354670Y792001D01*
X357336D01*
X358668Y793334D01*
X197851Y625337D02*
X205849D01*
Y629336D01*
X204516Y630668D01*
X201850D01*
X200517Y629336D01*
Y625337D01*
Y628003D02*
X197851Y630668D01*
Y638666D02*
Y633334D01*
X203183Y638666D01*
X204516D01*
X205849Y637333D01*
Y634667D01*
X204516Y633334D01*
X197851Y645330D02*
X205849D01*
X201850Y641332D01*
Y646663D01*
X211151Y625337D02*
X219149D01*
Y629336D01*
X217816Y630668D01*
X215150D01*
X213817Y629336D01*
Y625337D01*
Y628003D02*
X211151Y630668D01*
Y638666D02*
Y633334D01*
X216483Y638666D01*
X217816D01*
X219149Y637333D01*
Y634667D01*
X217816Y633334D01*
Y641332D02*
X219149Y642664D01*
Y645330D01*
X217816Y646663D01*
X216483D01*
X215150Y645330D01*
Y643997D01*
Y645330D01*
X213817Y646663D01*
X212484D01*
X211151Y645330D01*
Y642664D01*
X212484Y641332D01*
X420001Y1027337D02*
X427999D01*
Y1031336D01*
X426666Y1032668D01*
X424000D01*
X422667Y1031336D01*
Y1027337D01*
Y1030003D02*
X420001Y1032668D01*
Y1040666D02*
Y1035334D01*
X425333Y1040666D01*
X426666D01*
X427999Y1039333D01*
Y1036667D01*
X426666Y1035334D01*
X420001Y1048663D02*
Y1043332D01*
X425333Y1048663D01*
X426666D01*
X427999Y1047330D01*
Y1044665D01*
X426666Y1043332D01*
X403330Y934001D02*
Y941999D01*
X399332D01*
X397999Y940666D01*
Y938000D01*
X399332Y936667D01*
X403330D01*
X400664D02*
X397999Y934001D01*
X390001D02*
X395333D01*
X390001Y939333D01*
Y940666D01*
X391334Y941999D01*
X394000D01*
X395333Y940666D01*
X387336Y934001D02*
X384670D01*
X386003D01*
Y941999D01*
X387336Y940666D01*
X246197Y869315D02*
X254195D01*
Y873313D01*
X252862Y874646D01*
X250196D01*
X248863Y873313D01*
Y869315D01*
Y871980D02*
X246197Y874646D01*
Y882644D02*
Y877312D01*
X251529Y882644D01*
X252862D01*
X254195Y881311D01*
Y878645D01*
X252862Y877312D01*
Y885309D02*
X254195Y886642D01*
Y889308D01*
X252862Y890641D01*
X247530D01*
X246197Y889308D01*
Y886642D01*
X247530Y885309D01*
X252862D01*
X185001Y869003D02*
X192999D01*
Y873002D01*
X191666Y874335D01*
X189000D01*
X187667Y873002D01*
Y869003D01*
Y871669D02*
X185001Y874335D01*
Y877001D02*
Y879666D01*
Y878334D01*
X192999D01*
X191666Y877001D01*
X186334Y883665D02*
X185001Y884998D01*
Y887664D01*
X186334Y888997D01*
X191666D01*
X192999Y887664D01*
Y884998D01*
X191666Y883665D01*
X190333D01*
X189000Y884998D01*
Y888997D01*
X284811Y869003D02*
X292809D01*
Y873002D01*
X291476Y874335D01*
X288810D01*
X287477Y873002D01*
Y869003D01*
Y871669D02*
X284811Y874335D01*
Y877001D02*
Y879666D01*
Y878334D01*
X292809D01*
X291476Y877001D01*
Y883665D02*
X292809Y884998D01*
Y887664D01*
X291476Y888997D01*
X290143D01*
X288810Y887664D01*
X287477Y888997D01*
X286144D01*
X284811Y887664D01*
Y884998D01*
X286144Y883665D01*
X287477D01*
X288810Y884998D01*
X290143Y883665D01*
X291476D01*
X288810Y884998D02*
Y887664D01*
X224001Y869003D02*
X231999D01*
Y873002D01*
X230666Y874335D01*
X228000D01*
X226667Y873002D01*
Y869003D01*
Y871669D02*
X224001Y874335D01*
Y877001D02*
Y879666D01*
Y878334D01*
X231999D01*
X230666Y877001D01*
X231999Y883665D02*
Y888997D01*
X230666D01*
X225334Y883665D01*
X224001D01*
X259001Y869003D02*
X266999D01*
Y873002D01*
X265666Y874335D01*
X263000D01*
X261667Y873002D01*
Y869003D01*
Y871669D02*
X259001Y874335D01*
Y877001D02*
Y879666D01*
Y878334D01*
X266999D01*
X265666Y877001D01*
X266999Y888997D02*
X265666Y886331D01*
X263000Y883665D01*
X260334D01*
X259001Y884998D01*
Y887664D01*
X260334Y888997D01*
X261667D01*
X263000Y887664D01*
Y883665D01*
X272001Y869003D02*
X279999D01*
Y873002D01*
X278666Y874335D01*
X276000D01*
X274667Y873002D01*
Y869003D01*
Y871669D02*
X272001Y874335D01*
Y877001D02*
Y879666D01*
Y878334D01*
X279999D01*
X278666Y877001D01*
X279999Y888997D02*
Y883665D01*
X276000D01*
X277333Y886331D01*
Y887664D01*
X276000Y888997D01*
X273334D01*
X272001Y887664D01*
Y884998D01*
X273334Y883665D01*
X198001Y869003D02*
X205999D01*
Y873002D01*
X204666Y874335D01*
X202000D01*
X200667Y873002D01*
Y869003D01*
Y871669D02*
X198001Y874335D01*
Y877001D02*
Y879666D01*
Y878334D01*
X205999D01*
X204666Y877001D01*
X198001Y887664D02*
X205999D01*
X202000Y883665D01*
Y888997D01*
X211001Y869003D02*
X218999D01*
Y873002D01*
X217666Y874335D01*
X215000D01*
X213667Y873002D01*
Y869003D01*
Y871669D02*
X211001Y874335D01*
Y877001D02*
Y879666D01*
Y878334D01*
X218999D01*
X217666Y877001D01*
Y883665D02*
X218999Y884998D01*
Y887664D01*
X217666Y888997D01*
X216333D01*
X215000Y887664D01*
Y886331D01*
Y887664D01*
X213667Y888997D01*
X212334D01*
X211001Y887664D01*
Y884998D01*
X212334Y883665D01*
X169001Y740003D02*
X176999D01*
Y744002D01*
X175666Y745335D01*
X173000D01*
X171667Y744002D01*
Y740003D01*
Y742669D02*
X169001Y745335D01*
Y748001D02*
Y750666D01*
Y749334D01*
X176999D01*
X175666Y748001D01*
X169001Y759997D02*
Y754665D01*
X174333Y759997D01*
X175666D01*
X176999Y758664D01*
Y755998D01*
X175666Y754665D01*
X133664Y1060001D02*
Y1067999D01*
X129665D01*
X128332Y1066666D01*
Y1064000D01*
X129665Y1062667D01*
X133664D01*
X130998D02*
X128332Y1060001D01*
X125666D02*
X123001D01*
X124333D01*
Y1067999D01*
X125666Y1066666D01*
X119002Y1060001D02*
X116336D01*
X117669D01*
Y1067999D01*
X119002Y1066666D01*
X134997Y1022001D02*
Y1029999D01*
X130998D01*
X129665Y1028666D01*
Y1026000D01*
X130998Y1024667D01*
X134997D01*
X132331D02*
X129665Y1022001D01*
X126999D02*
X124334D01*
X125666D01*
Y1029999D01*
X126999Y1028666D01*
X120335D02*
X119002Y1029999D01*
X116336D01*
X115003Y1028666D01*
Y1023334D01*
X116336Y1022001D01*
X119002D01*
X120335Y1023334D01*
Y1028666D01*
X131664Y920001D02*
Y927999D01*
X127666D01*
X126333Y926666D01*
Y924000D01*
X127666Y922667D01*
X131664D01*
X128999D02*
X126333Y920001D01*
X123667Y921334D02*
X122334Y920001D01*
X119668D01*
X118336Y921334D01*
Y926666D01*
X119668Y927999D01*
X122334D01*
X123667Y926666D01*
Y925333D01*
X122334Y924000D01*
X118336D01*
X377664Y1035001D02*
Y1042999D01*
X373666D01*
X372333Y1041666D01*
Y1039000D01*
X373666Y1037667D01*
X377664D01*
X374999D02*
X372333Y1035001D01*
X369667Y1041666D02*
X368334Y1042999D01*
X365668D01*
X364336Y1041666D01*
Y1040333D01*
X365668Y1039000D01*
X364336Y1037667D01*
Y1036334D01*
X365668Y1035001D01*
X368334D01*
X369667Y1036334D01*
Y1037667D01*
X368334Y1039000D01*
X369667Y1040333D01*
Y1041666D01*
X368334Y1039000D02*
X365668D01*
X377664Y935001D02*
Y942999D01*
X373666D01*
X372333Y941666D01*
Y939000D01*
X373666Y937667D01*
X377664D01*
X374999D02*
X372333Y935001D01*
X369667Y942999D02*
X364336D01*
Y941666D01*
X369667Y936334D01*
Y935001D01*
X377664Y947001D02*
Y954999D01*
X373666D01*
X372333Y953666D01*
Y951000D01*
X373666Y949667D01*
X377664D01*
X374999D02*
X372333Y947001D01*
X364336Y954999D02*
X367001Y953666D01*
X369667Y951000D01*
Y948334D01*
X368334Y947001D01*
X365668D01*
X364336Y948334D01*
Y949667D01*
X365668Y951000D01*
X369667D01*
X377664Y972001D02*
Y979999D01*
X373666D01*
X372333Y978666D01*
Y976000D01*
X373666Y974667D01*
X377664D01*
X374999D02*
X372333Y972001D01*
X364336Y979999D02*
X369667D01*
Y976000D01*
X367001Y977333D01*
X365668D01*
X364336Y976000D01*
Y973334D01*
X365668Y972001D01*
X368334D01*
X369667Y973334D01*
X377664Y985001D02*
Y992999D01*
X373666D01*
X372333Y991666D01*
Y989000D01*
X373666Y987667D01*
X377664D01*
X374999D02*
X372333Y985001D01*
X365668D02*
Y992999D01*
X369667Y989000D01*
X364336D01*
X267001Y505336D02*
X274999D01*
Y509334D01*
X273666Y510667D01*
X271000D01*
X269667Y509334D01*
Y505336D01*
Y508001D02*
X267001Y510667D01*
X273666Y513333D02*
X274999Y514666D01*
Y517332D01*
X273666Y518665D01*
X272333D01*
X271000Y517332D01*
Y515999D01*
Y517332D01*
X269667Y518665D01*
X268334D01*
X267001Y517332D01*
Y514666D01*
X268334Y513333D01*
X267001Y528086D02*
X274999D01*
Y532084D01*
X273666Y533417D01*
X271000D01*
X269667Y532084D01*
Y528086D01*
Y530751D02*
X267001Y533417D01*
Y541414D02*
Y536083D01*
X272333Y541414D01*
X273666D01*
X274999Y540082D01*
Y537416D01*
X273666Y536083D01*
X230001Y507668D02*
X237999D01*
Y511667D01*
X236666Y513000D01*
X234000D01*
X232667Y511667D01*
Y507668D01*
Y510334D02*
X230001Y513000D01*
Y515666D02*
Y518332D01*
Y516999D01*
X237999D01*
X236666Y515666D01*
X189332Y544999D02*
Y537001D01*
X184000D01*
X181334D02*
X178668D01*
X180001D01*
Y544999D01*
X181334Y543666D01*
X52999Y1114999D02*
X55665D01*
X54332D01*
Y1108334D01*
X55665Y1107001D01*
X56997D01*
X58330Y1108334D01*
X50333Y1107001D02*
Y1114999D01*
X46334D01*
X45001Y1113666D01*
Y1111000D01*
X46334Y1109667D01*
X50333D01*
X42336Y1107001D02*
X39670D01*
X41003D01*
Y1114999D01*
X42336Y1113666D01*
X401666Y985668D02*
X402999Y984335D01*
Y981670D01*
X401666Y980337D01*
X396334D01*
X395001Y981670D01*
Y984335D01*
X396334Y985668D01*
X395001Y993666D02*
Y988334D01*
X400333Y993666D01*
X401666D01*
X402999Y992333D01*
Y989667D01*
X401666Y988334D01*
X402999Y996332D02*
Y1001663D01*
X401666D01*
X396334Y996332D01*
X395001D01*
X290142Y692666D02*
X291474Y693999D01*
X294140D01*
X295473Y692666D01*
Y687334D01*
X294140Y686001D01*
X291474D01*
X290142Y687334D01*
X282144Y686001D02*
X287476D01*
X282144Y691333D01*
Y692666D01*
X283477Y693999D01*
X286143D01*
X287476Y692666D01*
X274147Y693999D02*
X276813Y692666D01*
X279478Y690000D01*
Y687334D01*
X278146Y686001D01*
X275480D01*
X274147Y687334D01*
Y688667D01*
X275480Y690000D01*
X279478D01*
X163666Y799668D02*
X164999Y798335D01*
Y795670D01*
X163666Y794337D01*
X158334D01*
X157001Y795670D01*
Y798335D01*
X158334Y799668D01*
X157001Y807666D02*
Y802334D01*
X162333Y807666D01*
X163666D01*
X164999Y806333D01*
Y803667D01*
X163666Y802334D01*
X164999Y815663D02*
Y810332D01*
X161000D01*
X162333Y812997D01*
Y814330D01*
X161000Y815663D01*
X158334D01*
X157001Y814330D01*
Y811665D01*
X158334Y810332D01*
X258332Y693666D02*
X259664Y694999D01*
X262330D01*
X263663Y693666D01*
Y688334D01*
X262330Y687001D01*
X259664D01*
X258332Y688334D01*
X250334Y687001D02*
X255666D01*
X250334Y692333D01*
Y693666D01*
X251667Y694999D01*
X254333D01*
X255666Y693666D01*
X243670Y687001D02*
Y694999D01*
X247668Y691000D01*
X242337D01*
X163666Y756668D02*
X164999Y755335D01*
Y752670D01*
X163666Y751337D01*
X158334D01*
X157001Y752670D01*
Y755335D01*
X158334Y756668D01*
X157001Y764666D02*
Y759334D01*
X162333Y764666D01*
X163666D01*
X164999Y763333D01*
Y760667D01*
X163666Y759334D01*
Y767332D02*
X164999Y768664D01*
Y771330D01*
X163666Y772663D01*
X162333D01*
X161000Y771330D01*
Y769997D01*
Y771330D01*
X159667Y772663D01*
X158334D01*
X157001Y771330D01*
Y768664D01*
X158334Y767332D01*
X310666Y693668D02*
X311999Y692336D01*
Y689670D01*
X310666Y688337D01*
X305334D01*
X304001Y689670D01*
Y692336D01*
X305334Y693668D01*
X304001Y701666D02*
Y696334D01*
X309333Y701666D01*
X310666D01*
X311999Y700333D01*
Y697667D01*
X310666Y696334D01*
X304001Y709663D02*
Y704332D01*
X309333Y709663D01*
X310666D01*
X311999Y708330D01*
Y705665D01*
X310666Y704332D01*
X163666Y735001D02*
X164999Y733668D01*
Y731003D01*
X163666Y729670D01*
X158334D01*
X157001Y731003D01*
Y733668D01*
X158334Y735001D01*
X157001Y742999D02*
Y737667D01*
X162333Y742999D01*
X163666D01*
X164999Y741666D01*
Y739000D01*
X163666Y737667D01*
X157001Y745665D02*
Y748330D01*
Y746997D01*
X164999D01*
X163666Y745665D01*
X310666Y733668D02*
X311999Y732336D01*
Y729670D01*
X310666Y728337D01*
X305334D01*
X304001Y729670D01*
Y732336D01*
X305334Y733668D01*
X304001Y741666D02*
Y736334D01*
X309333Y741666D01*
X310666D01*
X311999Y740333D01*
Y737667D01*
X310666Y736334D01*
Y744332D02*
X311999Y745665D01*
Y748330D01*
X310666Y749663D01*
X305334D01*
X304001Y748330D01*
Y745665D01*
X305334Y744332D01*
X310666D01*
X163166Y693335D02*
X164499Y692002D01*
Y689336D01*
X163166Y688003D01*
X157834D01*
X156501Y689336D01*
Y692002D01*
X157834Y693335D01*
X156501Y696001D02*
Y698666D01*
Y697334D01*
X164499D01*
X163166Y696001D01*
X157834Y702665D02*
X156501Y703998D01*
Y706664D01*
X157834Y707997D01*
X163166D01*
X164499Y706664D01*
Y703998D01*
X163166Y702665D01*
X161833D01*
X160500Y703998D01*
Y707997D01*
X401666Y1010335D02*
X402999Y1009002D01*
Y1006336D01*
X401666Y1005003D01*
X396334D01*
X395001Y1006336D01*
Y1009002D01*
X396334Y1010335D01*
X395001Y1013001D02*
Y1015666D01*
Y1014334D01*
X402999D01*
X401666Y1013001D01*
Y1019665D02*
X402999Y1020998D01*
Y1023664D01*
X401666Y1024997D01*
X400333D01*
X399000Y1023664D01*
X397667Y1024997D01*
X396334D01*
X395001Y1023664D01*
Y1020998D01*
X396334Y1019665D01*
X397667D01*
X399000Y1020998D01*
X400333Y1019665D01*
X401666D01*
X399000Y1020998D02*
Y1023664D01*
X310666Y758335D02*
X311999Y757002D01*
Y754336D01*
X310666Y753003D01*
X305334D01*
X304001Y754336D01*
Y757002D01*
X305334Y758335D01*
X304001Y761001D02*
Y763666D01*
Y762334D01*
X311999D01*
X310666Y761001D01*
X311999Y767665D02*
Y772997D01*
X310666D01*
X305334Y767665D01*
X304001D01*
X197665Y693666D02*
X198998Y694999D01*
X201664D01*
X202997Y693666D01*
Y688334D01*
X201664Y687001D01*
X198998D01*
X197665Y688334D01*
X194999Y687001D02*
X192334D01*
X193666D01*
Y694999D01*
X194999Y693666D01*
X183003Y694999D02*
X185669Y693666D01*
X188335Y691000D01*
Y688334D01*
X187002Y687001D01*
X184336D01*
X183003Y688334D01*
Y689667D01*
X184336Y691000D01*
X188335D01*
X311666Y800335D02*
X312999Y799002D01*
Y796336D01*
X311666Y795003D01*
X306334D01*
X305001Y796336D01*
Y799002D01*
X306334Y800335D01*
X305001Y803001D02*
Y805666D01*
Y804333D01*
X312999D01*
X311666Y803001D01*
X312999Y814997D02*
Y809665D01*
X309000D01*
X310333Y812331D01*
Y813664D01*
X309000Y814997D01*
X306334D01*
X305001Y813664D01*
Y810998D01*
X306334Y809665D01*
X228665Y693666D02*
X229998Y694999D01*
X232664D01*
X233997Y693666D01*
Y688334D01*
X232664Y687001D01*
X229998D01*
X228665Y688334D01*
X225999Y687001D02*
X223334D01*
X224667D01*
Y694999D01*
X225999Y693666D01*
X215336Y687001D02*
Y694999D01*
X219335Y691000D01*
X214003D01*
X401666Y1034335D02*
X402999Y1033002D01*
Y1030336D01*
X401666Y1029003D01*
X396334D01*
X395001Y1030336D01*
Y1033002D01*
X396334Y1034335D01*
X395001Y1037001D02*
Y1039666D01*
Y1038334D01*
X402999D01*
X401666Y1037001D01*
Y1043665D02*
X402999Y1044998D01*
Y1047664D01*
X401666Y1048997D01*
X400333D01*
X399000Y1047664D01*
Y1046331D01*
Y1047664D01*
X397667Y1048997D01*
X396334D01*
X395001Y1047664D01*
Y1044998D01*
X396334Y1043665D01*
X257665Y826666D02*
X258998Y827999D01*
X261664D01*
X262997Y826666D01*
Y821334D01*
X261664Y820001D01*
X258998D01*
X257665Y821334D01*
X254999Y820001D02*
X252334D01*
X253666D01*
Y827999D01*
X254999Y826666D01*
X243003Y820001D02*
X248335D01*
X243003Y825333D01*
Y826666D01*
X244336Y827999D01*
X247002D01*
X248335Y826666D01*
X196332Y827666D02*
X197665Y828999D01*
X200331D01*
X201664Y827666D01*
Y822334D01*
X200331Y821001D01*
X197665D01*
X196332Y822334D01*
X193666Y821001D02*
X191001D01*
X192334D01*
Y828999D01*
X193666Y827666D01*
X187002Y821001D02*
X184336D01*
X185669D01*
Y828999D01*
X187002Y827666D01*
X289665Y826666D02*
X290998Y827999D01*
X293664D01*
X294997Y826666D01*
Y821334D01*
X293664Y820001D01*
X290998D01*
X289665Y821334D01*
X286999Y820001D02*
X284333D01*
X285666D01*
Y827999D01*
X286999Y826666D01*
X280335D02*
X279002Y827999D01*
X276336D01*
X275003Y826666D01*
Y821334D01*
X276336Y820001D01*
X279002D01*
X280335Y821334D01*
Y826666D01*
X226333D02*
X227666Y827999D01*
X230332D01*
X231665Y826666D01*
Y821334D01*
X230332Y820001D01*
X227666D01*
X226333Y821334D01*
X223667D02*
X222334Y820001D01*
X219668D01*
X218335Y821334D01*
Y826666D01*
X219668Y827999D01*
X222334D01*
X223667Y826666D01*
Y825333D01*
X222334Y824000D01*
X218335D01*
X188666Y743667D02*
X189999Y742334D01*
Y739668D01*
X188666Y738335D01*
X183334D01*
X182001Y739668D01*
Y742334D01*
X183334Y743667D01*
X188666Y746333D02*
X189999Y747666D01*
Y750332D01*
X188666Y751665D01*
X187333D01*
X186000Y750332D01*
X184667Y751665D01*
X183334D01*
X182001Y750332D01*
Y747666D01*
X183334Y746333D01*
X184667D01*
X186000Y747666D01*
X187333Y746333D01*
X188666D01*
X186000Y747666D02*
Y750332D01*
X370333Y1054666D02*
X371666Y1055999D01*
X374332D01*
X375664Y1054666D01*
Y1049334D01*
X374332Y1048001D01*
X371666D01*
X370333Y1049334D01*
X367667Y1055999D02*
X362336D01*
Y1054666D01*
X367667Y1049334D01*
Y1048001D01*
X344333Y1090666D02*
X345666Y1091999D01*
X348332D01*
X349664Y1090666D01*
Y1085334D01*
X348332Y1084001D01*
X345666D01*
X344333Y1085334D01*
X336335Y1091999D02*
X339001Y1090666D01*
X341667Y1088000D01*
Y1085334D01*
X340334Y1084001D01*
X337668D01*
X336335Y1085334D01*
Y1086667D01*
X337668Y1088000D01*
X341667D01*
X361333Y1096666D02*
X362666Y1097999D01*
X365332D01*
X366665Y1096666D01*
Y1091334D01*
X365332Y1090001D01*
X362666D01*
X361333Y1091334D01*
X353335Y1097999D02*
X358667D01*
Y1094000D01*
X356001Y1095333D01*
X354668D01*
X353335Y1094000D01*
Y1091334D01*
X354668Y1090001D01*
X357334D01*
X358667Y1091334D01*
X295333Y760666D02*
X296666Y761999D01*
X299332D01*
X300665Y760666D01*
Y755334D01*
X299332Y754001D01*
X296666D01*
X295333Y755334D01*
X288668Y754001D02*
Y761999D01*
X292667Y758000D01*
X287335D01*
X236666Y532667D02*
X237999Y531334D01*
Y528668D01*
X236666Y527335D01*
X231334D01*
X230001Y528668D01*
Y531334D01*
X231334Y532667D01*
X236666Y535333D02*
X237999Y536666D01*
Y539332D01*
X236666Y540664D01*
X235333D01*
X234000Y539332D01*
Y537999D01*
Y539332D01*
X232667Y540664D01*
X231334D01*
X230001Y539332D01*
Y536666D01*
X231334Y535333D01*
X216666Y482667D02*
X217999Y481334D01*
Y478668D01*
X216666Y477336D01*
X211334D01*
X210001Y478668D01*
Y481334D01*
X211334Y482667D01*
X210001Y490664D02*
Y485333D01*
X215333Y490664D01*
X216666D01*
X217999Y489332D01*
Y486666D01*
X216666Y485333D01*
Y563000D02*
X217999Y561667D01*
Y559001D01*
X216666Y557668D01*
X211334D01*
X210001Y559001D01*
Y561667D01*
X211334Y563000D01*
X210001Y565666D02*
Y568332D01*
Y566999D01*
X217999D01*
X216666Y565666D01*
D47*
X465572Y988000D02*
X570400D01*
X540400D02*
X570400Y1018000D01*
X540400Y988000D02*
X570400Y958000D01*
D65*
X368079Y602500D02*
X341422D01*
X354751Y615829D02*
Y589171D01*
M02*
