G04*
G04 #@! TF.GenerationSoftware,Altium Limited,Altium Designer,23.4.1 (23)*
G04*
G04 Layer_Physical_Order=1*
G04 Layer_Color=255*
%FSLAX44Y44*%
%MOMM*%
G71*
G04*
G04 #@! TF.SameCoordinates,ED8CA8E1-86DF-42A4-AF38-516AE62C0134*
G04*
G04*
G04 #@! TF.FilePolarity,Positive*
G04*
G01*
G75*
%ADD11C,0.2000*%
G04:AMPARAMS|DCode=14|XSize=1.6mm|YSize=1.3mm|CornerRadius=0.325mm|HoleSize=0mm|Usage=FLASHONLY|Rotation=90.000|XOffset=0mm|YOffset=0mm|HoleType=Round|Shape=RoundedRectangle|*
%AMROUNDEDRECTD14*
21,1,1.6000,0.6500,0,0,90.0*
21,1,0.9500,1.3000,0,0,90.0*
1,1,0.6500,0.3250,0.4750*
1,1,0.6500,0.3250,-0.4750*
1,1,0.6500,-0.3250,-0.4750*
1,1,0.6500,-0.3250,0.4750*
%
%ADD14ROUNDEDRECTD14*%
G04:AMPARAMS|DCode=15|XSize=2.8mm|YSize=3.8mm|CornerRadius=0.7mm|HoleSize=0mm|Usage=FLASHONLY|Rotation=270.000|XOffset=0mm|YOffset=0mm|HoleType=Round|Shape=RoundedRectangle|*
%AMROUNDEDRECTD15*
21,1,2.8000,2.4000,0,0,270.0*
21,1,1.4000,3.8000,0,0,270.0*
1,1,1.4000,-1.2000,-0.7000*
1,1,1.4000,-1.2000,0.7000*
1,1,1.4000,1.2000,0.7000*
1,1,1.4000,1.2000,-0.7000*
%
%ADD15ROUNDEDRECTD15*%
G04:AMPARAMS|DCode=16|XSize=1.8mm|YSize=2.5mm|CornerRadius=0.45mm|HoleSize=0mm|Usage=FLASHONLY|Rotation=270.000|XOffset=0mm|YOffset=0mm|HoleType=Round|Shape=RoundedRectangle|*
%AMROUNDEDRECTD16*
21,1,1.8000,1.6000,0,0,270.0*
21,1,0.9000,2.5000,0,0,270.0*
1,1,0.9000,-0.8000,-0.4500*
1,1,0.9000,-0.8000,0.4500*
1,1,0.9000,0.8000,0.4500*
1,1,0.9000,0.8000,-0.4500*
%
%ADD16ROUNDEDRECTD16*%
%ADD21C,1.8000*%
%ADD26R,1.6000X1.6000*%
%ADD27C,1.6000*%
G04:AMPARAMS|DCode=28|XSize=2mm|YSize=8mm|CornerRadius=0.5mm|HoleSize=0mm|Usage=FLASHONLY|Rotation=0.000|XOffset=0mm|YOffset=0mm|HoleType=Round|Shape=RoundedRectangle|*
%AMROUNDEDRECTD28*
21,1,2.0000,7.0000,0,0,0.0*
21,1,1.0000,8.0000,0,0,0.0*
1,1,1.0000,0.5000,-3.5000*
1,1,1.0000,-0.5000,-3.5000*
1,1,1.0000,-0.5000,3.5000*
1,1,1.0000,0.5000,3.5000*
%
%ADD28ROUNDEDRECTD28*%
%ADD29C,6.0000*%
%ADD30C,0.6000*%
G36*
X570000Y1200000D02*
X571966Y1200000D01*
X575865Y1199487D01*
X579664Y1198469D01*
X583297Y1196964D01*
X586703Y1194998D01*
X589823Y1192604D01*
X592604Y1189823D01*
X594998Y1186703D01*
X596964Y1183297D01*
X598469Y1179664D01*
X599487Y1175865D01*
X600000Y1171966D01*
Y1170000D01*
X600000Y1170000D01*
X600000Y1170000D01*
X600000Y30000D01*
X600000Y28033D01*
X599487Y24134D01*
X598469Y20336D01*
X596964Y16703D01*
X594998Y13297D01*
X592604Y10177D01*
X589823Y7396D01*
X586703Y5002D01*
X583297Y3036D01*
X579664Y1531D01*
X575866Y513D01*
X571967Y-0D01*
X570000Y0D01*
X28033D01*
X24135Y513D01*
X20336Y1531D01*
X16703Y3036D01*
X13297Y5002D01*
X10177Y7396D01*
X7396Y10177D01*
X5002Y13297D01*
X3036Y16703D01*
X1531Y20336D01*
X513Y24134D01*
X0Y28033D01*
X0Y30000D01*
Y1170000D01*
Y1171966D01*
X513Y1175865D01*
X1531Y1179664D01*
X3036Y1183297D01*
X5002Y1186703D01*
X7396Y1189823D01*
X10177Y1192604D01*
X13297Y1194998D01*
X16703Y1196964D01*
X20336Y1198469D01*
X24135Y1199487D01*
X28034Y1200000D01*
X30000D01*
Y1200000D01*
X570000Y1200000D01*
D02*
G37*
%LPC*%
G36*
X200348Y1189920D02*
X199900D01*
Y1179920D01*
X209900D01*
Y1180368D01*
X209150Y1183166D01*
X207702Y1185674D01*
X205654Y1187722D01*
X203146Y1189170D01*
X200348Y1189920D01*
D02*
G37*
G36*
X197900D02*
X197452D01*
X194654Y1189170D01*
X192146Y1187722D01*
X190098Y1185674D01*
X188650Y1183166D01*
X187900Y1180368D01*
Y1179920D01*
X197900D01*
Y1189920D01*
D02*
G37*
G36*
X276548D02*
X273652D01*
X270854Y1189170D01*
X268346Y1187722D01*
X266298Y1185674D01*
X264850Y1183166D01*
X264100Y1180368D01*
Y1177472D01*
X264850Y1174674D01*
X266298Y1172166D01*
X268346Y1170118D01*
X270854Y1168670D01*
X273652Y1167920D01*
X276548D01*
X279346Y1168670D01*
X281854Y1170118D01*
X283902Y1172166D01*
X285350Y1174674D01*
X286100Y1177472D01*
Y1180368D01*
X285350Y1183166D01*
X283902Y1185674D01*
X281854Y1187722D01*
X279346Y1189170D01*
X276548Y1189920D01*
D02*
G37*
G36*
X251148D02*
X248252D01*
X245454Y1189170D01*
X242946Y1187722D01*
X240898Y1185674D01*
X239450Y1183166D01*
X238700Y1180368D01*
Y1177472D01*
X239450Y1174674D01*
X240898Y1172166D01*
X242946Y1170118D01*
X245454Y1168670D01*
X248252Y1167920D01*
X251148D01*
X253946Y1168670D01*
X256454Y1170118D01*
X258502Y1172166D01*
X259950Y1174674D01*
X260700Y1177472D01*
Y1180368D01*
X259950Y1183166D01*
X258502Y1185674D01*
X256454Y1187722D01*
X253946Y1189170D01*
X251148Y1189920D01*
D02*
G37*
G36*
X225748D02*
X222852D01*
X220054Y1189170D01*
X217546Y1187722D01*
X215498Y1185674D01*
X214050Y1183166D01*
X213300Y1180368D01*
Y1177472D01*
X214050Y1174674D01*
X215498Y1172166D01*
X217546Y1170118D01*
X220054Y1168670D01*
X222852Y1167920D01*
X225748D01*
X228546Y1168670D01*
X231054Y1170118D01*
X233102Y1172166D01*
X234550Y1174674D01*
X235300Y1177472D01*
Y1180368D01*
X234550Y1183166D01*
X233102Y1185674D01*
X231054Y1187722D01*
X228546Y1189170D01*
X225748Y1189920D01*
D02*
G37*
G36*
X209900Y1177920D02*
X199900D01*
Y1167920D01*
X200348D01*
X203146Y1168670D01*
X205654Y1170118D01*
X207702Y1172166D01*
X209150Y1174674D01*
X209900Y1177472D01*
Y1177920D01*
D02*
G37*
G36*
X197900D02*
X187900D01*
Y1177472D01*
X188650Y1174674D01*
X190098Y1172166D01*
X192146Y1170118D01*
X194654Y1168670D01*
X197452Y1167920D01*
X197900D01*
Y1177920D01*
D02*
G37*
G36*
X470248Y1119500D02*
X469800D01*
Y1109500D01*
X479800D01*
Y1109948D01*
X479050Y1112746D01*
X477602Y1115254D01*
X475554Y1117302D01*
X473046Y1118750D01*
X470248Y1119500D01*
D02*
G37*
G36*
X467800D02*
X467352D01*
X464554Y1118750D01*
X462046Y1117302D01*
X459998Y1115254D01*
X458550Y1112746D01*
X457800Y1109948D01*
Y1109500D01*
X467800D01*
Y1119500D01*
D02*
G37*
G36*
X538048Y1122000D02*
X535152D01*
X532354Y1121250D01*
X529846Y1119802D01*
X527798Y1117754D01*
X526350Y1115246D01*
X525600Y1112448D01*
Y1109552D01*
X526350Y1106754D01*
X527798Y1104246D01*
X529846Y1102198D01*
X532354Y1100750D01*
X535152Y1100000D01*
X538048D01*
X540846Y1100750D01*
X543354Y1102198D01*
X545402Y1104246D01*
X546850Y1106754D01*
X547600Y1109552D01*
Y1112448D01*
X546850Y1115246D01*
X545402Y1117754D01*
X543354Y1119802D01*
X540846Y1121250D01*
X538048Y1122000D01*
D02*
G37*
G36*
X479800Y1107500D02*
X469800D01*
Y1097500D01*
X470248D01*
X473046Y1098250D01*
X475554Y1099698D01*
X477602Y1101746D01*
X479050Y1104254D01*
X479800Y1107052D01*
Y1107500D01*
D02*
G37*
G36*
X467800D02*
X457800D01*
Y1107052D01*
X458550Y1104254D01*
X459998Y1101746D01*
X462046Y1099698D01*
X464554Y1098250D01*
X467352Y1097500D01*
X467800D01*
Y1107500D01*
D02*
G37*
G36*
X329093Y1154553D02*
X149007D01*
X148227Y1154398D01*
X147565Y1153956D01*
X147123Y1153295D01*
X146968Y1152514D01*
Y1090538D01*
X147123Y1089758D01*
X147565Y1089096D01*
X148227Y1088654D01*
X149007Y1088499D01*
X329093D01*
X329873Y1088654D01*
X330535Y1089096D01*
X330977Y1089758D01*
X331132Y1090538D01*
Y1152514D01*
X330977Y1153295D01*
X330535Y1153956D01*
X329873Y1154398D01*
X329093Y1154553D01*
D02*
G37*
G36*
X50317Y1032100D02*
X50000D01*
Y1023100D01*
X59000D01*
Y1023417D01*
X58319Y1025960D01*
X57002Y1028240D01*
X55140Y1030102D01*
X52860Y1031419D01*
X50317Y1032100D01*
D02*
G37*
G36*
X48000D02*
X47684D01*
X45140Y1031419D01*
X42860Y1030102D01*
X40998Y1028240D01*
X39681Y1025960D01*
X39000Y1023417D01*
Y1023100D01*
X48000D01*
Y1032100D01*
D02*
G37*
G36*
X59000Y1021100D02*
X50000D01*
Y1012100D01*
X50317D01*
X52860Y1012782D01*
X55140Y1014098D01*
X57002Y1015960D01*
X58319Y1018240D01*
X59000Y1020783D01*
Y1021100D01*
D02*
G37*
G36*
X48000D02*
X39000D01*
Y1020783D01*
X39681Y1018240D01*
X40998Y1015960D01*
X42860Y1014098D01*
X45140Y1012782D01*
X47684Y1012100D01*
X48000D01*
Y1021100D01*
D02*
G37*
G36*
X50317Y1006700D02*
X47684D01*
X45140Y1006019D01*
X42860Y1004702D01*
X40998Y1002840D01*
X39681Y1000560D01*
X39000Y998017D01*
Y995383D01*
X39681Y992840D01*
X40998Y990560D01*
X42860Y988698D01*
X45140Y987382D01*
X47684Y986700D01*
X50317D01*
X52860Y987382D01*
X55140Y988698D01*
X57002Y990560D01*
X58319Y992840D01*
X59000Y995383D01*
Y998017D01*
X58319Y1000560D01*
X57002Y1002840D01*
X55140Y1004702D01*
X52860Y1006019D01*
X50317Y1006700D01*
D02*
G37*
G36*
Y981300D02*
X47684D01*
X45140Y980619D01*
X42860Y979302D01*
X40998Y977440D01*
X39681Y975160D01*
X39000Y972617D01*
Y969983D01*
X39681Y967440D01*
X40998Y965160D01*
X42860Y963298D01*
X45140Y961982D01*
X47684Y961300D01*
X50317D01*
X52860Y961982D01*
X55140Y963298D01*
X57002Y965160D01*
X58319Y967440D01*
X59000Y969983D01*
Y972617D01*
X58319Y975160D01*
X57002Y977440D01*
X55140Y979302D01*
X52860Y980619D01*
X50317Y981300D01*
D02*
G37*
G36*
X429995Y970000D02*
X428005D01*
X426168Y969239D01*
X424761Y967832D01*
X424000Y965995D01*
Y964005D01*
X424761Y962168D01*
X426168Y960761D01*
X428005Y960000D01*
X429995D01*
X430321Y960135D01*
X435849Y954606D01*
X435130Y953530D01*
X433995Y954000D01*
X432005D01*
X430168Y953239D01*
X428761Y951832D01*
X428000Y949995D01*
Y948005D01*
X428761Y946168D01*
X429941Y944988D01*
Y877688D01*
X421112Y868858D01*
X419939Y869344D01*
Y923613D01*
X420326Y924000D01*
X421995D01*
X423832Y924761D01*
X425239Y926168D01*
X426000Y928005D01*
Y929995D01*
X425239Y931832D01*
X423832Y933239D01*
X421995Y934000D01*
X420005D01*
X418168Y933239D01*
X416761Y931832D01*
X416000Y929995D01*
Y928326D01*
X414717Y927043D01*
X414054Y926050D01*
X413821Y924880D01*
X413821Y924880D01*
Y768409D01*
X413821Y768409D01*
X414054Y767238D01*
X414717Y766246D01*
X517941Y663022D01*
Y639791D01*
X516671Y639112D01*
X515798Y639695D01*
X513750Y640103D01*
X507250D01*
X505202Y639695D01*
X503465Y638535D01*
X502305Y636798D01*
X501897Y634750D01*
Y625250D01*
X502305Y623202D01*
X503465Y621465D01*
X505202Y620305D01*
X507250Y619897D01*
X513750D01*
X515798Y620305D01*
X516671Y620888D01*
X517941Y620209D01*
Y571767D01*
X515841Y569667D01*
X515798Y569695D01*
X513750Y570103D01*
X507250D01*
X505202Y569695D01*
X503465Y568535D01*
X502305Y566798D01*
X501897Y564750D01*
Y555250D01*
X502305Y553202D01*
X503465Y551465D01*
X505202Y550305D01*
X507250Y549897D01*
X513750D01*
X515798Y550305D01*
X517535Y551465D01*
X518695Y553202D01*
X519103Y555250D01*
Y564277D01*
X521308Y566482D01*
X522481Y565996D01*
Y366307D01*
X515841Y359667D01*
X515798Y359695D01*
X513750Y360103D01*
X507250D01*
X505202Y359695D01*
X503465Y358535D01*
X502305Y356798D01*
X501897Y354750D01*
Y345250D01*
X502305Y343201D01*
X503465Y341465D01*
X505202Y340305D01*
X507250Y339897D01*
X513750D01*
X515798Y340305D01*
X517535Y341465D01*
X518695Y343201D01*
X519103Y345250D01*
Y354277D01*
X525546Y360721D01*
X526720Y360235D01*
Y162045D01*
X514607Y149932D01*
X513750Y150103D01*
X507250D01*
X505202Y149695D01*
X503465Y148535D01*
X502305Y146798D01*
X501897Y144750D01*
Y135250D01*
X502305Y133202D01*
X503465Y131465D01*
X505202Y130305D01*
X507250Y129897D01*
X513750D01*
X515798Y130305D01*
X517535Y131465D01*
X518695Y133202D01*
X519103Y135250D01*
Y144750D01*
X518932Y145607D01*
X531941Y158616D01*
X532604Y159608D01*
X532837Y160779D01*
X532837Y160779D01*
Y668351D01*
X532837Y668351D01*
X532604Y669522D01*
X531941Y670514D01*
X434781Y767674D01*
X435308Y768944D01*
X450000D01*
X451697Y769167D01*
X453278Y769822D01*
X454636Y770864D01*
X455678Y772222D01*
X456333Y773803D01*
X456556Y775500D01*
Y784500D01*
X456333Y786197D01*
X455678Y787778D01*
X454636Y789136D01*
X453278Y790178D01*
X451697Y790833D01*
X450000Y791056D01*
X434000D01*
X432303Y790833D01*
X430722Y790178D01*
X430289Y789845D01*
X429019Y790472D01*
Y819528D01*
X430289Y820155D01*
X430722Y819822D01*
X432303Y819167D01*
X434000Y818944D01*
X450000D01*
X451697Y819167D01*
X453278Y819822D01*
X454636Y820864D01*
X455678Y822222D01*
X456333Y823803D01*
X456556Y825500D01*
Y834500D01*
X456333Y836197D01*
X455678Y837778D01*
X454636Y839136D01*
X453278Y840178D01*
X451697Y840833D01*
X450000Y841056D01*
X434000D01*
X432303Y840833D01*
X430722Y840178D01*
X430289Y839845D01*
X429019Y840472D01*
Y861693D01*
X442163Y874837D01*
X442826Y875829D01*
X443059Y877000D01*
X443059Y877000D01*
Y954781D01*
X443059Y954781D01*
X442826Y955952D01*
X442163Y956944D01*
X434000Y965107D01*
Y965995D01*
X433239Y967832D01*
X431832Y969239D01*
X429995Y970000D01*
D02*
G37*
G36*
X312995Y956000D02*
X311005D01*
X309168Y955239D01*
X307761Y953832D01*
X307000Y951995D01*
Y950867D01*
X300113Y943980D01*
X299450Y942988D01*
X299217Y941817D01*
X299217Y941817D01*
Y885100D01*
X298168Y884666D01*
X296761Y883259D01*
X296000Y881422D01*
Y879433D01*
X296761Y877595D01*
X298168Y876188D01*
X300005Y875427D01*
X301995D01*
X303217Y875933D01*
X304781Y875477D01*
X304932Y875111D01*
X306339Y873705D01*
X308176Y872944D01*
X310166D01*
X312003Y873705D01*
X313410Y875111D01*
X314171Y876949D01*
Y878938D01*
X314106Y879094D01*
X316163Y881151D01*
X316826Y882143D01*
X317059Y883314D01*
X317059Y883314D01*
Y935844D01*
X317540Y937005D01*
Y938995D01*
X316779Y940832D01*
X315372Y942239D01*
X313535Y943000D01*
X311545D01*
X309708Y942239D01*
X308301Y940832D01*
X307540Y938995D01*
Y937005D01*
X308301Y935168D01*
X309708Y933761D01*
X310941Y933250D01*
Y884581D01*
X309304Y882944D01*
X308176D01*
X306339Y882183D01*
X305626Y882324D01*
X305335Y883028D01*
Y940550D01*
X310849Y946065D01*
X311005Y946000D01*
X312995D01*
X314832Y946761D01*
X316239Y948168D01*
X317000Y950005D01*
Y951995D01*
X316239Y953832D01*
X314832Y955239D01*
X312995Y956000D01*
D02*
G37*
G36*
X59000Y955900D02*
X39000D01*
Y935900D01*
X59000D01*
Y955900D01*
D02*
G37*
G36*
X168995Y980000D02*
X167005D01*
X165168Y979239D01*
X163761Y977832D01*
X163000Y975995D01*
Y974005D01*
X163761Y972168D01*
X163932Y971997D01*
Y938064D01*
X163932Y938064D01*
X164165Y936893D01*
X164828Y935901D01*
X178000Y922729D01*
Y922005D01*
X178761Y920168D01*
X180168Y918761D01*
X182005Y918000D01*
X183995D01*
X185832Y918761D01*
X187239Y920168D01*
X188000Y922005D01*
Y923995D01*
X187239Y925832D01*
X185832Y927239D01*
X183995Y928000D01*
X182005D01*
X181563Y927817D01*
X170049Y939331D01*
Y970437D01*
X170832Y970761D01*
X172239Y972168D01*
X173000Y974005D01*
Y975995D01*
X172239Y977832D01*
X170832Y979239D01*
X168995Y980000D01*
D02*
G37*
G36*
X374000Y888578D02*
X350000D01*
X347650Y888268D01*
X345461Y887361D01*
X343581Y885919D01*
X342138Y884039D01*
X341232Y881850D01*
X340922Y879500D01*
Y865500D01*
X341232Y863150D01*
X342138Y860961D01*
X343581Y859081D01*
X345461Y857638D01*
X347650Y856732D01*
X350000Y856422D01*
X374000D01*
X376349Y856732D01*
X378539Y857638D01*
X380419Y859081D01*
X381861Y860961D01*
X382768Y863150D01*
X383078Y865500D01*
Y879500D01*
X382768Y881850D01*
X381861Y884039D01*
X380419Y885919D01*
X378539Y887361D01*
X376349Y888268D01*
X374000Y888578D01*
D02*
G37*
G36*
X124000D02*
X100000D01*
X97650Y888268D01*
X95461Y887361D01*
X93581Y885919D01*
X92139Y884039D01*
X91232Y881850D01*
X90922Y879500D01*
Y865500D01*
X91232Y863150D01*
X92139Y860961D01*
X93581Y859081D01*
X95461Y857638D01*
X97650Y856732D01*
X100000Y856422D01*
X124000D01*
X126349Y856732D01*
X128539Y857638D01*
X130419Y859081D01*
X131861Y860961D01*
X132768Y863150D01*
X133078Y865500D01*
Y879500D01*
X132768Y881850D01*
X131861Y884039D01*
X130419Y885919D01*
X128539Y887361D01*
X126349Y888268D01*
X124000Y888578D01*
D02*
G37*
G36*
X571848Y874000D02*
X568952D01*
X566154Y873250D01*
X563646Y871802D01*
X561598Y869754D01*
X560150Y867246D01*
X559400Y864448D01*
Y861552D01*
X560150Y858754D01*
X561598Y856246D01*
X563646Y854198D01*
X566154Y852750D01*
X568952Y852000D01*
X571848D01*
X574646Y852750D01*
X577154Y854198D01*
X579202Y856246D01*
X580650Y858754D01*
X581400Y861552D01*
Y864448D01*
X580650Y867246D01*
X579202Y869754D01*
X577154Y871802D01*
X574646Y873250D01*
X571848Y874000D01*
D02*
G37*
G36*
X521048D02*
X518152D01*
X515354Y873250D01*
X512846Y871802D01*
X510798Y869754D01*
X509350Y867246D01*
X508600Y864448D01*
Y861552D01*
X509350Y858754D01*
X510798Y856246D01*
X512846Y854198D01*
X515354Y852750D01*
X518152Y852000D01*
X521048D01*
X523846Y852750D01*
X526354Y854198D01*
X528402Y856246D01*
X529850Y858754D01*
X530600Y861552D01*
Y864448D01*
X529850Y867246D01*
X528402Y869754D01*
X526354Y871802D01*
X523846Y873250D01*
X521048Y874000D01*
D02*
G37*
G36*
X495648D02*
X492752D01*
X489954Y873250D01*
X487446Y871802D01*
X485398Y869754D01*
X483950Y867246D01*
X483200Y864448D01*
Y861552D01*
X483950Y858754D01*
X485398Y856246D01*
X487446Y854198D01*
X489954Y852750D01*
X492752Y852000D01*
X495648D01*
X498446Y852750D01*
X500954Y854198D01*
X503002Y856246D01*
X504450Y858754D01*
X505200Y861552D01*
Y864448D01*
X504450Y867246D01*
X503002Y869754D01*
X500954Y871802D01*
X498446Y873250D01*
X495648Y874000D01*
D02*
G37*
G36*
X470248D02*
X467352D01*
X464554Y873250D01*
X462046Y871802D01*
X459998Y869754D01*
X458550Y867246D01*
X457800Y864448D01*
Y861552D01*
X458550Y858754D01*
X459998Y856246D01*
X462046Y854198D01*
X464554Y852750D01*
X467352Y852000D01*
X470248D01*
X473046Y852750D01*
X475554Y854198D01*
X477602Y856246D01*
X479050Y858754D01*
X479800Y861552D01*
Y864448D01*
X479050Y867246D01*
X477602Y869754D01*
X475554Y871802D01*
X473046Y873250D01*
X470248Y874000D01*
D02*
G37*
G36*
X298981Y859987D02*
X296992D01*
X295154Y859225D01*
X293748Y857819D01*
X292987Y855981D01*
Y853992D01*
X293748Y852154D01*
X294941Y850961D01*
Y847267D01*
X289177Y841502D01*
X288878Y841056D01*
X274000D01*
X272869Y840907D01*
X271599Y841781D01*
Y842279D01*
X270838Y844117D01*
X269431Y845523D01*
X267593Y846284D01*
X265604D01*
X263767Y845523D01*
X262360Y844117D01*
X261599Y842279D01*
Y840290D01*
X262360Y838452D01*
X262901Y837911D01*
Y792540D01*
X262901Y792540D01*
X263134Y791369D01*
X263797Y790377D01*
X267758Y786416D01*
X267667Y786197D01*
X267444Y784500D01*
Y775500D01*
X267667Y773803D01*
X268322Y772222D01*
X269364Y770864D01*
X270722Y769822D01*
X272303Y769167D01*
X274000Y768944D01*
X290000D01*
X291697Y769167D01*
X293278Y769822D01*
X294636Y770864D01*
X295678Y772222D01*
X296333Y773803D01*
X296556Y775500D01*
Y784500D01*
X296333Y786197D01*
X295678Y787778D01*
X294636Y789136D01*
X293278Y790178D01*
X291697Y790833D01*
X290000Y791056D01*
X274000D01*
X272303Y790833D01*
X272084Y790742D01*
X269445Y793381D01*
X269538Y794130D01*
X270300Y794576D01*
X270858Y794766D01*
X272303Y794167D01*
X274000Y793944D01*
X281000D01*
Y805000D01*
Y816056D01*
X274000D01*
X272303Y815833D01*
X270722Y815178D01*
X270289Y814845D01*
X269019Y815472D01*
Y819528D01*
X270289Y820155D01*
X270722Y819822D01*
X272303Y819167D01*
X274000Y818944D01*
X290000D01*
X291697Y819167D01*
X293278Y819822D01*
X294636Y820864D01*
X295678Y822222D01*
X296333Y823803D01*
X296556Y825500D01*
Y834500D01*
X296333Y836197D01*
X295678Y837778D01*
X294994Y838669D01*
X300163Y843837D01*
X300163Y843837D01*
X300826Y844829D01*
X301059Y846000D01*
Y850988D01*
X302225Y852154D01*
X302987Y853992D01*
Y855981D01*
X302225Y857819D01*
X300819Y859225D01*
X298981Y859987D01*
D02*
G37*
G36*
X112921Y837000D02*
X111078D01*
X109298Y836523D01*
X107702Y835601D01*
X106399Y834298D01*
X105477Y832702D01*
X105000Y830922D01*
Y829078D01*
X105477Y827298D01*
X106399Y825702D01*
X107702Y824399D01*
X109298Y823477D01*
X111078Y823000D01*
X112921D01*
X114702Y823477D01*
X116298Y824399D01*
X117601Y825702D01*
X118523Y827298D01*
X119000Y829078D01*
Y830922D01*
X118523Y832702D01*
X117601Y834298D01*
X116298Y835601D01*
X114702Y836523D01*
X112921Y837000D01*
D02*
G37*
G36*
X40000Y841056D02*
X24000D01*
X22303Y840833D01*
X20722Y840178D01*
X19364Y839136D01*
X18322Y837778D01*
X17667Y836197D01*
X17444Y834500D01*
Y825500D01*
X17667Y823803D01*
X18322Y822222D01*
X19364Y820864D01*
X20722Y819822D01*
X22303Y819167D01*
X24000Y818944D01*
X40000D01*
X41697Y819167D01*
X43278Y819822D01*
X44636Y820864D01*
X45678Y822222D01*
X46333Y823803D01*
X46556Y825500D01*
Y834500D01*
X46333Y836197D01*
X45678Y837778D01*
X44636Y839136D01*
X43278Y840178D01*
X41697Y840833D01*
X40000Y841056D01*
D02*
G37*
G36*
X363053Y833000D02*
X360947D01*
X358912Y832455D01*
X357088Y831402D01*
X355598Y829912D01*
X354545Y828088D01*
X354000Y826053D01*
Y823947D01*
X354545Y821912D01*
X355598Y820088D01*
X357088Y818598D01*
X358912Y817545D01*
X360947Y817000D01*
X363053D01*
X365088Y817545D01*
X366912Y818598D01*
X368401Y820088D01*
X369455Y821912D01*
X370000Y823947D01*
Y826053D01*
X369455Y828088D01*
X368401Y829912D01*
X366912Y831402D01*
X365088Y832455D01*
X363053Y833000D01*
D02*
G37*
G36*
X180995Y863460D02*
X179005D01*
X177168Y862699D01*
X175761Y861292D01*
X175000Y859455D01*
Y857465D01*
X175761Y855628D01*
X177168Y854221D01*
X179005Y853460D01*
X180674D01*
X181941Y852193D01*
Y840683D01*
X180722Y840178D01*
X179364Y839136D01*
X178322Y837778D01*
X177667Y836197D01*
X177444Y834500D01*
Y825500D01*
X177667Y823803D01*
X178322Y822222D01*
X179364Y820864D01*
X180722Y819822D01*
X182303Y819167D01*
X184000Y818944D01*
X200000D01*
X201697Y819167D01*
X203278Y819822D01*
X204336Y820634D01*
X205606Y820198D01*
Y814802D01*
X204336Y814366D01*
X203278Y815178D01*
X201697Y815833D01*
X200000Y816056D01*
X193000D01*
Y805000D01*
Y793944D01*
X200000D01*
X201697Y794167D01*
X203278Y794822D01*
X203700Y795146D01*
X205077Y794602D01*
X205176Y794002D01*
X201916Y790742D01*
X201697Y790833D01*
X200000Y791056D01*
X184000D01*
X182303Y790833D01*
X180722Y790178D01*
X179364Y789136D01*
X178322Y787778D01*
X177667Y786197D01*
X177444Y784500D01*
Y775500D01*
X177667Y773803D01*
X178322Y772222D01*
X179364Y770864D01*
X180722Y769822D01*
X182303Y769167D01*
X184000Y768944D01*
X200000D01*
X201697Y769167D01*
X203278Y769822D01*
X204636Y770864D01*
X205678Y772222D01*
X206333Y773803D01*
X206556Y775500D01*
Y784500D01*
X206333Y786197D01*
X206242Y786416D01*
X210827Y791002D01*
X210827Y791002D01*
X211490Y791994D01*
X211723Y793165D01*
X211723Y793165D01*
Y830420D01*
X212853Y830888D01*
X214259Y832294D01*
X215020Y834132D01*
Y836121D01*
X214259Y837959D01*
X212853Y839365D01*
X211015Y840126D01*
X209026D01*
X207188Y839365D01*
X206550Y838727D01*
X204872Y838828D01*
X204636Y839136D01*
X203278Y840178D01*
X201697Y840833D01*
X200000Y841056D01*
X188059D01*
Y853460D01*
X187826Y854631D01*
X187163Y855623D01*
X185000Y857786D01*
Y859455D01*
X184239Y861292D01*
X182832Y862699D01*
X180995Y863460D01*
D02*
G37*
G36*
X290000Y816056D02*
X283000D01*
Y806000D01*
X296556D01*
Y809500D01*
X296333Y811197D01*
X295678Y812778D01*
X294636Y814136D01*
X293278Y815178D01*
X291697Y815833D01*
X290000Y816056D01*
D02*
G37*
G36*
X191000D02*
X184000D01*
X182303Y815833D01*
X180722Y815178D01*
X179364Y814136D01*
X178322Y812778D01*
X177667Y811197D01*
X177444Y809500D01*
Y806000D01*
X191000D01*
Y816056D01*
D02*
G37*
G36*
X296556Y804000D02*
X283000D01*
Y793944D01*
X290000D01*
X291697Y794167D01*
X293278Y794822D01*
X294636Y795864D01*
X295678Y797222D01*
X296333Y798803D01*
X296556Y800500D01*
Y804000D01*
D02*
G37*
G36*
X191000D02*
X177444D01*
Y800500D01*
X177667Y798803D01*
X178322Y797222D01*
X179364Y795864D01*
X180722Y794822D01*
X182303Y794167D01*
X184000Y793944D01*
X191000D01*
Y804000D01*
D02*
G37*
G36*
X113053Y793000D02*
X110947D01*
X108912Y792455D01*
X107088Y791402D01*
X105598Y789912D01*
X104545Y788088D01*
X104000Y786053D01*
Y783947D01*
X104545Y781912D01*
X105598Y780088D01*
X107088Y778598D01*
X108912Y777545D01*
X110947Y777000D01*
X113053D01*
X115088Y777545D01*
X116912Y778598D01*
X118401Y780088D01*
X119455Y781912D01*
X120000Y783947D01*
Y786053D01*
X119455Y788088D01*
X118401Y789912D01*
X116912Y791402D01*
X115088Y792455D01*
X113053Y793000D01*
D02*
G37*
G36*
X559317Y835000D02*
X556684D01*
X554140Y834318D01*
X551860Y833002D01*
X549998Y831140D01*
X548681Y828860D01*
X548000Y826317D01*
Y823683D01*
X548681Y821140D01*
X549998Y818860D01*
X551860Y816998D01*
X554140Y815682D01*
X554230Y815657D01*
Y814343D01*
X554140Y814318D01*
X551860Y813002D01*
X549998Y811140D01*
X548681Y808860D01*
X548000Y806317D01*
Y803683D01*
X548681Y801140D01*
X549998Y798860D01*
X551860Y796998D01*
X554140Y795682D01*
X554230Y795657D01*
Y794343D01*
X554140Y794318D01*
X551860Y793002D01*
X549998Y791140D01*
X548681Y788860D01*
X548000Y786317D01*
Y783683D01*
X548681Y781140D01*
X549998Y778860D01*
X551860Y776998D01*
X554140Y775682D01*
X556684Y775000D01*
X559317D01*
X561860Y775682D01*
X564140Y776998D01*
X566002Y778860D01*
X567318Y781140D01*
X568000Y783683D01*
Y786317D01*
X567318Y788860D01*
X566002Y791140D01*
X564140Y793002D01*
X561860Y794318D01*
X561770Y794343D01*
Y795657D01*
X561860Y795682D01*
X564140Y796998D01*
X566002Y798860D01*
X567318Y801140D01*
X568000Y803683D01*
Y806317D01*
X567318Y808860D01*
X566002Y811140D01*
X564140Y813002D01*
X561860Y814318D01*
X561770Y814343D01*
Y815657D01*
X561860Y815682D01*
X564140Y816998D01*
X566002Y818860D01*
X567318Y821140D01*
X568000Y823683D01*
Y826317D01*
X567318Y828860D01*
X566002Y831140D01*
X564140Y833002D01*
X561860Y834318D01*
X559317Y835000D01*
D02*
G37*
G36*
X509317D02*
X506684D01*
X504140Y834318D01*
X501860Y833002D01*
X499998Y831140D01*
X498681Y828860D01*
X498000Y826317D01*
Y823683D01*
X498681Y821140D01*
X499998Y818860D01*
X501860Y816998D01*
X504140Y815682D01*
X504230Y815657D01*
Y814343D01*
X504140Y814318D01*
X501860Y813002D01*
X499998Y811140D01*
X498681Y808860D01*
X498000Y806317D01*
Y803683D01*
X498681Y801140D01*
X499998Y798860D01*
X501860Y796998D01*
X504140Y795682D01*
X504230Y795657D01*
Y794343D01*
X504140Y794318D01*
X501860Y793002D01*
X499998Y791140D01*
X498681Y788860D01*
X498000Y786317D01*
Y783683D01*
X498681Y781140D01*
X499998Y778860D01*
X501860Y776998D01*
X504140Y775682D01*
X506684Y775000D01*
X509317D01*
X511860Y775682D01*
X514140Y776998D01*
X516002Y778860D01*
X517318Y781140D01*
X518000Y783683D01*
Y786317D01*
X517318Y788860D01*
X516002Y791140D01*
X514140Y793002D01*
X511860Y794318D01*
X511770Y794343D01*
Y795657D01*
X511860Y795682D01*
X514140Y796998D01*
X516002Y798860D01*
X517318Y801140D01*
X518000Y803683D01*
Y806317D01*
X517318Y808860D01*
X516002Y811140D01*
X514140Y813002D01*
X511860Y814318D01*
X511770Y814343D01*
Y815657D01*
X511860Y815682D01*
X514140Y816998D01*
X516002Y818860D01*
X517318Y821140D01*
X518000Y823683D01*
Y826317D01*
X517318Y828860D01*
X516002Y831140D01*
X514140Y833002D01*
X511860Y834318D01*
X509317Y835000D01*
D02*
G37*
G36*
X362921Y787000D02*
X361078D01*
X359298Y786523D01*
X357702Y785601D01*
X356399Y784298D01*
X355477Y782702D01*
X355000Y780922D01*
Y779078D01*
X355477Y777298D01*
X356399Y775702D01*
X357702Y774399D01*
X359298Y773477D01*
X361078Y773000D01*
X362921D01*
X364702Y773477D01*
X366298Y774399D01*
X367601Y775702D01*
X368523Y777298D01*
X369000Y779078D01*
Y780922D01*
X368523Y782702D01*
X367601Y784298D01*
X366298Y785601D01*
X364702Y786523D01*
X362921Y787000D01*
D02*
G37*
G36*
X40000Y791056D02*
X24000D01*
X22303Y790833D01*
X20722Y790178D01*
X19364Y789136D01*
X18322Y787778D01*
X17667Y786197D01*
X17444Y784500D01*
Y775500D01*
X17667Y773803D01*
X18322Y772222D01*
X19364Y770864D01*
X20722Y769822D01*
X22303Y769167D01*
X24000Y768944D01*
X40000D01*
X41697Y769167D01*
X43278Y769822D01*
X44636Y770864D01*
X45678Y772222D01*
X46333Y773803D01*
X46556Y775500D01*
Y784500D01*
X46333Y786197D01*
X45678Y787778D01*
X44636Y789136D01*
X43278Y790178D01*
X41697Y790833D01*
X40000Y791056D01*
D02*
G37*
G36*
X374000Y753578D02*
X350000D01*
X347650Y753268D01*
X345461Y752362D01*
X343581Y750919D01*
X342138Y749039D01*
X341232Y746850D01*
X340922Y744500D01*
Y730500D01*
X341232Y728150D01*
X342138Y725961D01*
X343581Y724081D01*
X345461Y722638D01*
X347650Y721732D01*
X350000Y721422D01*
X374000D01*
X376349Y721732D01*
X378539Y722638D01*
X380419Y724081D01*
X381861Y725961D01*
X382768Y728150D01*
X383078Y730500D01*
Y744500D01*
X382768Y746850D01*
X381861Y749039D01*
X380419Y750919D01*
X378539Y752362D01*
X376349Y753268D01*
X374000Y753578D01*
D02*
G37*
G36*
X124000D02*
X100000D01*
X97650Y753268D01*
X95461Y752362D01*
X93581Y750919D01*
X92139Y749039D01*
X91232Y746850D01*
X90922Y744500D01*
Y730500D01*
X91232Y728150D01*
X92139Y725961D01*
X93581Y724081D01*
X95461Y722638D01*
X97650Y721732D01*
X100000Y721422D01*
X124000D01*
X126349Y721732D01*
X128539Y722638D01*
X130419Y724081D01*
X131861Y725961D01*
X132768Y728150D01*
X133078Y730500D01*
Y744500D01*
X132768Y746850D01*
X131861Y749039D01*
X130419Y750919D01*
X128539Y752362D01*
X126349Y753268D01*
X124000Y753578D01*
D02*
G37*
G36*
X312995Y993000D02*
X311005D01*
X309168Y992239D01*
X307761Y990832D01*
X307000Y988995D01*
Y987326D01*
X233837Y914163D01*
X233174Y913170D01*
X232941Y912000D01*
X232941Y912000D01*
Y737853D01*
X232941Y737853D01*
X233174Y736683D01*
X233837Y735690D01*
X252839Y716688D01*
Y716163D01*
X253600Y714325D01*
X255007Y712918D01*
X255216Y711868D01*
X254896Y711548D01*
X254512Y710619D01*
X253755Y710114D01*
X253755Y710114D01*
X249691Y706050D01*
X249028Y705058D01*
X248796Y703887D01*
X248796Y703887D01*
Y691233D01*
X247526Y690774D01*
X245806Y691486D01*
X243817D01*
X241979Y690725D01*
X240573Y689318D01*
X239811Y687481D01*
Y686894D01*
X238240Y685323D01*
X236862Y685741D01*
X236826Y685923D01*
X236163Y686916D01*
X236163Y686916D01*
X142834Y780245D01*
X143320Y780731D01*
X144082Y782569D01*
Y784558D01*
X143320Y786396D01*
X141914Y787802D01*
X140076Y788564D01*
X138087D01*
X137829Y788456D01*
X136559Y789305D01*
Y790038D01*
X135797Y791876D01*
X134391Y793282D01*
X132553Y794044D01*
X130564D01*
X128726Y793282D01*
X127320Y791876D01*
X126559Y790038D01*
Y788049D01*
X127320Y786211D01*
X127993Y785537D01*
Y782044D01*
X127993Y782044D01*
X128226Y780873D01*
X128889Y779881D01*
X201874Y706896D01*
X201388Y705723D01*
X143972D01*
X142792Y706903D01*
X142454Y707043D01*
X142049Y708580D01*
X142454Y709100D01*
X142455D01*
X144292Y709861D01*
X145699Y711267D01*
X146460Y713105D01*
Y715094D01*
X145699Y716932D01*
X144292Y718338D01*
X142455Y719100D01*
X140465D01*
X138628Y718338D01*
X137221Y716932D01*
X136460Y715094D01*
Y713105D01*
X136567Y712846D01*
X131257Y707536D01*
X130594Y706543D01*
X130361Y705373D01*
X130361Y705373D01*
Y699955D01*
X130361Y699955D01*
X130594Y698784D01*
X131257Y697792D01*
X135415Y693635D01*
X135415Y693634D01*
X136407Y692971D01*
X137578Y692739D01*
X203936D01*
X218834Y677841D01*
Y647869D01*
X218834Y647869D01*
X219067Y646699D01*
X219730Y645706D01*
X223941Y641495D01*
Y442767D01*
X201916Y420742D01*
X201697Y420833D01*
X200000Y421056D01*
X184000D01*
X182303Y420833D01*
X180722Y420178D01*
X179364Y419136D01*
X178322Y417778D01*
X177667Y416197D01*
X177444Y414500D01*
Y405500D01*
X177667Y403803D01*
X178322Y402222D01*
X179364Y400864D01*
X180722Y399822D01*
X182303Y399167D01*
X184000Y398944D01*
X200000D01*
X201697Y399167D01*
X203278Y399822D01*
X204636Y400864D01*
X205678Y402222D01*
X206333Y403803D01*
X206556Y405500D01*
Y414500D01*
X206333Y416197D01*
X206242Y416416D01*
X227223Y437397D01*
X228396Y436911D01*
Y392722D01*
X204799Y369125D01*
X204636Y369136D01*
X203278Y370178D01*
X201697Y370833D01*
X200000Y371056D01*
X184000D01*
X182303Y370833D01*
X180722Y370178D01*
X179364Y369136D01*
X178322Y367778D01*
X177667Y366197D01*
X177444Y364500D01*
Y355500D01*
X177667Y353803D01*
X178322Y352222D01*
X179364Y350864D01*
X180722Y349822D01*
X182303Y349167D01*
X184000Y348944D01*
X200000D01*
X201697Y349167D01*
X203278Y349822D01*
X204636Y350864D01*
X205678Y352222D01*
X206333Y353803D01*
X206556Y355500D01*
Y362694D01*
X206724Y362727D01*
X207716Y363390D01*
X231223Y386897D01*
X232396Y386411D01*
Y244722D01*
X199176Y211502D01*
X198878Y211056D01*
X184000D01*
X182303Y210833D01*
X180722Y210178D01*
X179364Y209136D01*
X178322Y207778D01*
X177667Y206197D01*
X177444Y204500D01*
Y195500D01*
X177667Y193803D01*
X178322Y192222D01*
X179364Y190864D01*
X180722Y189822D01*
X182303Y189167D01*
X184000Y188944D01*
X200000D01*
X201697Y189167D01*
X203278Y189822D01*
X204636Y190864D01*
X205678Y192222D01*
X206333Y193803D01*
X206556Y195500D01*
Y204500D01*
X206333Y206197D01*
X205678Y207778D01*
X204994Y208669D01*
X235223Y238897D01*
X236396Y238411D01*
Y187722D01*
X206799Y158125D01*
X205234Y158356D01*
X204636Y159136D01*
X203278Y160178D01*
X201697Y160833D01*
X200000Y161056D01*
X184000D01*
X182303Y160833D01*
X180722Y160178D01*
X179364Y159136D01*
X178322Y157778D01*
X177667Y156197D01*
X177444Y154500D01*
Y145500D01*
X177667Y143803D01*
X178322Y142222D01*
X179364Y140864D01*
X180722Y139822D01*
X182303Y139167D01*
X184000Y138944D01*
X200000D01*
X201697Y139167D01*
X203278Y139822D01*
X204636Y140864D01*
X205678Y142222D01*
X206333Y143803D01*
X206556Y145500D01*
Y150315D01*
X207499Y150502D01*
X208491Y151166D01*
X240076Y182751D01*
X241648Y182526D01*
X267758Y156416D01*
X267667Y156197D01*
X267444Y154500D01*
Y145500D01*
X267667Y143803D01*
X268322Y142222D01*
X269364Y140864D01*
X270722Y139822D01*
X272303Y139167D01*
X274000Y138944D01*
X290000D01*
X291697Y139167D01*
X293278Y139822D01*
X294636Y140864D01*
X295678Y142222D01*
X296333Y143803D01*
X296556Y145500D01*
Y154500D01*
X296333Y156197D01*
X295678Y157778D01*
X294636Y159136D01*
X293278Y160178D01*
X291697Y160833D01*
X290000Y161056D01*
X274000D01*
X272303Y160833D01*
X272084Y160742D01*
X246514Y186312D01*
Y236501D01*
X247687Y236987D01*
X272668Y212006D01*
X272121Y210757D01*
X270722Y210178D01*
X269364Y209136D01*
X268322Y207778D01*
X267667Y206197D01*
X267444Y204500D01*
Y195500D01*
X267667Y193803D01*
X268322Y192222D01*
X269364Y190864D01*
X270722Y189822D01*
X272303Y189167D01*
X274000Y188944D01*
X290000D01*
X291697Y189167D01*
X293278Y189822D01*
X294636Y190864D01*
X295678Y192222D01*
X296333Y193803D01*
X296556Y195500D01*
Y204500D01*
X296333Y206197D01*
X295678Y207778D01*
X294636Y209136D01*
X293278Y210178D01*
X291697Y210833D01*
X290000Y211056D01*
X281185D01*
X280998Y211999D01*
X280334Y212991D01*
X280334Y212991D01*
X250629Y242697D01*
Y385386D01*
X251802Y385872D01*
X269006Y368669D01*
X268322Y367778D01*
X267667Y366197D01*
X267444Y364500D01*
Y355500D01*
X267667Y353803D01*
X268322Y352222D01*
X269364Y350864D01*
X270722Y349822D01*
X272303Y349167D01*
X274000Y348944D01*
X290000D01*
X291697Y349167D01*
X293278Y349822D01*
X294636Y350864D01*
X295678Y352222D01*
X296333Y353803D01*
X296556Y355500D01*
Y364500D01*
X296333Y366197D01*
X295678Y367778D01*
X294636Y369136D01*
X293278Y370178D01*
X291697Y370833D01*
X290000Y371056D01*
X275122D01*
X274823Y371502D01*
X274823Y371502D01*
X273612Y372714D01*
X273872Y373538D01*
X274178Y373944D01*
X281000D01*
Y384000D01*
X267444D01*
Y380678D01*
X267038Y380372D01*
X266214Y380112D01*
X254913Y391413D01*
Y438102D01*
X256086Y438588D01*
X272668Y422006D01*
X272121Y420757D01*
X270722Y420178D01*
X269364Y419136D01*
X268322Y417778D01*
X267667Y416197D01*
X267444Y414500D01*
Y405500D01*
X267667Y403803D01*
X268322Y402222D01*
X269364Y400864D01*
X270722Y399822D01*
X272303Y399167D01*
X274000Y398944D01*
X290000D01*
X291697Y399167D01*
X293278Y399822D01*
X294636Y400864D01*
X295678Y402222D01*
X296333Y403803D01*
X296556Y405500D01*
Y414500D01*
X296333Y416197D01*
X295678Y417778D01*
X294636Y419136D01*
X293278Y420178D01*
X291697Y420833D01*
X290000Y421056D01*
X280839D01*
X280059Y422000D01*
X279826Y423171D01*
X279163Y424163D01*
X279163Y424163D01*
X258913Y444413D01*
Y583602D01*
X260086Y584088D01*
X267758Y576416D01*
X267667Y576197D01*
X267444Y574500D01*
Y565500D01*
X267667Y563803D01*
X268322Y562222D01*
X269364Y560864D01*
X270722Y559822D01*
X272303Y559167D01*
X274000Y558944D01*
X290000D01*
X291697Y559167D01*
X293278Y559822D01*
X294636Y560864D01*
X295678Y562222D01*
X296333Y563803D01*
X296556Y565500D01*
Y574500D01*
X296333Y576197D01*
X295678Y577778D01*
X294636Y579136D01*
X293278Y580178D01*
X291697Y580833D01*
X290000Y581056D01*
X274000D01*
X272303Y580833D01*
X272084Y580742D01*
X262913Y589913D01*
Y690917D01*
X283163Y711167D01*
X283163Y711167D01*
X283826Y712159D01*
X284059Y713330D01*
X284059Y713330D01*
Y742733D01*
X298902Y757576D01*
X300072Y756951D01*
X299941Y756292D01*
X299941Y756291D01*
Y720516D01*
X282197Y702772D01*
X281535Y701780D01*
X281302Y700609D01*
X281302Y700609D01*
Y631056D01*
X274000D01*
X272303Y630833D01*
X270722Y630178D01*
X269364Y629136D01*
X268322Y627778D01*
X267667Y626197D01*
X267444Y624500D01*
Y615500D01*
X267667Y613803D01*
X268322Y612222D01*
X269364Y610864D01*
X270722Y609822D01*
X272303Y609167D01*
X274000Y608944D01*
X290000D01*
X291697Y609167D01*
X293278Y609822D01*
X294636Y610864D01*
X295678Y612222D01*
X296333Y613803D01*
X296556Y615500D01*
Y624500D01*
X296333Y626197D01*
X295678Y627778D01*
X294636Y629136D01*
X293278Y630178D01*
X291697Y630833D01*
X290000Y631056D01*
X287419D01*
Y683347D01*
X288592Y683833D01*
X289128Y683297D01*
X290121Y682634D01*
X291291Y682401D01*
X291291Y682401D01*
X303460D01*
X303460Y682401D01*
X304631Y682634D01*
X305623Y683297D01*
X333237Y710911D01*
X335083D01*
X336921Y711673D01*
X338327Y713079D01*
X339089Y714917D01*
Y716906D01*
X338327Y718744D01*
X336921Y720150D01*
X335083Y720911D01*
X334175D01*
X333735Y721571D01*
Y723560D01*
X332974Y725397D01*
X331567Y726804D01*
X329729Y727565D01*
X327740D01*
X325903Y726804D01*
X324496Y725397D01*
X323735Y723560D01*
Y721710D01*
X299407Y697381D01*
X298632Y697541D01*
X297952Y698890D01*
X298000Y699005D01*
Y700994D01*
X297239Y702832D01*
X295832Y704239D01*
X294616Y704743D01*
X294250Y706173D01*
X305163Y717086D01*
X305163Y717086D01*
X305826Y718079D01*
X306059Y719249D01*
Y755024D01*
X334398Y783363D01*
X334715Y783839D01*
X335832Y784301D01*
X337239Y785708D01*
X338000Y787545D01*
Y789535D01*
X337239Y791372D01*
X335832Y792779D01*
X333995Y793540D01*
X332005D01*
X330168Y792779D01*
X328761Y791372D01*
X328000Y789535D01*
Y787545D01*
X328565Y786182D01*
X324173Y781790D01*
X322877Y782290D01*
X322239Y783832D01*
X320832Y785239D01*
X318995Y786000D01*
X317005D01*
X315168Y785239D01*
X313761Y783832D01*
X313000Y781994D01*
Y780326D01*
X278837Y746163D01*
X278174Y745171D01*
X277941Y744000D01*
X277941Y744000D01*
Y714597D01*
X264787Y701442D01*
X263356Y701808D01*
X262852Y703024D01*
X261873Y704003D01*
X261968Y704477D01*
X263374Y705884D01*
X264135Y707721D01*
Y709711D01*
X263374Y711548D01*
X261968Y712955D01*
X261759Y714005D01*
X262078Y714325D01*
X262839Y716163D01*
Y718152D01*
X262078Y719989D01*
X261626Y720442D01*
X261874Y721687D01*
X262090Y721777D01*
X263497Y723184D01*
X264258Y725021D01*
Y727010D01*
X263497Y728848D01*
X262090Y730255D01*
X260253Y731016D01*
X258264D01*
X258027Y730918D01*
X243059Y745885D01*
Y901733D01*
X311326Y970000D01*
X312995D01*
X314832Y970761D01*
X316239Y972168D01*
X317000Y974005D01*
Y975995D01*
X316239Y977832D01*
X314832Y979239D01*
X312995Y980000D01*
X311005D01*
X309497Y979375D01*
X308778Y980452D01*
X311326Y983000D01*
X312995D01*
X314832Y983761D01*
X316239Y985168D01*
X317000Y987005D01*
Y988995D01*
X316239Y990832D01*
X314832Y992239D01*
X312995Y993000D01*
D02*
G37*
G36*
X374000Y678578D02*
X350000D01*
X347650Y678268D01*
X345461Y677362D01*
X343581Y675919D01*
X342138Y674039D01*
X341232Y671850D01*
X340922Y669500D01*
Y655500D01*
X341232Y653150D01*
X342138Y650961D01*
X343581Y649081D01*
X345461Y647638D01*
X347650Y646732D01*
X350000Y646422D01*
X374000D01*
X376349Y646732D01*
X378539Y647638D01*
X380419Y649081D01*
X381861Y650961D01*
X382768Y653150D01*
X383078Y655500D01*
Y669500D01*
X382768Y671850D01*
X381861Y674039D01*
X380419Y675919D01*
X378539Y677362D01*
X376349Y678268D01*
X374000Y678578D01*
D02*
G37*
G36*
X124000D02*
X100000D01*
X97650Y678268D01*
X95461Y677362D01*
X93581Y675919D01*
X92139Y674039D01*
X91232Y671850D01*
X90922Y669500D01*
Y655500D01*
X91232Y653150D01*
X92139Y650961D01*
X93581Y649081D01*
X95461Y647638D01*
X97650Y646732D01*
X100000Y646422D01*
X124000D01*
X126349Y646732D01*
X128539Y647638D01*
X130419Y649081D01*
X131861Y650961D01*
X132768Y653150D01*
X133078Y655500D01*
Y669500D01*
X132768Y671850D01*
X131861Y674039D01*
X130419Y675919D01*
X128539Y677362D01*
X126349Y678268D01*
X124000Y678578D01*
D02*
G37*
G36*
X211435Y670500D02*
X209445D01*
X207608Y669739D01*
X206201Y668332D01*
X205440Y666495D01*
Y664505D01*
X206201Y662668D01*
X207355Y661514D01*
Y627046D01*
X206085Y626794D01*
X205678Y627778D01*
X204636Y629136D01*
X203278Y630178D01*
X201697Y630833D01*
X200000Y631056D01*
X185270D01*
X181059Y635267D01*
Y652988D01*
X182239Y654168D01*
X183000Y656005D01*
Y657995D01*
X182239Y659832D01*
X180832Y661239D01*
X178995Y662000D01*
X177005D01*
X175168Y661239D01*
X173761Y659832D01*
X173000Y657995D01*
Y656005D01*
X173761Y654168D01*
X174941Y652988D01*
Y634000D01*
X174941Y634000D01*
X175174Y632829D01*
X175837Y631837D01*
X179006Y628669D01*
X178322Y627778D01*
X177667Y626197D01*
X177444Y624500D01*
Y615500D01*
X177667Y613803D01*
X178322Y612222D01*
X179364Y610864D01*
X180722Y609822D01*
X182303Y609167D01*
X184000Y608944D01*
X200000D01*
X201697Y609167D01*
X203278Y609822D01*
X204636Y610864D01*
X205678Y612222D01*
X206085Y613206D01*
X207355Y612954D01*
Y602046D01*
X206085Y601794D01*
X205678Y602778D01*
X204636Y604136D01*
X203278Y605178D01*
X201697Y605833D01*
X200000Y606056D01*
X193000D01*
Y595000D01*
Y583944D01*
X200000D01*
X201697Y584167D01*
X203278Y584822D01*
X204636Y585864D01*
X205678Y587222D01*
X206085Y588206D01*
X207355Y587954D01*
Y586181D01*
X201916Y580742D01*
X201697Y580833D01*
X200000Y581056D01*
X184000D01*
X182303Y580833D01*
X180722Y580178D01*
X179364Y579136D01*
X178322Y577778D01*
X177667Y576197D01*
X177444Y574500D01*
Y565500D01*
X177667Y563803D01*
X178322Y562222D01*
X179364Y560864D01*
X180722Y559822D01*
X182303Y559167D01*
X184000Y558944D01*
X200000D01*
X201697Y559167D01*
X203278Y559822D01*
X204636Y560864D01*
X205678Y562222D01*
X206333Y563803D01*
X206556Y565500D01*
Y574500D01*
X206333Y576197D01*
X206242Y576416D01*
X212577Y582751D01*
X213240Y583744D01*
X213473Y584914D01*
X213473Y584914D01*
Y661462D01*
X214679Y662668D01*
X215440Y664505D01*
Y666495D01*
X214679Y668332D01*
X213272Y669739D01*
X211435Y670500D01*
D02*
G37*
G36*
X558750Y640103D02*
X552250D01*
X550202Y639695D01*
X548465Y638535D01*
X547305Y636798D01*
X546897Y634750D01*
Y625250D01*
X547305Y623202D01*
X548465Y621465D01*
X550202Y620305D01*
X552250Y619897D01*
X558750D01*
X560798Y620305D01*
X562535Y621465D01*
X563695Y623202D01*
X564103Y625250D01*
Y634750D01*
X563695Y636798D01*
X562535Y638535D01*
X560798Y639695D01*
X558750Y640103D01*
D02*
G37*
G36*
X112921Y627000D02*
X111078D01*
X109298Y626523D01*
X107702Y625601D01*
X106399Y624298D01*
X105477Y622702D01*
X105000Y620922D01*
Y619078D01*
X105477Y617298D01*
X106399Y615702D01*
X107702Y614399D01*
X109298Y613477D01*
X111078Y613000D01*
X112921D01*
X114702Y613477D01*
X116298Y614399D01*
X117601Y615702D01*
X118523Y617298D01*
X119000Y619078D01*
Y620922D01*
X118523Y622702D01*
X117601Y624298D01*
X116298Y625601D01*
X114702Y626523D01*
X112921Y627000D01*
D02*
G37*
G36*
X450000Y631056D02*
X434000D01*
X432303Y630833D01*
X430722Y630178D01*
X429364Y629136D01*
X428322Y627778D01*
X427667Y626197D01*
X427444Y624500D01*
Y615500D01*
X427667Y613803D01*
X428322Y612222D01*
X429364Y610864D01*
X430722Y609822D01*
X432303Y609167D01*
X434000Y608944D01*
X450000D01*
X451697Y609167D01*
X453278Y609822D01*
X454636Y610864D01*
X455678Y612222D01*
X456333Y613803D01*
X456556Y615500D01*
Y624500D01*
X456333Y626197D01*
X455678Y627778D01*
X454636Y629136D01*
X453278Y630178D01*
X451697Y630833D01*
X450000Y631056D01*
D02*
G37*
G36*
X40000D02*
X24000D01*
X22303Y630833D01*
X20722Y630178D01*
X19364Y629136D01*
X18322Y627778D01*
X17667Y626197D01*
X17444Y624500D01*
Y615500D01*
X17667Y613803D01*
X18322Y612222D01*
X19364Y610864D01*
X20722Y609822D01*
X22303Y609167D01*
X24000Y608944D01*
X40000D01*
X41697Y609167D01*
X43278Y609822D01*
X44636Y610864D01*
X45678Y612222D01*
X46333Y613803D01*
X46556Y615500D01*
Y624500D01*
X46333Y626197D01*
X45678Y627778D01*
X44636Y629136D01*
X43278Y630178D01*
X41697Y630833D01*
X40000Y631056D01*
D02*
G37*
G36*
X363053Y623000D02*
X360947D01*
X358912Y622455D01*
X357088Y621402D01*
X355598Y619912D01*
X354545Y618088D01*
X354000Y616053D01*
Y613947D01*
X354545Y611912D01*
X355598Y610088D01*
X357088Y608598D01*
X358912Y607545D01*
X360947Y607000D01*
X363053D01*
X365088Y607545D01*
X366912Y608598D01*
X368401Y610088D01*
X369455Y611912D01*
X370000Y613947D01*
Y616053D01*
X369455Y618088D01*
X368401Y619912D01*
X366912Y621402D01*
X365088Y622455D01*
X363053Y623000D01*
D02*
G37*
G36*
X290000Y606056D02*
X283000D01*
Y596000D01*
X296556D01*
Y599500D01*
X296333Y601197D01*
X295678Y602778D01*
X294636Y604136D01*
X293278Y605178D01*
X291697Y605833D01*
X290000Y606056D01*
D02*
G37*
G36*
X281000D02*
X274000D01*
X272303Y605833D01*
X270722Y605178D01*
X269364Y604136D01*
X268322Y602778D01*
X267667Y601197D01*
X267444Y599500D01*
Y596000D01*
X281000D01*
Y606056D01*
D02*
G37*
G36*
X191000D02*
X184000D01*
X182303Y605833D01*
X180722Y605178D01*
X179364Y604136D01*
X178322Y602778D01*
X177667Y601197D01*
X177444Y599500D01*
Y596000D01*
X191000D01*
Y606056D01*
D02*
G37*
G36*
X296556Y594000D02*
X283000D01*
Y583944D01*
X290000D01*
X291697Y584167D01*
X293278Y584822D01*
X294636Y585864D01*
X295678Y587222D01*
X296333Y588803D01*
X296556Y590500D01*
Y594000D01*
D02*
G37*
G36*
X281000D02*
X267444D01*
Y590500D01*
X267667Y588803D01*
X268322Y587222D01*
X269364Y585864D01*
X270722Y584822D01*
X272303Y584167D01*
X274000Y583944D01*
X281000D01*
Y594000D01*
D02*
G37*
G36*
X191000D02*
X177444D01*
Y590500D01*
X177667Y588803D01*
X178322Y587222D01*
X179364Y585864D01*
X180722Y584822D01*
X182303Y584167D01*
X184000Y583944D01*
X191000D01*
Y594000D01*
D02*
G37*
G36*
X113053Y583000D02*
X110947D01*
X108912Y582455D01*
X107088Y581402D01*
X105598Y579912D01*
X104545Y578088D01*
X104000Y576053D01*
Y573947D01*
X104545Y571912D01*
X105598Y570088D01*
X107088Y568598D01*
X108912Y567545D01*
X110947Y567000D01*
X113053D01*
X115088Y567545D01*
X116912Y568598D01*
X118401Y570088D01*
X119455Y571912D01*
X120000Y573947D01*
Y576053D01*
X119455Y578088D01*
X118401Y579912D01*
X116912Y581402D01*
X115088Y582455D01*
X113053Y583000D01*
D02*
G37*
G36*
X362921Y577000D02*
X361078D01*
X359298Y576523D01*
X357702Y575601D01*
X356399Y574298D01*
X355477Y572702D01*
X355000Y570922D01*
Y569078D01*
X355477Y567298D01*
X356399Y565702D01*
X357702Y564399D01*
X359298Y563477D01*
X361078Y563000D01*
X362921D01*
X364702Y563477D01*
X366298Y564399D01*
X367601Y565702D01*
X368523Y567298D01*
X369000Y569078D01*
Y570922D01*
X368523Y572702D01*
X367601Y574298D01*
X366298Y575601D01*
X364702Y576523D01*
X362921Y577000D01*
D02*
G37*
G36*
X558750Y570103D02*
X556500D01*
Y561000D01*
X564103D01*
Y564750D01*
X563695Y566798D01*
X562535Y568535D01*
X560798Y569695D01*
X558750Y570103D01*
D02*
G37*
G36*
X554500D02*
X552250D01*
X550202Y569695D01*
X548465Y568535D01*
X547305Y566798D01*
X546897Y564750D01*
Y561000D01*
X554500D01*
Y570103D01*
D02*
G37*
G36*
X450000Y581056D02*
X434000D01*
X432303Y580833D01*
X430722Y580178D01*
X429364Y579136D01*
X428322Y577778D01*
X427667Y576197D01*
X427444Y574500D01*
Y565500D01*
X427667Y563803D01*
X428322Y562222D01*
X429364Y560864D01*
X430722Y559822D01*
X432303Y559167D01*
X434000Y558944D01*
X450000D01*
X451697Y559167D01*
X453278Y559822D01*
X454636Y560864D01*
X455678Y562222D01*
X456333Y563803D01*
X456556Y565500D01*
Y574500D01*
X456333Y576197D01*
X455678Y577778D01*
X454636Y579136D01*
X453278Y580178D01*
X451697Y580833D01*
X450000Y581056D01*
D02*
G37*
G36*
X40000D02*
X24000D01*
X22303Y580833D01*
X20722Y580178D01*
X19364Y579136D01*
X18322Y577778D01*
X17667Y576197D01*
X17444Y574500D01*
Y565500D01*
X17667Y563803D01*
X18322Y562222D01*
X19364Y560864D01*
X20722Y559822D01*
X22303Y559167D01*
X24000Y558944D01*
X40000D01*
X41697Y559167D01*
X43278Y559822D01*
X44636Y560864D01*
X45678Y562222D01*
X46333Y563803D01*
X46556Y565500D01*
Y574500D01*
X46333Y576197D01*
X45678Y577778D01*
X44636Y579136D01*
X43278Y580178D01*
X41697Y580833D01*
X40000Y581056D01*
D02*
G37*
G36*
X564103Y559000D02*
X556500D01*
Y549897D01*
X558750D01*
X560798Y550305D01*
X562535Y551465D01*
X563695Y553202D01*
X564103Y555250D01*
Y559000D01*
D02*
G37*
G36*
X554500D02*
X546897D01*
Y555250D01*
X547305Y553202D01*
X548465Y551465D01*
X550202Y550305D01*
X552250Y549897D01*
X554500D01*
Y559000D01*
D02*
G37*
G36*
X374000Y543578D02*
X350000D01*
X347650Y543268D01*
X345461Y542361D01*
X343581Y540919D01*
X342138Y539039D01*
X341232Y536850D01*
X340922Y534500D01*
Y520500D01*
X341232Y518150D01*
X342138Y515961D01*
X343581Y514081D01*
X345461Y512639D01*
X347650Y511732D01*
X350000Y511422D01*
X374000D01*
X376349Y511732D01*
X378539Y512639D01*
X380419Y514081D01*
X381861Y515961D01*
X382768Y518150D01*
X383078Y520500D01*
Y534500D01*
X382768Y536850D01*
X381861Y539039D01*
X380419Y540919D01*
X378539Y542361D01*
X376349Y543268D01*
X374000Y543578D01*
D02*
G37*
G36*
X124000D02*
X100000D01*
X97650Y543268D01*
X95461Y542361D01*
X93581Y540919D01*
X92139Y539039D01*
X91232Y536850D01*
X90922Y534500D01*
Y520500D01*
X91232Y518150D01*
X92139Y515961D01*
X93581Y514081D01*
X95461Y512639D01*
X97650Y511732D01*
X100000Y511422D01*
X124000D01*
X126349Y511732D01*
X128539Y512639D01*
X130419Y514081D01*
X131861Y515961D01*
X132768Y518150D01*
X133078Y520500D01*
Y534500D01*
X132768Y536850D01*
X131861Y539039D01*
X130419Y540919D01*
X128539Y542361D01*
X126349Y543268D01*
X124000Y543578D01*
D02*
G37*
G36*
X155448Y501000D02*
X152552D01*
X149754Y500250D01*
X147246Y498802D01*
X145198Y496754D01*
X143750Y494246D01*
X143000Y491448D01*
Y488552D01*
X143750Y485754D01*
X145198Y483246D01*
X147246Y481198D01*
X149754Y479750D01*
X152552Y479000D01*
X155448D01*
X158246Y479750D01*
X160754Y481198D01*
X162802Y483246D01*
X164250Y485754D01*
X165000Y488552D01*
Y491448D01*
X164250Y494246D01*
X162802Y496754D01*
X160754Y498802D01*
X158246Y500250D01*
X155448Y501000D01*
D02*
G37*
G36*
X124000Y468578D02*
X100000D01*
X97650Y468268D01*
X95461Y467361D01*
X93581Y465919D01*
X92139Y464039D01*
X91232Y461850D01*
X90922Y459500D01*
Y445500D01*
X91232Y443150D01*
X92139Y440961D01*
X93581Y439081D01*
X95461Y437639D01*
X97650Y436732D01*
X100000Y436422D01*
X124000D01*
X126349Y436732D01*
X128539Y437639D01*
X130419Y439081D01*
X131861Y440961D01*
X132768Y443150D01*
X133078Y445500D01*
Y459500D01*
X132768Y461850D01*
X131861Y464039D01*
X130419Y465919D01*
X128539Y467361D01*
X126349Y468268D01*
X124000Y468578D01*
D02*
G37*
G36*
X374000Y468578D02*
X350000D01*
X347650Y468268D01*
X345461Y467361D01*
X343581Y465919D01*
X342138Y464039D01*
X341232Y461850D01*
X340922Y459500D01*
Y445500D01*
X341232Y443150D01*
X342138Y440961D01*
X343581Y439081D01*
X345461Y437639D01*
X347650Y436732D01*
X350000Y436422D01*
X374000D01*
X376349Y436732D01*
X378539Y437639D01*
X380419Y439081D01*
X381861Y440961D01*
X382768Y443150D01*
X383078Y445500D01*
Y459500D01*
X382768Y461850D01*
X381861Y464039D01*
X380419Y465919D01*
X378539Y467361D01*
X376349Y468268D01*
X374000Y468578D01*
D02*
G37*
G36*
X558750Y430103D02*
X552250D01*
X550202Y429695D01*
X548465Y428535D01*
X547305Y426798D01*
X546897Y424750D01*
Y415250D01*
X547305Y413202D01*
X548465Y411465D01*
X550202Y410305D01*
X552250Y409897D01*
X558750D01*
X560798Y410305D01*
X562535Y411465D01*
X563695Y413202D01*
X564103Y415250D01*
Y424750D01*
X563695Y426798D01*
X562535Y428535D01*
X560798Y429695D01*
X558750Y430103D01*
D02*
G37*
G36*
X513750D02*
X507250D01*
X505202Y429695D01*
X503465Y428535D01*
X502305Y426798D01*
X501897Y424750D01*
Y415250D01*
X502305Y413202D01*
X503465Y411465D01*
X505202Y410305D01*
X507250Y409897D01*
X513750D01*
X515798Y410305D01*
X517535Y411465D01*
X518695Y413202D01*
X519103Y415250D01*
Y424750D01*
X518695Y426798D01*
X517535Y428535D01*
X515798Y429695D01*
X513750Y430103D01*
D02*
G37*
G36*
X112921Y417000D02*
X111078D01*
X109298Y416523D01*
X107702Y415601D01*
X106399Y414298D01*
X105477Y412702D01*
X105000Y410922D01*
Y409078D01*
X105477Y407298D01*
X106399Y405702D01*
X107702Y404399D01*
X109298Y403477D01*
X111078Y403000D01*
X112921D01*
X114702Y403477D01*
X116298Y404399D01*
X117601Y405702D01*
X118523Y407298D01*
X119000Y409078D01*
Y410922D01*
X118523Y412702D01*
X117601Y414298D01*
X116298Y415601D01*
X114702Y416523D01*
X112921Y417000D01*
D02*
G37*
G36*
X40000Y421056D02*
X24000D01*
X22303Y420833D01*
X20722Y420178D01*
X19364Y419136D01*
X18322Y417778D01*
X17667Y416197D01*
X17444Y414500D01*
Y405500D01*
X17667Y403803D01*
X18322Y402222D01*
X19364Y400864D01*
X20722Y399822D01*
X22303Y399167D01*
X24000Y398944D01*
X40000D01*
X41697Y399167D01*
X43278Y399822D01*
X44636Y400864D01*
X45678Y402222D01*
X46333Y403803D01*
X46556Y405500D01*
Y414500D01*
X46333Y416197D01*
X45678Y417778D01*
X44636Y419136D01*
X43278Y420178D01*
X41697Y420833D01*
X40000Y421056D01*
D02*
G37*
G36*
X450000Y421056D02*
X434000D01*
X432303Y420833D01*
X430722Y420178D01*
X429364Y419136D01*
X428322Y417778D01*
X427667Y416197D01*
X427444Y414500D01*
Y405500D01*
X427667Y403803D01*
X428322Y402222D01*
X429364Y400864D01*
X430722Y399822D01*
X432303Y399167D01*
X434000Y398944D01*
X450000D01*
X451697Y399167D01*
X453278Y399822D01*
X454636Y400864D01*
X455678Y402222D01*
X456333Y403803D01*
X456556Y405500D01*
Y414500D01*
X456333Y416197D01*
X455678Y417778D01*
X454636Y419136D01*
X453278Y420178D01*
X451697Y420833D01*
X450000Y421056D01*
D02*
G37*
G36*
X363053Y413000D02*
X360947D01*
X358912Y412455D01*
X357088Y411402D01*
X355598Y409912D01*
X354545Y408088D01*
X354000Y406053D01*
Y403947D01*
X354545Y401912D01*
X355598Y400088D01*
X357088Y398598D01*
X358912Y397545D01*
X360947Y397000D01*
X363053D01*
X365088Y397545D01*
X366912Y398598D01*
X368401Y400088D01*
X369455Y401912D01*
X370000Y403947D01*
Y406053D01*
X369455Y408088D01*
X368401Y409912D01*
X366912Y411402D01*
X365088Y412455D01*
X363053Y413000D01*
D02*
G37*
G36*
X200000Y396056D02*
X193000D01*
Y386000D01*
X206556D01*
Y389500D01*
X206333Y391197D01*
X205678Y392778D01*
X204636Y394136D01*
X203278Y395178D01*
X201697Y395833D01*
X200000Y396056D01*
D02*
G37*
G36*
X191000D02*
X184000D01*
X182303Y395833D01*
X180722Y395178D01*
X179364Y394136D01*
X178322Y392778D01*
X177667Y391197D01*
X177444Y389500D01*
Y386000D01*
X191000D01*
Y396056D01*
D02*
G37*
G36*
X290000Y396056D02*
X283000D01*
Y386000D01*
X296556D01*
Y389500D01*
X296333Y391197D01*
X295678Y392778D01*
X294636Y394136D01*
X293278Y395178D01*
X291697Y395833D01*
X290000Y396056D01*
D02*
G37*
G36*
X281000D02*
X274000D01*
X272303Y395833D01*
X270722Y395178D01*
X269364Y394136D01*
X268322Y392778D01*
X267667Y391197D01*
X267444Y389500D01*
Y386000D01*
X281000D01*
Y396056D01*
D02*
G37*
G36*
X206556Y384000D02*
X193000D01*
Y373944D01*
X200000D01*
X201697Y374167D01*
X203278Y374822D01*
X204636Y375864D01*
X205678Y377222D01*
X206333Y378803D01*
X206556Y380500D01*
Y384000D01*
D02*
G37*
G36*
X191000D02*
X177444D01*
Y380500D01*
X177667Y378803D01*
X178322Y377222D01*
X179364Y375864D01*
X180722Y374822D01*
X182303Y374167D01*
X184000Y373944D01*
X191000D01*
Y384000D01*
D02*
G37*
G36*
X296556Y384000D02*
X283000D01*
Y373944D01*
X290000D01*
X291697Y374167D01*
X293278Y374822D01*
X294636Y375864D01*
X295678Y377222D01*
X296333Y378803D01*
X296556Y380500D01*
Y384000D01*
D02*
G37*
G36*
X113053Y373000D02*
X110947D01*
X108912Y372455D01*
X107088Y371402D01*
X105598Y369912D01*
X104545Y368088D01*
X104000Y366053D01*
Y363947D01*
X104545Y361912D01*
X105598Y360088D01*
X107088Y358598D01*
X108912Y357545D01*
X110947Y357000D01*
X113053D01*
X115088Y357545D01*
X116912Y358598D01*
X118401Y360088D01*
X119455Y361912D01*
X120000Y363947D01*
Y366053D01*
X119455Y368088D01*
X118401Y369912D01*
X116912Y371402D01*
X115088Y372455D01*
X113053Y373000D01*
D02*
G37*
G36*
X362921Y367000D02*
X361078D01*
X359298Y366523D01*
X357702Y365601D01*
X356399Y364298D01*
X355477Y362702D01*
X355000Y360922D01*
Y359078D01*
X355477Y357298D01*
X356399Y355702D01*
X357702Y354399D01*
X359298Y353477D01*
X361078Y353000D01*
X362921D01*
X364702Y353477D01*
X366298Y354399D01*
X367601Y355702D01*
X368523Y357298D01*
X369000Y359078D01*
Y360922D01*
X368523Y362702D01*
X367601Y364298D01*
X366298Y365601D01*
X364702Y366523D01*
X362921Y367000D01*
D02*
G37*
G36*
X558750Y360103D02*
X556500D01*
Y351000D01*
X564103D01*
Y354750D01*
X563695Y356798D01*
X562535Y358535D01*
X560798Y359695D01*
X558750Y360103D01*
D02*
G37*
G36*
X554500D02*
X552250D01*
X550202Y359695D01*
X548465Y358535D01*
X547305Y356798D01*
X546897Y354750D01*
Y351000D01*
X554500D01*
Y360103D01*
D02*
G37*
G36*
X40000Y371056D02*
X24000D01*
X22303Y370833D01*
X20722Y370178D01*
X19364Y369136D01*
X18322Y367778D01*
X17667Y366197D01*
X17444Y364500D01*
Y355500D01*
X17667Y353803D01*
X18322Y352222D01*
X19364Y350864D01*
X20722Y349822D01*
X22303Y349167D01*
X24000Y348944D01*
X40000D01*
X41697Y349167D01*
X43278Y349822D01*
X44636Y350864D01*
X45678Y352222D01*
X46333Y353803D01*
X46556Y355500D01*
Y364500D01*
X46333Y366197D01*
X45678Y367778D01*
X44636Y369136D01*
X43278Y370178D01*
X41697Y370833D01*
X40000Y371056D01*
D02*
G37*
G36*
X450000Y371056D02*
X434000D01*
X432303Y370833D01*
X430722Y370178D01*
X429364Y369136D01*
X428322Y367778D01*
X427667Y366197D01*
X427444Y364500D01*
Y355500D01*
X427667Y353803D01*
X428322Y352222D01*
X429364Y350864D01*
X430722Y349822D01*
X432303Y349167D01*
X434000Y348944D01*
X450000D01*
X451697Y349167D01*
X453278Y349822D01*
X454636Y350864D01*
X455678Y352222D01*
X456333Y353803D01*
X456556Y355500D01*
Y364500D01*
X456333Y366197D01*
X455678Y367778D01*
X454636Y369136D01*
X453278Y370178D01*
X451697Y370833D01*
X450000Y371056D01*
D02*
G37*
G36*
X564103Y349000D02*
X556500D01*
Y339897D01*
X558750D01*
X560798Y340305D01*
X562535Y341465D01*
X563695Y343201D01*
X564103Y345250D01*
Y349000D01*
D02*
G37*
G36*
X554500D02*
X546897D01*
Y345250D01*
X547305Y343201D01*
X548465Y341465D01*
X550202Y340305D01*
X552250Y339897D01*
X554500D01*
Y349000D01*
D02*
G37*
G36*
X124000Y333578D02*
X100000D01*
X97650Y333268D01*
X95461Y332361D01*
X93581Y330919D01*
X92139Y329039D01*
X91232Y326850D01*
X90922Y324500D01*
Y310500D01*
X91232Y308151D01*
X92139Y305961D01*
X93581Y304081D01*
X95461Y302639D01*
X97650Y301732D01*
X100000Y301422D01*
X124000D01*
X126349Y301732D01*
X128539Y302639D01*
X130419Y304081D01*
X131861Y305961D01*
X132768Y308151D01*
X133078Y310500D01*
Y324500D01*
X132768Y326850D01*
X131861Y329039D01*
X130419Y330919D01*
X128539Y332361D01*
X126349Y333268D01*
X124000Y333578D01*
D02*
G37*
G36*
X374000Y333578D02*
X350000D01*
X347650Y333268D01*
X345461Y332361D01*
X343581Y330919D01*
X342138Y329039D01*
X341232Y326850D01*
X340922Y324500D01*
Y310500D01*
X341232Y308151D01*
X342138Y305961D01*
X343581Y304081D01*
X345461Y302638D01*
X347650Y301732D01*
X350000Y301422D01*
X374000D01*
X376349Y301732D01*
X378539Y302638D01*
X380419Y304081D01*
X381861Y305961D01*
X382768Y308151D01*
X383078Y310500D01*
Y324500D01*
X382768Y326850D01*
X381861Y329039D01*
X380419Y330919D01*
X378539Y332361D01*
X376349Y333268D01*
X374000Y333578D01*
D02*
G37*
G36*
Y258578D02*
X350000D01*
X347650Y258268D01*
X345461Y257362D01*
X343581Y255919D01*
X342138Y254039D01*
X341232Y251849D01*
X340922Y249500D01*
Y235500D01*
X341232Y233151D01*
X342138Y230961D01*
X343581Y229081D01*
X345461Y227638D01*
X347650Y226732D01*
X350000Y226422D01*
X374000D01*
X376349Y226732D01*
X378539Y227638D01*
X380419Y229081D01*
X381861Y230961D01*
X382768Y233151D01*
X383078Y235500D01*
Y249500D01*
X382768Y251849D01*
X381861Y254039D01*
X380419Y255919D01*
X378539Y257362D01*
X376349Y258268D01*
X374000Y258578D01*
D02*
G37*
G36*
X124000D02*
X100000D01*
X97650Y258268D01*
X95461Y257362D01*
X93581Y255919D01*
X92139Y254039D01*
X91232Y251849D01*
X90922Y249500D01*
Y235500D01*
X91232Y233151D01*
X92139Y230961D01*
X93581Y229081D01*
X95461Y227638D01*
X97650Y226732D01*
X100000Y226422D01*
X124000D01*
X126349Y226732D01*
X128539Y227638D01*
X130419Y229081D01*
X131861Y230961D01*
X132768Y233151D01*
X133078Y235500D01*
Y249500D01*
X132768Y251849D01*
X131861Y254039D01*
X130419Y255919D01*
X128539Y257362D01*
X126349Y258268D01*
X124000Y258578D01*
D02*
G37*
G36*
X580000Y302060D02*
X570000D01*
X569839Y302039D01*
X565000D01*
X564803Y302000D01*
X563000D01*
Y300197D01*
X562961Y300000D01*
Y295161D01*
X562940Y295000D01*
Y225000D01*
X562961Y224839D01*
Y220000D01*
X563000Y219803D01*
Y219752D01*
X561730Y219073D01*
X560798Y219695D01*
X558750Y220103D01*
X552250D01*
X550202Y219695D01*
X548465Y218535D01*
X547305Y216798D01*
X546897Y214750D01*
Y205250D01*
X547305Y203202D01*
X548465Y201465D01*
X550202Y200305D01*
X552250Y199897D01*
X558750D01*
X560798Y200305D01*
X562535Y201465D01*
X563695Y203202D01*
X564103Y205250D01*
Y214750D01*
X563709Y216730D01*
X563706Y216817D01*
X564420Y218000D01*
X564803D01*
X565000Y217961D01*
X569839D01*
X570000Y217940D01*
X580000D01*
X580161Y217961D01*
X585000D01*
X585197Y218000D01*
X587000D01*
Y219803D01*
X587039Y220000D01*
Y224839D01*
X587060Y225000D01*
Y295000D01*
X587039Y295161D01*
Y300000D01*
X587000Y300197D01*
Y302000D01*
X585197D01*
X585000Y302039D01*
X580161D01*
X580000Y302060D01*
D02*
G37*
G36*
X30000D02*
X20000D01*
X19839Y302039D01*
X15000D01*
X14803Y302000D01*
X13000D01*
Y300197D01*
X12961Y300000D01*
Y295161D01*
X12940Y295000D01*
Y225000D01*
X12961Y224839D01*
Y220000D01*
X13000Y219803D01*
Y218000D01*
X14803D01*
X15000Y217961D01*
X19839D01*
X20000Y217940D01*
X30000D01*
X30161Y217961D01*
X35000D01*
X35197Y218000D01*
X37000D01*
Y219803D01*
X37039Y220000D01*
Y224839D01*
X37060Y225000D01*
Y295000D01*
X37039Y295161D01*
Y300000D01*
X37000Y300197D01*
Y302000D01*
X35197D01*
X35000Y302039D01*
X30161D01*
X30000Y302060D01*
D02*
G37*
G36*
X513750Y220103D02*
X507250D01*
X505202Y219695D01*
X503465Y218535D01*
X502305Y216798D01*
X501897Y214750D01*
Y205250D01*
X502305Y203202D01*
X503465Y201465D01*
X505202Y200305D01*
X507250Y199897D01*
X513750D01*
X515798Y200305D01*
X517535Y201465D01*
X518695Y203202D01*
X519103Y205250D01*
Y214750D01*
X518695Y216798D01*
X517535Y218535D01*
X515798Y219695D01*
X513750Y220103D01*
D02*
G37*
G36*
X112921Y207000D02*
X111078D01*
X109298Y206523D01*
X107702Y205601D01*
X106399Y204298D01*
X105477Y202702D01*
X105000Y200922D01*
Y199078D01*
X105477Y197298D01*
X106399Y195702D01*
X107702Y194399D01*
X109298Y193477D01*
X111078Y193000D01*
X112921D01*
X114702Y193477D01*
X116298Y194399D01*
X117601Y195702D01*
X118523Y197298D01*
X119000Y199078D01*
Y200922D01*
X118523Y202702D01*
X117601Y204298D01*
X116298Y205601D01*
X114702Y206523D01*
X112921Y207000D01*
D02*
G37*
G36*
X450000Y211056D02*
X434000D01*
X432303Y210833D01*
X430722Y210178D01*
X429364Y209136D01*
X428322Y207778D01*
X427667Y206197D01*
X427444Y204500D01*
Y195500D01*
X427667Y193803D01*
X428322Y192222D01*
X429364Y190864D01*
X430722Y189822D01*
X432303Y189167D01*
X434000Y188944D01*
X450000D01*
X451697Y189167D01*
X453278Y189822D01*
X454636Y190864D01*
X455678Y192222D01*
X456333Y193803D01*
X456556Y195500D01*
Y204500D01*
X456333Y206197D01*
X455678Y207778D01*
X454636Y209136D01*
X453278Y210178D01*
X451697Y210833D01*
X450000Y211056D01*
D02*
G37*
G36*
X40000D02*
X24000D01*
X22303Y210833D01*
X20722Y210178D01*
X19364Y209136D01*
X18322Y207778D01*
X17667Y206197D01*
X17444Y204500D01*
Y195500D01*
X17667Y193803D01*
X18322Y192222D01*
X19364Y190864D01*
X20722Y189822D01*
X22303Y189167D01*
X24000Y188944D01*
X40000D01*
X41697Y189167D01*
X43278Y189822D01*
X44636Y190864D01*
X45678Y192222D01*
X46333Y193803D01*
X46556Y195500D01*
Y204500D01*
X46333Y206197D01*
X45678Y207778D01*
X44636Y209136D01*
X43278Y210178D01*
X41697Y210833D01*
X40000Y211056D01*
D02*
G37*
G36*
X363053Y203000D02*
X360947D01*
X358912Y202455D01*
X357088Y201402D01*
X355598Y199912D01*
X354545Y198088D01*
X354000Y196053D01*
Y193947D01*
X354545Y191912D01*
X355598Y190088D01*
X357088Y188598D01*
X358912Y187545D01*
X360947Y187000D01*
X363053D01*
X365088Y187545D01*
X366912Y188598D01*
X368401Y190088D01*
X369455Y191912D01*
X370000Y193947D01*
Y196053D01*
X369455Y198088D01*
X368401Y199912D01*
X366912Y201402D01*
X365088Y202455D01*
X363053Y203000D01*
D02*
G37*
G36*
X200000Y186056D02*
X193000D01*
Y176000D01*
X206556D01*
Y179500D01*
X206333Y181197D01*
X205678Y182778D01*
X204636Y184136D01*
X203278Y185178D01*
X201697Y185833D01*
X200000Y186056D01*
D02*
G37*
G36*
X290000D02*
X283000D01*
Y176000D01*
X296556D01*
Y179500D01*
X296333Y181197D01*
X295678Y182778D01*
X294636Y184136D01*
X293278Y185178D01*
X291697Y185833D01*
X290000Y186056D01*
D02*
G37*
G36*
X281000D02*
X274000D01*
X272303Y185833D01*
X270722Y185178D01*
X269364Y184136D01*
X268322Y182778D01*
X267667Y181197D01*
X267444Y179500D01*
Y176000D01*
X281000D01*
Y186056D01*
D02*
G37*
G36*
X191000D02*
X184000D01*
X182303Y185833D01*
X180722Y185178D01*
X179364Y184136D01*
X178322Y182778D01*
X177667Y181197D01*
X177444Y179500D01*
Y176000D01*
X191000D01*
Y186056D01*
D02*
G37*
G36*
X296556Y174000D02*
X283000D01*
Y163944D01*
X290000D01*
X291697Y164167D01*
X293278Y164822D01*
X294636Y165864D01*
X295678Y167222D01*
X296333Y168803D01*
X296556Y170500D01*
Y174000D01*
D02*
G37*
G36*
X281000D02*
X267444D01*
Y170500D01*
X267667Y168803D01*
X268322Y167222D01*
X269364Y165864D01*
X270722Y164822D01*
X272303Y164167D01*
X274000Y163944D01*
X281000D01*
Y174000D01*
D02*
G37*
G36*
X206556D02*
X193000D01*
Y163944D01*
X200000D01*
X201697Y164167D01*
X203278Y164822D01*
X204636Y165864D01*
X205678Y167222D01*
X206333Y168803D01*
X206556Y170500D01*
Y174000D01*
D02*
G37*
G36*
X191000D02*
X177444D01*
Y170500D01*
X177667Y168803D01*
X178322Y167222D01*
X179364Y165864D01*
X180722Y164822D01*
X182303Y164167D01*
X184000Y163944D01*
X191000D01*
Y174000D01*
D02*
G37*
G36*
X113053Y163000D02*
X110947D01*
X108912Y162455D01*
X107088Y161402D01*
X105598Y159912D01*
X104545Y158088D01*
X104000Y156053D01*
Y153947D01*
X104545Y151912D01*
X105598Y150088D01*
X107088Y148598D01*
X108912Y147545D01*
X110947Y147000D01*
X113053D01*
X115088Y147545D01*
X116912Y148598D01*
X118401Y150088D01*
X119455Y151912D01*
X120000Y153947D01*
Y156053D01*
X119455Y158088D01*
X118401Y159912D01*
X116912Y161402D01*
X115088Y162455D01*
X113053Y163000D01*
D02*
G37*
G36*
X362921Y157000D02*
X361078D01*
X359298Y156523D01*
X357702Y155601D01*
X356399Y154298D01*
X355477Y152702D01*
X355000Y150922D01*
Y149078D01*
X355477Y147298D01*
X356399Y145702D01*
X357702Y144399D01*
X359298Y143477D01*
X361078Y143000D01*
X362921D01*
X364702Y143477D01*
X366298Y144399D01*
X367601Y145702D01*
X368523Y147298D01*
X369000Y149078D01*
Y150922D01*
X368523Y152702D01*
X367601Y154298D01*
X366298Y155601D01*
X364702Y156523D01*
X362921Y157000D01*
D02*
G37*
G36*
X558750Y150103D02*
X556500D01*
Y141000D01*
X564103D01*
Y144750D01*
X563695Y146798D01*
X562535Y148535D01*
X560798Y149695D01*
X558750Y150103D01*
D02*
G37*
G36*
X554500D02*
X552250D01*
X550202Y149695D01*
X548465Y148535D01*
X547305Y146798D01*
X546897Y144750D01*
Y141000D01*
X554500D01*
Y150103D01*
D02*
G37*
G36*
X450000Y161056D02*
X434000D01*
X432303Y160833D01*
X430722Y160178D01*
X429364Y159136D01*
X428322Y157778D01*
X427667Y156197D01*
X427444Y154500D01*
Y145500D01*
X427667Y143803D01*
X428322Y142222D01*
X429364Y140864D01*
X430722Y139822D01*
X432303Y139167D01*
X434000Y138944D01*
X450000D01*
X451697Y139167D01*
X453278Y139822D01*
X454636Y140864D01*
X455678Y142222D01*
X456333Y143803D01*
X456556Y145500D01*
Y154500D01*
X456333Y156197D01*
X455678Y157778D01*
X454636Y159136D01*
X453278Y160178D01*
X451697Y160833D01*
X450000Y161056D01*
D02*
G37*
G36*
X40000D02*
X24000D01*
X22303Y160833D01*
X20722Y160178D01*
X19364Y159136D01*
X18322Y157778D01*
X17667Y156197D01*
X17444Y154500D01*
Y145500D01*
X17667Y143803D01*
X18322Y142222D01*
X19364Y140864D01*
X20722Y139822D01*
X22303Y139167D01*
X24000Y138944D01*
X40000D01*
X41697Y139167D01*
X43278Y139822D01*
X44636Y140864D01*
X45678Y142222D01*
X46333Y143803D01*
X46556Y145500D01*
Y154500D01*
X46333Y156197D01*
X45678Y157778D01*
X44636Y159136D01*
X43278Y160178D01*
X41697Y160833D01*
X40000Y161056D01*
D02*
G37*
G36*
X564103Y139000D02*
X556500D01*
Y129897D01*
X558750D01*
X560798Y130305D01*
X562535Y131465D01*
X563695Y133202D01*
X564103Y135250D01*
Y139000D01*
D02*
G37*
G36*
X554500D02*
X546897D01*
Y135250D01*
X547305Y133202D01*
X548465Y131465D01*
X550202Y130305D01*
X552250Y129897D01*
X554500D01*
Y139000D01*
D02*
G37*
G36*
X374000Y123578D02*
X350000D01*
X347650Y123268D01*
X345461Y122361D01*
X343581Y120919D01*
X342138Y119039D01*
X341232Y116849D01*
X340922Y114500D01*
Y100500D01*
X341232Y98151D01*
X342138Y95961D01*
X343581Y94081D01*
X345461Y92639D01*
X347650Y91732D01*
X350000Y91422D01*
X374000D01*
X376349Y91732D01*
X378539Y92639D01*
X380419Y94081D01*
X381861Y95961D01*
X382768Y98151D01*
X383078Y100500D01*
Y114500D01*
X382768Y116849D01*
X381861Y119039D01*
X380419Y120919D01*
X378539Y122361D01*
X376349Y123268D01*
X374000Y123578D01*
D02*
G37*
G36*
X124000D02*
X100000D01*
X97650Y123268D01*
X95461Y122361D01*
X93581Y120919D01*
X92139Y119039D01*
X91232Y116849D01*
X90922Y114500D01*
Y100500D01*
X91232Y98151D01*
X92139Y95961D01*
X93581Y94081D01*
X95461Y92639D01*
X97650Y91732D01*
X100000Y91422D01*
X124000D01*
X126349Y91732D01*
X128539Y92639D01*
X130419Y94081D01*
X131861Y95961D01*
X132768Y98151D01*
X133078Y100500D01*
Y114500D01*
X132768Y116849D01*
X131861Y119039D01*
X130419Y120919D01*
X128539Y122361D01*
X126349Y123268D01*
X124000Y123578D01*
D02*
G37*
%LPD*%
G36*
X307625Y977503D02*
X307000Y975995D01*
Y974326D01*
X240232Y907558D01*
X239059Y908044D01*
Y910733D01*
X306548Y978222D01*
X307625Y977503D01*
D02*
G37*
D11*
X425960Y772170D02*
X529779Y668351D01*
X510500Y141500D02*
X529779Y160779D01*
Y668351D01*
X238000Y680757D02*
X243729Y686486D01*
X244811D01*
X258603Y726016D02*
X259258D01*
X240000Y744618D02*
Y903000D01*
Y744618D02*
X258603Y726016D01*
X240000Y903000D02*
X312000Y975000D01*
X236000Y737853D02*
X255696Y718157D01*
X236000Y912000D02*
X312000Y988000D01*
X236000Y737853D02*
Y912000D01*
X302276Y941817D02*
X311459Y951000D01*
X301000Y880968D02*
X302276Y882244D01*
X301000Y880427D02*
Y880968D01*
X302276Y882244D02*
Y941817D01*
X238000Y654389D02*
Y680757D01*
X251854Y390146D02*
X272661Y369339D01*
X259854Y588646D02*
Y692184D01*
X255854Y696351D02*
X258613Y699110D01*
X251854Y390146D02*
Y703887D01*
X255854Y443146D02*
X277000Y422000D01*
X255854Y443146D02*
Y696351D01*
X258613Y699110D02*
Y700192D01*
X259854Y692184D02*
X281000Y713330D01*
X251854Y703887D02*
X255918Y707951D01*
X259854Y588646D02*
X278500Y570000D01*
X296210Y692086D02*
X296975Y692852D01*
X299203D01*
X328735Y722384D01*
X284360Y700609D02*
X303000Y719249D01*
Y756292D01*
X288494Y695494D02*
X293000Y700000D01*
X293000D01*
X284360Y622360D02*
Y700609D01*
X333911Y715911D02*
X334089D01*
X303460Y685460D02*
X333911Y715911D01*
X298000Y846000D02*
Y854973D01*
X297987Y854987D02*
X298000Y854973D01*
X185000Y837000D02*
Y853460D01*
Y837000D02*
X192000Y830000D01*
X180000Y858460D02*
X185000Y853460D01*
X257298Y717157D02*
X257839D01*
X256298Y718157D02*
X257298Y717157D01*
X255696Y718157D02*
X256298D01*
X265960Y792540D02*
Y840645D01*
Y792540D02*
X278500Y780000D01*
X208665Y793165D02*
Y832688D01*
X195500Y780000D02*
X208665Y793165D01*
X210020Y834044D02*
Y835126D01*
X208665Y832688D02*
X210020Y834044D01*
X210414Y584914D02*
Y665474D01*
X210440Y665500D01*
X195500Y570000D02*
X210414Y584914D01*
X192000Y570000D02*
X195500D01*
X282000Y620000D02*
X284360Y622360D01*
X288494Y688257D02*
Y695494D01*
Y688257D02*
X291291Y685460D01*
X255918Y707951D02*
X258370D01*
X259135Y708716D01*
X281000Y713330D02*
Y744000D01*
X131052Y782044D02*
Y788537D01*
X131559Y789044D01*
X131052Y782044D02*
X230000Y683096D01*
X139082Y783564D02*
X139378Y783267D01*
Y779375D02*
Y783267D01*
X234000Y652732D02*
Y684753D01*
X139378Y779375D02*
X234000Y684753D01*
X230000Y651076D02*
Y683096D01*
X205203Y695797D02*
X221892Y679108D01*
X133420Y699955D02*
X137578Y695797D01*
X205203D01*
X221892Y647869D02*
Y679108D01*
Y647869D02*
X227000Y642762D01*
X238000Y654389D02*
X243455Y648934D01*
X244540Y656016D02*
X247570Y652986D01*
Y241430D02*
Y652986D01*
X244540Y656016D02*
Y657098D01*
X203993Y702664D02*
X226000Y680657D01*
Y649419D02*
Y680657D01*
Y649419D02*
X231455Y643964D01*
X230000Y651076D02*
X235455Y645621D01*
X234000Y652732D02*
X239455Y647278D01*
X139960Y702664D02*
X203993D01*
X133420Y705373D02*
X141460Y713413D01*
Y714100D01*
X239455Y186455D02*
Y647278D01*
X227000Y441500D02*
Y642762D01*
X231455Y391455D02*
Y643964D01*
X235455Y243455D02*
Y645621D01*
X243455Y185045D02*
Y648934D01*
X247570Y241430D02*
X278172Y210828D01*
X281000Y744000D02*
X318000Y781000D01*
X303000Y756292D02*
X332235Y785526D01*
Y787775D02*
X333000Y788540D01*
X332235Y785526D02*
Y787775D01*
X181459Y924000D02*
X182459Y923000D01*
X166991Y973449D02*
X168000Y974459D01*
X181054Y924000D02*
X181459D01*
X166991Y938064D02*
X181054Y924000D01*
X166991Y938064D02*
Y973449D01*
X309171Y877944D02*
Y878485D01*
X314000Y883314D01*
Y935999D01*
X168000Y974459D02*
Y975000D01*
X182459Y923000D02*
X183000D01*
X311459Y951000D02*
X312000D01*
X312540Y937459D02*
Y938000D01*
Y937459D02*
X314000Y935999D01*
X178000Y634000D02*
Y657000D01*
Y634000D02*
X192000Y620000D01*
X277000Y415000D02*
X282000Y410000D01*
X277000Y415000D02*
Y422000D01*
X197553Y365553D02*
X205553D01*
X192000Y360000D02*
X197553Y365553D01*
X205553D02*
X231455Y391455D01*
X280394Y360000D02*
X282000D01*
X272661Y367734D02*
X280394Y360000D01*
X272661Y367734D02*
Y369339D01*
X278172Y203828D02*
X282000Y200000D01*
X278172Y203828D02*
Y210828D01*
X195328Y153328D02*
X206328D01*
X192000Y150000D02*
X195328Y153328D01*
X206328D02*
X239455Y186455D01*
X243455Y185045D02*
X278500Y150000D01*
X282000D01*
X201339Y209339D02*
X235455Y243455D01*
X195500Y410000D02*
X227000Y441500D01*
X133420Y699955D02*
Y705373D01*
X291291Y685460D02*
X303460D01*
X192000Y410000D02*
X195500D01*
X278500Y570000D02*
X282000D01*
X192000Y200000D02*
X193606D01*
X201339Y207734D01*
Y209339D01*
X416880Y924880D02*
X421000Y929000D01*
X416880Y768409D02*
Y924880D01*
Y768409D02*
X521000Y664289D01*
X425960Y772170D02*
Y862960D01*
X421420Y770289D02*
Y864840D01*
X433000Y876421D01*
X425960Y862960D02*
X440000Y877000D01*
X421420Y770289D02*
X525540Y666169D01*
X433000Y876421D02*
Y949000D01*
X429000Y965000D02*
X429781D01*
X440000Y954781D01*
Y877000D02*
Y954781D01*
X265960Y840645D02*
X266599Y841284D01*
X282000Y830000D02*
X283606D01*
X291339Y837734D01*
Y839339D01*
X298000Y846000D01*
X510500Y350000D02*
X525540Y365040D01*
Y666169D01*
X521000Y570500D02*
Y664289D01*
X510500Y560000D02*
X521000Y570500D01*
X510500Y140000D02*
Y141500D01*
X278500Y780000D02*
X282000D01*
X192000D02*
X195500D01*
D14*
X555500Y210000D02*
D03*
Y140000D02*
D03*
X510500D02*
D03*
Y210000D02*
D03*
X555500Y420000D02*
D03*
Y350000D02*
D03*
X510500D02*
D03*
Y420000D02*
D03*
X555500Y630000D02*
D03*
Y560000D02*
D03*
X510500D02*
D03*
Y630000D02*
D03*
D15*
X362000Y107500D02*
D03*
Y242500D02*
D03*
X112000D02*
D03*
Y107500D02*
D03*
X362000Y317500D02*
D03*
Y452500D02*
D03*
X112000Y452500D02*
D03*
Y317500D02*
D03*
X362000Y527500D02*
D03*
Y662500D02*
D03*
X112000D02*
D03*
Y527500D02*
D03*
X362000Y737500D02*
D03*
Y872500D02*
D03*
X112000D02*
D03*
Y737500D02*
D03*
D16*
X442000Y150000D02*
D03*
Y200000D02*
D03*
X282000D02*
D03*
Y175000D02*
D03*
Y150000D02*
D03*
X32000Y200000D02*
D03*
Y150000D02*
D03*
X192000D02*
D03*
Y175000D02*
D03*
Y200000D02*
D03*
X442000Y360000D02*
D03*
Y410000D02*
D03*
X282000D02*
D03*
Y385000D02*
D03*
Y360000D02*
D03*
X32000Y410000D02*
D03*
Y360000D02*
D03*
X192000D02*
D03*
Y385000D02*
D03*
Y410000D02*
D03*
X442000Y570000D02*
D03*
Y620000D02*
D03*
X282000D02*
D03*
Y595000D02*
D03*
Y570000D02*
D03*
X32000Y620000D02*
D03*
Y570000D02*
D03*
X192000D02*
D03*
Y595000D02*
D03*
Y620000D02*
D03*
X442000Y780000D02*
D03*
Y830000D02*
D03*
X282000D02*
D03*
Y805000D02*
D03*
Y780000D02*
D03*
X32000Y830000D02*
D03*
Y780000D02*
D03*
X192000D02*
D03*
Y805000D02*
D03*
Y830000D02*
D03*
D21*
X198900Y1178920D02*
D03*
X224300D02*
D03*
X249700D02*
D03*
X275100D02*
D03*
X154000Y490000D02*
D03*
Y515000D02*
D03*
X570400Y863000D02*
D03*
X545000D02*
D03*
X519600D02*
D03*
X494200D02*
D03*
X468800D02*
D03*
X536600Y1111000D02*
D03*
X468800Y1108500D02*
D03*
D26*
X49000Y945900D02*
D03*
D27*
Y971300D02*
D03*
Y996700D02*
D03*
Y1022100D02*
D03*
X508000Y825000D02*
D03*
Y805000D02*
D03*
Y785000D02*
D03*
X558000Y825000D02*
D03*
Y805000D02*
D03*
Y785000D02*
D03*
D28*
X25000Y260000D02*
D03*
X575000D02*
D03*
D29*
X570000Y30000D02*
D03*
X30000D02*
D03*
X570000Y1170000D02*
D03*
X30000D02*
D03*
D30*
X244811Y686486D02*
D03*
X550000Y1050000D02*
D03*
Y1000000D02*
D03*
Y950000D02*
D03*
Y750000D02*
D03*
Y700000D02*
D03*
Y450000D02*
D03*
Y400000D02*
D03*
Y300000D02*
D03*
Y250000D02*
D03*
Y100000D02*
D03*
X500000Y1150000D02*
D03*
Y1050000D02*
D03*
Y1000000D02*
D03*
Y950000D02*
D03*
Y750000D02*
D03*
Y650000D02*
D03*
Y500000D02*
D03*
Y450000D02*
D03*
Y400000D02*
D03*
Y300000D02*
D03*
Y250000D02*
D03*
Y100000D02*
D03*
Y50000D02*
D03*
X450000Y1150000D02*
D03*
Y1100000D02*
D03*
Y1050000D02*
D03*
Y1000000D02*
D03*
Y950000D02*
D03*
Y850000D02*
D03*
Y800000D02*
D03*
Y700000D02*
D03*
Y650000D02*
D03*
Y600000D02*
D03*
Y500000D02*
D03*
Y450000D02*
D03*
Y300000D02*
D03*
Y250000D02*
D03*
Y100000D02*
D03*
Y50000D02*
D03*
X400000Y1150000D02*
D03*
Y1100000D02*
D03*
Y1050000D02*
D03*
Y1000000D02*
D03*
Y950000D02*
D03*
Y850000D02*
D03*
Y800000D02*
D03*
Y750000D02*
D03*
Y650000D02*
D03*
Y600000D02*
D03*
Y550000D02*
D03*
Y450000D02*
D03*
Y400000D02*
D03*
Y350000D02*
D03*
Y300000D02*
D03*
Y250000D02*
D03*
Y200000D02*
D03*
Y150000D02*
D03*
Y100000D02*
D03*
Y50000D02*
D03*
X350000Y1100000D02*
D03*
Y850000D02*
D03*
Y600000D02*
D03*
Y550000D02*
D03*
Y500000D02*
D03*
Y350000D02*
D03*
Y50000D02*
D03*
X300000Y1050000D02*
D03*
Y1000000D02*
D03*
Y550000D02*
D03*
Y300000D02*
D03*
Y250000D02*
D03*
Y100000D02*
D03*
Y50000D02*
D03*
X250000Y1050000D02*
D03*
Y150000D02*
D03*
Y100000D02*
D03*
Y50000D02*
D03*
X200000Y1050000D02*
D03*
Y1000000D02*
D03*
Y300000D02*
D03*
Y250000D02*
D03*
Y100000D02*
D03*
Y50000D02*
D03*
X150000Y900000D02*
D03*
Y850000D02*
D03*
Y600000D02*
D03*
Y550000D02*
D03*
Y400000D02*
D03*
Y350000D02*
D03*
Y300000D02*
D03*
Y250000D02*
D03*
Y200000D02*
D03*
Y150000D02*
D03*
Y100000D02*
D03*
Y50000D02*
D03*
X100000Y1150000D02*
D03*
Y1100000D02*
D03*
Y1000000D02*
D03*
Y950000D02*
D03*
Y700000D02*
D03*
Y600000D02*
D03*
Y550000D02*
D03*
Y500000D02*
D03*
Y400000D02*
D03*
Y350000D02*
D03*
Y50000D02*
D03*
X50000Y900000D02*
D03*
Y850000D02*
D03*
Y800000D02*
D03*
Y750000D02*
D03*
Y700000D02*
D03*
Y650000D02*
D03*
Y600000D02*
D03*
Y550000D02*
D03*
Y500000D02*
D03*
Y450000D02*
D03*
Y300000D02*
D03*
Y250000D02*
D03*
Y100000D02*
D03*
X369189Y1058460D02*
D03*
X151547Y1077458D02*
D03*
X375000Y1000000D02*
D03*
X374500Y1020500D02*
D03*
X389250Y1053750D02*
D03*
X360250Y1105750D02*
D03*
X294210Y729770D02*
D03*
X296210Y692086D02*
D03*
X293000Y700000D02*
D03*
X334089Y715911D02*
D03*
X318540Y725240D02*
D03*
X328735Y722565D02*
D03*
X301000Y880427D02*
D03*
X297987Y854987D02*
D03*
X180000Y858460D02*
D03*
X272929Y593332D02*
D03*
X259258Y726016D02*
D03*
X257420Y812000D02*
D03*
X219000D02*
D03*
X210020Y835126D02*
D03*
X266583Y675245D02*
D03*
X210440Y665500D02*
D03*
X275820Y687381D02*
D03*
X258613Y700192D02*
D03*
X257839Y717157D02*
D03*
X259135Y708716D02*
D03*
X159000Y781000D02*
D03*
X131559Y789044D02*
D03*
X139082Y783564D02*
D03*
X244540Y657098D02*
D03*
X208104Y680159D02*
D03*
X141460Y714100D02*
D03*
X148292Y722409D02*
D03*
X307500Y476000D02*
D03*
Y491000D02*
D03*
X292500D02*
D03*
Y476000D02*
D03*
X322500Y476000D02*
D03*
Y491000D02*
D03*
X292000Y914000D02*
D03*
X320706Y791585D02*
D03*
X318000Y781000D02*
D03*
X309171Y877944D02*
D03*
X312000Y951000D02*
D03*
X312540Y938000D02*
D03*
X178000Y657000D02*
D03*
X139960Y702664D02*
D03*
X421000Y929000D02*
D03*
X429000Y965000D02*
D03*
X282000Y385000D02*
D03*
X224000Y712000D02*
D03*
X312000Y988000D02*
D03*
Y975000D02*
D03*
X266599Y841284D02*
D03*
X433000Y949000D02*
D03*
X333000Y788540D02*
D03*
X168000Y975000D02*
D03*
X183000Y923000D02*
D03*
M02*
