G04*
G04 #@! TF.GenerationSoftware,Altium Limited,Altium Designer,23.4.1 (23)*
G04*
G04 Layer_Color=128*
%FSLAX44Y44*%
%MOMM*%
G71*
G04*
G04 #@! TF.SameCoordinates,ED8CA8E1-86DF-42A4-AF38-516AE62C0134*
G04*
G04*
G04 #@! TF.FilePolarity,Positive*
G04*
G01*
G75*
%ADD31R,1.8000X3.5000*%
%ADD32R,0.8890X0.8890*%
%ADD33R,1.4986X0.8890*%
%ADD34R,0.8890X1.4986*%
G04:AMPARAMS|DCode=35|XSize=1.9mm|YSize=0.48mm|CornerRadius=0.06mm|HoleSize=0mm|Usage=FLASHONLY|Rotation=180.000|XOffset=0mm|YOffset=0mm|HoleType=Round|Shape=RoundedRectangle|*
%AMROUNDEDRECTD35*
21,1,1.9000,0.3600,0,0,180.0*
21,1,1.7800,0.4800,0,0,180.0*
1,1,0.1200,-0.8900,0.1800*
1,1,0.1200,0.8900,0.1800*
1,1,0.1200,0.8900,-0.1800*
1,1,0.1200,-0.8900,-0.1800*
%
%ADD35ROUNDEDRECTD35*%
G04:AMPARAMS|DCode=36|XSize=0.6mm|YSize=0.25mm|CornerRadius=0.0625mm|HoleSize=0mm|Usage=FLASHONLY|Rotation=180.000|XOffset=0mm|YOffset=0mm|HoleType=Round|Shape=RoundedRectangle|*
%AMROUNDEDRECTD36*
21,1,0.6000,0.1250,0,0,180.0*
21,1,0.4750,0.2500,0,0,180.0*
1,1,0.1250,-0.2375,0.0625*
1,1,0.1250,0.2375,0.0625*
1,1,0.1250,0.2375,-0.0625*
1,1,0.1250,-0.2375,-0.0625*
%
%ADD36ROUNDEDRECTD36*%
G04:AMPARAMS|DCode=37|XSize=0.9mm|YSize=0.25mm|CornerRadius=0.0625mm|HoleSize=0mm|Usage=FLASHONLY|Rotation=180.000|XOffset=0mm|YOffset=0mm|HoleType=Round|Shape=RoundedRectangle|*
%AMROUNDEDRECTD37*
21,1,0.9000,0.1250,0,0,180.0*
21,1,0.7750,0.2500,0,0,180.0*
1,1,0.1250,-0.3875,0.0625*
1,1,0.1250,0.3875,0.0625*
1,1,0.1250,0.3875,-0.0625*
1,1,0.1250,-0.3875,-0.0625*
%
%ADD37ROUNDEDRECTD37*%
G04:AMPARAMS|DCode=38|XSize=1.3mm|YSize=0.25mm|CornerRadius=0.0625mm|HoleSize=0mm|Usage=FLASHONLY|Rotation=180.000|XOffset=0mm|YOffset=0mm|HoleType=Round|Shape=RoundedRectangle|*
%AMROUNDEDRECTD38*
21,1,1.3000,0.1250,0,0,180.0*
21,1,1.1750,0.2500,0,0,180.0*
1,1,0.1250,-0.5875,0.0625*
1,1,0.1250,0.5875,0.0625*
1,1,0.1250,0.5875,-0.0625*
1,1,0.1250,-0.5875,-0.0625*
%
%ADD38ROUNDEDRECTD38*%
G04:AMPARAMS|DCode=39|XSize=5mm|YSize=3mm|CornerRadius=0.75mm|HoleSize=0mm|Usage=FLASHONLY|Rotation=180.000|XOffset=0mm|YOffset=0mm|HoleType=Round|Shape=RoundedRectangle|*
%AMROUNDEDRECTD39*
21,1,5.0000,1.5000,0,0,180.0*
21,1,3.5000,3.0000,0,0,180.0*
1,1,1.5000,-1.7500,0.7500*
1,1,1.5000,1.7500,0.7500*
1,1,1.5000,1.7500,-0.7500*
1,1,1.5000,-1.7500,-0.7500*
%
%ADD39ROUNDEDRECTD39*%
G04:AMPARAMS|DCode=40|XSize=0.635mm|YSize=0.61mm|CornerRadius=0.1525mm|HoleSize=0mm|Usage=FLASHONLY|Rotation=270.000|XOffset=0mm|YOffset=0mm|HoleType=Round|Shape=RoundedRectangle|*
%AMROUNDEDRECTD40*
21,1,0.6350,0.3050,0,0,270.0*
21,1,0.3300,0.6100,0,0,270.0*
1,1,0.3050,-0.1525,-0.1650*
1,1,0.3050,-0.1525,0.1650*
1,1,0.3050,0.1525,0.1650*
1,1,0.3050,0.1525,-0.1650*
%
%ADD40ROUNDEDRECTD40*%
G04:AMPARAMS|DCode=41|XSize=0.635mm|YSize=0.61mm|CornerRadius=0.1525mm|HoleSize=0mm|Usage=FLASHONLY|Rotation=180.000|XOffset=0mm|YOffset=0mm|HoleType=Round|Shape=RoundedRectangle|*
%AMROUNDEDRECTD41*
21,1,0.6350,0.3050,0,0,180.0*
21,1,0.3300,0.6100,0,0,180.0*
1,1,0.3050,-0.1650,0.1525*
1,1,0.3050,0.1650,0.1525*
1,1,0.3050,0.1650,-0.1525*
1,1,0.3050,-0.1650,-0.1525*
%
%ADD41ROUNDEDRECTD41*%
%ADD42R,1.7000X0.8000*%
%ADD43R,0.6000X0.4000*%
%ADD44R,0.4000X0.6000*%
%ADD45R,0.9000X0.5000*%
%ADD46R,1.2000X2.3000*%
G36*
X64000Y1081500D02*
X64000Y1081500D01*
Y1080763D01*
X63855Y1079296D01*
X63568Y1077851D01*
X63140Y1076441D01*
X62576Y1075079D01*
X61881Y1073779D01*
X61063Y1072554D01*
X60128Y1071414D01*
X59085Y1070372D01*
X57946Y1069437D01*
X56721Y1068618D01*
X55421Y1067924D01*
X54059Y1067360D01*
X52649Y1066932D01*
X51204Y1066645D01*
X49737Y1066500D01*
X49000Y1066500D01*
X48263D01*
X46796Y1066645D01*
X45351Y1066932D01*
X43941Y1067360D01*
X42579Y1067924D01*
X41279Y1068618D01*
X40054Y1069437D01*
X38914Y1070372D01*
X37872Y1071414D01*
X36937Y1072554D01*
X36119Y1073779D01*
X35424Y1075079D01*
X34860Y1076441D01*
X34432Y1077851D01*
X34144Y1079296D01*
X34000Y1080763D01*
Y1081500D01*
X64000Y1081500D01*
D02*
G37*
G36*
X51204Y1101356D02*
X52649Y1101068D01*
X54059Y1100640D01*
X55421Y1100076D01*
X56721Y1099381D01*
X57946Y1098563D01*
X59085Y1097628D01*
X60128Y1096585D01*
X61063Y1095446D01*
X61881Y1094221D01*
X62576Y1092921D01*
X63140Y1091559D01*
X63568Y1090149D01*
X63856Y1088704D01*
X64000Y1087237D01*
Y1086500D01*
X34000Y1086500D01*
X34000Y1086500D01*
Y1087237D01*
X34144Y1088704D01*
X34432Y1090149D01*
X34860Y1091560D01*
X35424Y1092921D01*
X36119Y1094221D01*
X36937Y1095446D01*
X37872Y1096585D01*
X38914Y1097628D01*
X40054Y1098563D01*
X41279Y1099381D01*
X42579Y1100076D01*
X43941Y1100640D01*
X45351Y1101068D01*
X46796Y1101356D01*
X48263Y1101500D01*
X49000Y1101500D01*
X49737D01*
X51204Y1101356D01*
D02*
G37*
D31*
X570400Y858000D02*
D03*
X562000Y1116000D02*
D03*
X536600D02*
D03*
X511200D02*
D03*
X545000Y858000D02*
D03*
X519600D02*
D03*
X494200D02*
D03*
X468800D02*
D03*
D32*
X254061Y1000394D02*
D03*
Y1014389D02*
D03*
X240066D02*
D03*
Y1000394D02*
D03*
Y986398D02*
D03*
X254061D02*
D03*
X268057D02*
D03*
Y1000394D02*
D03*
Y1014389D02*
D03*
D33*
X151547Y1077609D02*
D03*
Y1064910D02*
D03*
Y1052209D02*
D03*
Y1039510D02*
D03*
Y1026809D02*
D03*
Y1014109D02*
D03*
Y1001410D02*
D03*
Y988709D02*
D03*
Y976010D02*
D03*
Y963309D02*
D03*
Y950610D02*
D03*
Y937909D02*
D03*
Y925210D02*
D03*
Y912510D02*
D03*
X326553D02*
D03*
Y925210D02*
D03*
Y937909D02*
D03*
Y950610D02*
D03*
Y963309D02*
D03*
Y976010D02*
D03*
Y988709D02*
D03*
Y1001410D02*
D03*
Y1014109D02*
D03*
Y1026809D02*
D03*
Y1039510D02*
D03*
Y1052209D02*
D03*
Y1064910D02*
D03*
Y1077609D02*
D03*
D34*
X181900Y900000D02*
D03*
X194600D02*
D03*
X207300D02*
D03*
X220000D02*
D03*
X232700D02*
D03*
X245400D02*
D03*
X258100D02*
D03*
X270800D02*
D03*
X283500D02*
D03*
X296200D02*
D03*
D35*
X274050Y796250D02*
D03*
Y789750D02*
D03*
Y783250D02*
D03*
Y776750D02*
D03*
Y770250D02*
D03*
Y763750D02*
D03*
Y757250D02*
D03*
Y750750D02*
D03*
Y744250D02*
D03*
Y737750D02*
D03*
Y731250D02*
D03*
Y724750D02*
D03*
Y718250D02*
D03*
Y711750D02*
D03*
X203950D02*
D03*
Y718250D02*
D03*
Y724750D02*
D03*
Y731250D02*
D03*
Y737750D02*
D03*
Y744250D02*
D03*
Y750750D02*
D03*
Y757250D02*
D03*
Y763750D02*
D03*
Y770250D02*
D03*
Y776750D02*
D03*
Y783250D02*
D03*
Y789750D02*
D03*
Y796250D02*
D03*
D36*
X221000Y530000D02*
D03*
Y525000D02*
D03*
Y520000D02*
D03*
Y515000D02*
D03*
Y510000D02*
D03*
D37*
X204500Y530000D02*
D03*
Y525000D02*
D03*
Y515000D02*
D03*
Y510000D02*
D03*
D38*
X206500Y520000D02*
D03*
D39*
X567750Y482500D02*
D03*
X307750D02*
D03*
Y602500D02*
D03*
X567750D02*
D03*
D40*
X288810Y655000D02*
D03*
Y665000D02*
D03*
X412000Y995000D02*
D03*
Y985000D02*
D03*
X249810Y655000D02*
D03*
Y665000D02*
D03*
X275810D02*
D03*
Y655000D02*
D03*
X262810Y665000D02*
D03*
Y655000D02*
D03*
X412000Y1019000D02*
D03*
Y1009000D02*
D03*
X189000Y655000D02*
D03*
Y665000D02*
D03*
X228000Y655000D02*
D03*
Y665000D02*
D03*
X201850D02*
D03*
Y655000D02*
D03*
X215000Y665000D02*
D03*
Y655000D02*
D03*
X412000Y1043000D02*
D03*
Y1033000D02*
D03*
X249810Y860000D02*
D03*
Y850000D02*
D03*
X189000Y860000D02*
D03*
Y850000D02*
D03*
X288810Y860000D02*
D03*
Y850000D02*
D03*
X228000Y860000D02*
D03*
Y850000D02*
D03*
X262810D02*
D03*
Y860000D02*
D03*
X275810Y850000D02*
D03*
Y860000D02*
D03*
X202000Y850000D02*
D03*
Y860000D02*
D03*
X215000Y850000D02*
D03*
Y860000D02*
D03*
X173000Y731000D02*
D03*
Y721000D02*
D03*
X259000Y517000D02*
D03*
Y507000D02*
D03*
Y540000D02*
D03*
Y530000D02*
D03*
X246000Y507000D02*
D03*
Y517000D02*
D03*
D41*
X125000Y808500D02*
D03*
X135000D02*
D03*
X125000Y757500D02*
D03*
X135000D02*
D03*
X412000Y964000D02*
D03*
X422000D02*
D03*
X135000Y795650D02*
D03*
X125000D02*
D03*
X135000Y770500D02*
D03*
X125000D02*
D03*
X344500Y694400D02*
D03*
X334500D02*
D03*
X125000Y743400D02*
D03*
X135000D02*
D03*
X344500D02*
D03*
X334500D02*
D03*
X125000Y694400D02*
D03*
X135000D02*
D03*
X334500Y707400D02*
D03*
X344500D02*
D03*
X334500Y730400D02*
D03*
X344500D02*
D03*
X135000D02*
D03*
X125000D02*
D03*
X135000Y707400D02*
D03*
X125000D02*
D03*
X412000Y951000D02*
D03*
X422000D02*
D03*
X344500Y757500D02*
D03*
X334500D02*
D03*
X344500Y808500D02*
D03*
X334500D02*
D03*
Y770500D02*
D03*
X344500D02*
D03*
X334500Y795650D02*
D03*
X344500D02*
D03*
X412000Y938000D02*
D03*
X422000D02*
D03*
X120000Y1052000D02*
D03*
X130000D02*
D03*
X120000Y1014000D02*
D03*
X130000D02*
D03*
X120000Y912000D02*
D03*
X130000D02*
D03*
X356000Y1039000D02*
D03*
X346000D02*
D03*
X356000Y938000D02*
D03*
X346000D02*
D03*
X356000Y951000D02*
D03*
X346000D02*
D03*
X356000Y976000D02*
D03*
X346000D02*
D03*
X356000Y989000D02*
D03*
X346000D02*
D03*
D42*
X183000Y527000D02*
D03*
Y512000D02*
D03*
D43*
X387000Y986000D02*
D03*
Y995000D02*
D03*
X148500Y809000D02*
D03*
Y800000D02*
D03*
Y757000D02*
D03*
Y766000D02*
D03*
X321000Y694000D02*
D03*
Y703000D02*
D03*
X148500Y744000D02*
D03*
Y735000D02*
D03*
X321000Y744000D02*
D03*
Y735000D02*
D03*
X148500Y694000D02*
D03*
Y703000D02*
D03*
X387000Y1010000D02*
D03*
Y1019000D02*
D03*
X321000Y758000D02*
D03*
Y767000D02*
D03*
Y809000D02*
D03*
Y800000D02*
D03*
X387000Y1034000D02*
D03*
Y1043000D02*
D03*
X186000Y731000D02*
D03*
Y722000D02*
D03*
X343000Y1067000D02*
D03*
Y1076000D02*
D03*
X294000Y746000D02*
D03*
Y737000D02*
D03*
X246000Y538000D02*
D03*
Y529000D02*
D03*
D44*
X289810Y678000D02*
D03*
X280810D02*
D03*
X248810D02*
D03*
X257810D02*
D03*
X188000Y678000D02*
D03*
X197000D02*
D03*
X229000D02*
D03*
X220000D02*
D03*
X248810Y837000D02*
D03*
X257810D02*
D03*
X188000Y837000D02*
D03*
X197000D02*
D03*
X289810Y837000D02*
D03*
X280810D02*
D03*
X229000Y837000D02*
D03*
X220000D02*
D03*
X346000Y1052000D02*
D03*
X355000D02*
D03*
D45*
X360000Y1082000D02*
D03*
Y1067000D02*
D03*
D46*
X264000Y484500D02*
D03*
X230000D02*
D03*
X264000Y563000D02*
D03*
X230000D02*
D03*
M02*
