G04*
G04 #@! TF.GenerationSoftware,Altium Limited,Altium Designer,23.4.1 (23)*
G04*
G04 Layer_Color=65535*
%FSLAX44Y44*%
%MOMM*%
G71*
G04*
G04 #@! TF.SameCoordinates,ED8CA8E1-86DF-42A4-AF38-516AE62C0134*
G04*
G04*
G04 #@! TF.FilePolarity,Positive*
G04*
G01*
G75*
%ADD10C,0.1540*%
%ADD11C,0.2000*%
%ADD12C,0.1000*%
%ADD13C,0.1500*%
D10*
X544045Y175000D02*
G03*
X544045Y175000I-11045J0D01*
G01*
Y385000D02*
G03*
X544045Y385000I-11045J0D01*
G01*
Y595000D02*
G03*
X544045Y595000I-11045J0D01*
G01*
D11*
X397000Y175000D02*
G03*
X397000Y175000I-35000J0D01*
G01*
X147000D02*
G03*
X147000Y175000I-35000J0D01*
G01*
X397000Y385000D02*
G03*
X397000Y385000I-35000J0D01*
G01*
X147000Y385000D02*
G03*
X147000Y385000I-35000J0D01*
G01*
X397000Y595000D02*
G03*
X397000Y595000I-35000J0D01*
G01*
X147000D02*
G03*
X147000Y595000I-35000J0D01*
G01*
X397000Y805000D02*
G03*
X397000Y805000I-35000J0D01*
G01*
X147000D02*
G03*
X147000Y805000I-35000J0D01*
G01*
X118300Y1003440D02*
X355700D01*
X118300Y1135480D02*
X355700D01*
Y1003440D02*
Y1135480D01*
X118300Y1003440D02*
Y1135480D01*
X95500Y912500D02*
X378750D01*
X95500Y1198510D02*
X378750D01*
Y912500D02*
Y1198510D01*
X95500Y912500D02*
Y1198510D01*
X519000Y142000D02*
X547000D01*
X519000Y208000D02*
X547000D01*
X501000Y145000D02*
Y205000D01*
X565000Y145000D02*
Y205000D01*
X432000Y215000D02*
Y242500D01*
X387000D02*
X432000D01*
X292000D02*
X337000D01*
X292000Y215000D02*
Y242500D01*
Y107500D02*
Y135000D01*
Y107500D02*
X337000D01*
X387000D02*
X432000D01*
Y135000D01*
X42000Y107500D02*
Y135000D01*
Y107500D02*
X87000D01*
X137000D02*
X182000D01*
Y135000D01*
Y215000D02*
Y242500D01*
X137000D02*
X182000D01*
X42000D02*
X87000D01*
X42000Y215000D02*
Y242500D01*
X519000Y352000D02*
X547000D01*
X519000Y418000D02*
X547000D01*
X501000Y355000D02*
Y415000D01*
X565000Y355000D02*
Y415000D01*
X432000Y425000D02*
Y452500D01*
X387000D02*
X432000D01*
X292000D02*
X337000D01*
X292000Y425000D02*
Y452500D01*
Y317500D02*
Y345000D01*
Y317500D02*
X337000D01*
X387000D02*
X432000D01*
Y345000D01*
X42000Y317500D02*
Y345000D01*
Y317500D02*
X87000D01*
X137000D02*
X182000D01*
Y345000D01*
Y425000D02*
Y452500D01*
X137000D02*
X182000D01*
X42000D02*
X87000D01*
X42000Y425000D02*
Y452500D01*
X432000Y635000D02*
Y662500D01*
X387000D02*
X432000D01*
X292000D02*
X337000D01*
X292000Y635000D02*
Y662500D01*
Y527500D02*
Y555000D01*
Y527500D02*
X337000D01*
X387000D02*
X432000D01*
Y555000D01*
X42000Y527500D02*
Y555000D01*
Y527500D02*
X87000D01*
X137000D02*
X182000D01*
Y555000D01*
Y635000D02*
Y662500D01*
X137000D02*
X182000D01*
X42000D02*
X87000D01*
X42000Y635000D02*
Y662500D01*
X519000Y562000D02*
X547000D01*
X519000Y628000D02*
X547000D01*
X501000Y565000D02*
Y625000D01*
X565000Y565000D02*
Y625000D01*
X432000Y845000D02*
Y872500D01*
X387000D02*
X432000D01*
X292000D02*
X337000D01*
X292000Y845000D02*
Y872500D01*
Y737500D02*
Y765000D01*
Y737500D02*
X337000D01*
X387000D02*
X432000D01*
Y765000D01*
X42000Y737500D02*
Y765000D01*
Y737500D02*
X87000D01*
X137000D02*
X182000D01*
Y765000D01*
Y845000D02*
Y872500D01*
X137000D02*
X182000D01*
X42000D02*
X87000D01*
X42000Y845000D02*
Y872500D01*
D12*
X495500Y767500D02*
X570500D01*
X495500Y842500D02*
X570500D01*
Y767500D02*
Y842500D01*
X495500Y767500D02*
Y842500D01*
D13*
X271768Y1147395D02*
X270102Y1145729D01*
Y1142397D01*
X271768Y1140731D01*
X273434D01*
X275100Y1142397D01*
Y1145729D01*
X276766Y1147395D01*
X278432D01*
X280098Y1145729D01*
Y1142397D01*
X278432Y1140731D01*
X270102Y1150728D02*
X280098D01*
Y1155726D01*
X278432Y1157392D01*
X271768D01*
X270102Y1155726D01*
Y1150728D01*
X280098Y1160724D02*
X273434D01*
X270102Y1164057D01*
X273434Y1167389D01*
X280098D01*
X275100D01*
Y1160724D01*
X246368Y1147395D02*
X244702Y1145729D01*
Y1142397D01*
X246368Y1140731D01*
X248034D01*
X249700Y1142397D01*
Y1145729D01*
X251366Y1147395D01*
X253032D01*
X254698Y1145729D01*
Y1142397D01*
X253032Y1140731D01*
X246368Y1157392D02*
X244702Y1155726D01*
Y1152394D01*
X246368Y1150728D01*
X253032D01*
X254698Y1152394D01*
Y1155726D01*
X253032Y1157392D01*
X244702Y1160724D02*
X254698D01*
Y1167389D01*
X219301Y1140731D02*
X225966D01*
X229298Y1144063D01*
X225966Y1147395D01*
X219301D01*
X220968Y1157392D02*
X219301Y1155726D01*
Y1152394D01*
X220968Y1150728D01*
X227632D01*
X229298Y1152394D01*
Y1155726D01*
X227632Y1157392D01*
X220968Y1167389D02*
X219301Y1165723D01*
Y1162391D01*
X220968Y1160724D01*
X227632D01*
X229298Y1162391D01*
Y1165723D01*
X227632Y1167389D01*
X195568Y1147395D02*
X193902Y1145729D01*
Y1142397D01*
X195568Y1140731D01*
X202232D01*
X203899Y1142397D01*
Y1145729D01*
X202232Y1147395D01*
X198900D01*
Y1144063D01*
X203899Y1150728D02*
X193902D01*
X203899Y1157392D01*
X193902D01*
Y1160724D02*
X203899D01*
Y1165723D01*
X202232Y1167389D01*
X195568D01*
X193902Y1165723D01*
Y1160724D01*
X194514Y232002D02*
X197846D01*
X196180D01*
Y241998D01*
X194514Y240332D01*
X212841Y232002D02*
Y241998D01*
X217840D01*
X219506Y240332D01*
Y237000D01*
X217840Y235334D01*
X212841D01*
X222838Y241998D02*
Y232002D01*
Y237000D01*
X229502D01*
Y241998D01*
Y232002D01*
X232835D02*
Y238666D01*
X236167Y241998D01*
X239499Y238666D01*
Y232002D01*
Y237000D01*
X232835D01*
X249496Y240332D02*
X247830Y241998D01*
X244498D01*
X242831Y240332D01*
Y238666D01*
X244498Y237000D01*
X247830D01*
X249496Y235334D01*
Y233668D01*
X247830Y232002D01*
X244498D01*
X242831Y233668D01*
X259493Y241998D02*
X252828D01*
Y232002D01*
X259493D01*
X252828Y237000D02*
X256161D01*
X279486Y232002D02*
X272822D01*
X279486Y238666D01*
Y240332D01*
X277820Y241998D01*
X274488D01*
X272822Y240332D01*
X204510Y442002D02*
X207843D01*
X206177D01*
Y451998D01*
X204510Y450332D01*
X222838Y442002D02*
Y448666D01*
X226170Y451998D01*
X229502Y448666D01*
Y442002D01*
Y447000D01*
X222838D01*
X232835Y442002D02*
Y451998D01*
X236167Y448666D01*
X239499Y451998D01*
Y442002D01*
X242831D02*
Y451998D01*
X247830D01*
X249496Y450332D01*
Y447000D01*
X247830Y445334D01*
X242831D01*
X269489Y442002D02*
X262825D01*
X269489Y448666D01*
Y450332D01*
X267823Y451998D01*
X264491D01*
X262825Y450332D01*
X199512Y652002D02*
X202844D01*
X201178D01*
Y661998D01*
X199512Y660332D01*
X224504Y661998D02*
X217840D01*
Y657000D01*
X221172D01*
X217840D01*
Y652002D01*
X232835Y661998D02*
X229502D01*
X227836Y660332D01*
Y653668D01*
X229502Y652002D01*
X232835D01*
X234501Y653668D01*
Y660332D01*
X232835Y661998D01*
X237833Y652002D02*
Y661998D01*
X242831D01*
X244498Y660332D01*
Y657000D01*
X242831Y655334D01*
X237833D01*
X241165D02*
X244498Y652002D01*
X247830D02*
Y661998D01*
X251162Y658666D01*
X254494Y661998D01*
Y652002D01*
X274488D02*
X267823D01*
X274488Y658666D01*
Y660332D01*
X272822Y661998D01*
X269490D01*
X267823Y660332D01*
X199512Y862002D02*
X202844D01*
X201178D01*
Y871998D01*
X199512Y870332D01*
X224504Y871998D02*
X217840D01*
Y867000D01*
X221172D01*
X217840D01*
Y862002D01*
X227836D02*
Y871998D01*
X232835D01*
X234501Y870332D01*
Y867000D01*
X232835Y865334D01*
X227836D01*
X231168D02*
X234501Y862002D01*
X244498Y871998D02*
X237833D01*
Y862002D01*
X244498D01*
X237833Y867000D02*
X241165D01*
X254494Y863668D02*
Y870332D01*
X252828Y871998D01*
X249496D01*
X247830Y870332D01*
Y863668D01*
X249496Y862002D01*
X252828D01*
X251162Y865334D02*
X254494Y862002D01*
X252828D02*
X254494Y863668D01*
X274488Y862002D02*
X267823D01*
X274488Y868666D01*
Y870332D01*
X272822Y871998D01*
X269490D01*
X267823Y870332D01*
X521337Y119332D02*
X519671Y120998D01*
X516339D01*
X514673Y119332D01*
Y117666D01*
X516339Y116000D01*
X519671D01*
X521337Y114334D01*
Y112668D01*
X519671Y111002D01*
X516339D01*
X514673Y112668D01*
X524669Y120998D02*
Y119332D01*
X528002Y116000D01*
X531334Y119332D01*
Y120998D01*
X528002Y116000D02*
Y111002D01*
X534666D02*
Y120998D01*
X541331Y111002D01*
Y120998D01*
X551327Y119332D02*
X549661Y120998D01*
X546329D01*
X544663Y119332D01*
Y112668D01*
X546329Y111002D01*
X549661D01*
X551327Y112668D01*
X516339Y329332D02*
X514673Y330998D01*
X511340D01*
X509674Y329332D01*
Y322668D01*
X511340Y321002D01*
X514673D01*
X516339Y322668D01*
X524669Y330998D02*
X521337D01*
X519671Y329332D01*
Y322668D01*
X521337Y321002D01*
X524669D01*
X526335Y322668D01*
Y329332D01*
X524669Y330998D01*
X529668Y321002D02*
Y330998D01*
X536332Y321002D01*
Y330998D01*
X546329Y329332D02*
X544663Y330998D01*
X541331D01*
X539664Y329332D01*
Y327666D01*
X541331Y326000D01*
X544663D01*
X546329Y324334D01*
Y322668D01*
X544663Y321002D01*
X541331D01*
X539664Y322668D01*
X549661Y330998D02*
X556326D01*
X552994D01*
Y321002D01*
X514673Y530002D02*
Y539998D01*
X518005Y536666D01*
X521337Y539998D01*
Y530002D01*
X529668Y539998D02*
X526335D01*
X524669Y538332D01*
Y531668D01*
X526335Y530002D01*
X529668D01*
X531334Y531668D01*
Y538332D01*
X529668Y539998D01*
X534666D02*
Y530002D01*
X539664D01*
X541331Y531668D01*
Y538332D01*
X539664Y539998D01*
X534666D01*
X551327D02*
X544663D01*
Y530002D01*
X551327D01*
X544663Y535000D02*
X547995D01*
X509674Y749002D02*
Y758998D01*
X514673D01*
X516339Y757332D01*
Y754000D01*
X514673Y752334D01*
X509674D01*
X524669Y758998D02*
X521337D01*
X519671Y757332D01*
Y750668D01*
X521337Y749002D01*
X524669D01*
X526335Y750668D01*
Y757332D01*
X524669Y758998D01*
X529668D02*
Y749002D01*
X533000Y752334D01*
X536332Y749002D01*
Y758998D01*
X546329D02*
X539664D01*
Y749002D01*
X546329D01*
X539664Y754000D02*
X542997D01*
X549661Y749002D02*
Y758998D01*
X554660D01*
X556326Y757332D01*
Y754000D01*
X554660Y752334D01*
X549661D01*
X552994D02*
X556326Y749002D01*
X84501Y914085D02*
X92499Y919417D01*
X84501D02*
X92499Y914085D01*
Y927414D02*
Y922083D01*
X87167Y927414D01*
X85834D01*
X84501Y926082D01*
Y923416D01*
X85834Y922083D01*
X523336Y157666D02*
X522003Y158999D01*
X519337D01*
X518004Y157666D01*
Y156333D01*
X519337Y155000D01*
X522003D01*
X523336Y153667D01*
Y152334D01*
X522003Y151001D01*
X519337D01*
X518004Y152334D01*
X526002Y158999D02*
Y151001D01*
X528668Y153667D01*
X531334Y151001D01*
Y158999D01*
X533999Y151001D02*
X536665D01*
X535332D01*
Y158999D01*
X533999Y157666D01*
X545995Y151001D02*
X540664D01*
X545995Y156333D01*
Y157666D01*
X544663Y158999D01*
X541997D01*
X540664Y157666D01*
X297669Y253666D02*
X296336Y254999D01*
X293670D01*
X292337Y253666D01*
Y252333D01*
X293670Y251000D01*
X296336D01*
X297669Y249667D01*
Y248334D01*
X296336Y247001D01*
X293670D01*
X292337Y248334D01*
X300335Y254999D02*
Y247001D01*
X303001Y249667D01*
X305666Y247001D01*
Y254999D01*
X308332Y247001D02*
X310998D01*
X309665D01*
Y254999D01*
X308332Y253666D01*
X314997Y247001D02*
X317663D01*
X316330D01*
Y254999D01*
X314997Y253666D01*
X48336Y254666D02*
X47003Y255999D01*
X44337D01*
X43004Y254666D01*
Y253333D01*
X44337Y252000D01*
X47003D01*
X48336Y250667D01*
Y249334D01*
X47003Y248001D01*
X44337D01*
X43004Y249334D01*
X51002Y255999D02*
Y248001D01*
X53668Y250667D01*
X56333Y248001D01*
Y255999D01*
X58999Y248001D02*
X61665D01*
X60332D01*
Y255999D01*
X58999Y254666D01*
X65664D02*
X66997Y255999D01*
X69663D01*
X70995Y254666D01*
Y249334D01*
X69663Y248001D01*
X66997D01*
X65664Y249334D01*
Y254666D01*
X527668Y366666D02*
X526335Y367999D01*
X523670D01*
X522337Y366666D01*
Y365333D01*
X523670Y364000D01*
X526335D01*
X527668Y362667D01*
Y361334D01*
X526335Y360001D01*
X523670D01*
X522337Y361334D01*
X530334Y367999D02*
Y360001D01*
X533000Y362667D01*
X535666Y360001D01*
Y367999D01*
X538332Y361334D02*
X539664Y360001D01*
X542330D01*
X543663Y361334D01*
Y366666D01*
X542330Y367999D01*
X539664D01*
X538332Y366666D01*
Y365333D01*
X539664Y364000D01*
X543663D01*
X297668Y463666D02*
X296336Y464999D01*
X293670D01*
X292337Y463666D01*
Y462333D01*
X293670Y461000D01*
X296336D01*
X297668Y459667D01*
Y458334D01*
X296336Y457001D01*
X293670D01*
X292337Y458334D01*
X300334Y464999D02*
Y457001D01*
X303000Y459667D01*
X305666Y457001D01*
Y464999D01*
X308332Y463666D02*
X309664Y464999D01*
X312330D01*
X313663Y463666D01*
Y462333D01*
X312330Y461000D01*
X313663Y459667D01*
Y458334D01*
X312330Y457001D01*
X309664D01*
X308332Y458334D01*
Y459667D01*
X309664Y461000D01*
X308332Y462333D01*
Y463666D01*
X309664Y461000D02*
X312330D01*
X47668Y464666D02*
X46336Y465999D01*
X43670D01*
X42337Y464666D01*
Y463333D01*
X43670Y462000D01*
X46336D01*
X47668Y460667D01*
Y459334D01*
X46336Y458001D01*
X43670D01*
X42337Y459334D01*
X50334Y465999D02*
Y458001D01*
X53000Y460667D01*
X55666Y458001D01*
Y465999D01*
X58332D02*
X63663D01*
Y464666D01*
X58332Y459334D01*
Y458001D01*
X297668Y673666D02*
X296336Y674999D01*
X293670D01*
X292337Y673666D01*
Y672333D01*
X293670Y671000D01*
X296336D01*
X297668Y669667D01*
Y668334D01*
X296336Y667001D01*
X293670D01*
X292337Y668334D01*
X300334Y674999D02*
Y667001D01*
X303000Y669667D01*
X305666Y667001D01*
Y674999D01*
X313663D02*
X310997Y673666D01*
X308332Y671000D01*
Y668334D01*
X309664Y667001D01*
X312330D01*
X313663Y668334D01*
Y669667D01*
X312330Y671000D01*
X308332D01*
X47668Y674666D02*
X46336Y675999D01*
X43670D01*
X42337Y674666D01*
Y673333D01*
X43670Y672000D01*
X46336D01*
X47668Y670667D01*
Y669334D01*
X46336Y668001D01*
X43670D01*
X42337Y669334D01*
X50334Y675999D02*
Y668001D01*
X53000Y670667D01*
X55666Y668001D01*
Y675999D01*
X63663D02*
X58332D01*
Y672000D01*
X60997Y673333D01*
X62330D01*
X63663Y672000D01*
Y669334D01*
X62330Y668001D01*
X59665D01*
X58332Y669334D01*
X527668Y576666D02*
X526335Y577999D01*
X523670D01*
X522337Y576666D01*
Y575333D01*
X523670Y574000D01*
X526335D01*
X527668Y572667D01*
Y571334D01*
X526335Y570001D01*
X523670D01*
X522337Y571334D01*
X530334Y577999D02*
Y570001D01*
X533000Y572667D01*
X535666Y570001D01*
Y577999D01*
X542330Y570001D02*
Y577999D01*
X538332Y574000D01*
X543663D01*
X297668Y882666D02*
X296336Y883999D01*
X293670D01*
X292337Y882666D01*
Y881333D01*
X293670Y880000D01*
X296336D01*
X297668Y878667D01*
Y877334D01*
X296336Y876001D01*
X293670D01*
X292337Y877334D01*
X300334Y883999D02*
Y876001D01*
X303000Y878667D01*
X305666Y876001D01*
Y883999D01*
X308332Y882666D02*
X309664Y883999D01*
X312330D01*
X313663Y882666D01*
Y881333D01*
X312330Y880000D01*
X310997D01*
X312330D01*
X313663Y878667D01*
Y877334D01*
X312330Y876001D01*
X309664D01*
X308332Y877334D01*
X47668Y884666D02*
X46336Y885999D01*
X43670D01*
X42337Y884666D01*
Y883333D01*
X43670Y882000D01*
X46336D01*
X47668Y880667D01*
Y879334D01*
X46336Y878001D01*
X43670D01*
X42337Y879334D01*
X50334Y885999D02*
Y878001D01*
X53000Y880667D01*
X55666Y878001D01*
Y885999D01*
X63663Y878001D02*
X58332D01*
X63663Y883333D01*
Y884666D01*
X62330Y885999D01*
X59665D01*
X58332Y884666D01*
X530001Y807666D02*
X528668Y808999D01*
X526003D01*
X524670Y807666D01*
Y806333D01*
X526003Y805000D01*
X528668D01*
X530001Y803667D01*
Y802334D01*
X528668Y801001D01*
X526003D01*
X524670Y802334D01*
X532667Y808999D02*
Y801001D01*
X535333Y803667D01*
X537999Y801001D01*
Y808999D01*
X540664Y801001D02*
X543330D01*
X541997D01*
Y808999D01*
X540664Y807666D01*
M02*
