G04*
G04 #@! TF.GenerationSoftware,Altium Limited,Altium Designer,23.4.1 (23)*
G04*
G04 Layer_Physical_Order=2*
G04 Layer_Color=16711680*
%FSLAX44Y44*%
%MOMM*%
G71*
G04*
G04 #@! TF.SameCoordinates,ED8CA8E1-86DF-42A4-AF38-516AE62C0134*
G04*
G04*
G04 #@! TF.FilePolarity,Positive*
G04*
G01*
G75*
%ADD11C,0.2000*%
%ADD21C,1.8000*%
%ADD26R,1.6000X1.6000*%
%ADD27C,1.6000*%
G04:AMPARAMS|DCode=28|XSize=2mm|YSize=8mm|CornerRadius=0.5mm|HoleSize=0mm|Usage=FLASHONLY|Rotation=0.000|XOffset=0mm|YOffset=0mm|HoleType=Round|Shape=RoundedRectangle|*
%AMROUNDEDRECTD28*
21,1,2.0000,7.0000,0,0,0.0*
21,1,1.0000,8.0000,0,0,0.0*
1,1,1.0000,0.5000,-3.5000*
1,1,1.0000,-0.5000,-3.5000*
1,1,1.0000,-0.5000,3.5000*
1,1,1.0000,0.5000,3.5000*
%
%ADD28ROUNDEDRECTD28*%
%ADD29C,6.0000*%
%ADD30C,0.6000*%
%ADD31R,1.8000X3.5000*%
%ADD32R,0.8890X0.8890*%
%ADD33R,1.4986X0.8890*%
%ADD34R,0.8890X1.4986*%
G04:AMPARAMS|DCode=35|XSize=1.9mm|YSize=0.48mm|CornerRadius=0.06mm|HoleSize=0mm|Usage=FLASHONLY|Rotation=180.000|XOffset=0mm|YOffset=0mm|HoleType=Round|Shape=RoundedRectangle|*
%AMROUNDEDRECTD35*
21,1,1.9000,0.3600,0,0,180.0*
21,1,1.7800,0.4800,0,0,180.0*
1,1,0.1200,-0.8900,0.1800*
1,1,0.1200,0.8900,0.1800*
1,1,0.1200,0.8900,-0.1800*
1,1,0.1200,-0.8900,-0.1800*
%
%ADD35ROUNDEDRECTD35*%
G04:AMPARAMS|DCode=36|XSize=0.6mm|YSize=0.25mm|CornerRadius=0.0625mm|HoleSize=0mm|Usage=FLASHONLY|Rotation=180.000|XOffset=0mm|YOffset=0mm|HoleType=Round|Shape=RoundedRectangle|*
%AMROUNDEDRECTD36*
21,1,0.6000,0.1250,0,0,180.0*
21,1,0.4750,0.2500,0,0,180.0*
1,1,0.1250,-0.2375,0.0625*
1,1,0.1250,0.2375,0.0625*
1,1,0.1250,0.2375,-0.0625*
1,1,0.1250,-0.2375,-0.0625*
%
%ADD36ROUNDEDRECTD36*%
G04:AMPARAMS|DCode=37|XSize=0.9mm|YSize=0.25mm|CornerRadius=0.0625mm|HoleSize=0mm|Usage=FLASHONLY|Rotation=180.000|XOffset=0mm|YOffset=0mm|HoleType=Round|Shape=RoundedRectangle|*
%AMROUNDEDRECTD37*
21,1,0.9000,0.1250,0,0,180.0*
21,1,0.7750,0.2500,0,0,180.0*
1,1,0.1250,-0.3875,0.0625*
1,1,0.1250,0.3875,0.0625*
1,1,0.1250,0.3875,-0.0625*
1,1,0.1250,-0.3875,-0.0625*
%
%ADD37ROUNDEDRECTD37*%
G04:AMPARAMS|DCode=38|XSize=1.3mm|YSize=0.25mm|CornerRadius=0.0625mm|HoleSize=0mm|Usage=FLASHONLY|Rotation=180.000|XOffset=0mm|YOffset=0mm|HoleType=Round|Shape=RoundedRectangle|*
%AMROUNDEDRECTD38*
21,1,1.3000,0.1250,0,0,180.0*
21,1,1.1750,0.2500,0,0,180.0*
1,1,0.1250,-0.5875,0.0625*
1,1,0.1250,0.5875,0.0625*
1,1,0.1250,0.5875,-0.0625*
1,1,0.1250,-0.5875,-0.0625*
%
%ADD38ROUNDEDRECTD38*%
G04:AMPARAMS|DCode=39|XSize=5mm|YSize=3mm|CornerRadius=0.75mm|HoleSize=0mm|Usage=FLASHONLY|Rotation=180.000|XOffset=0mm|YOffset=0mm|HoleType=Round|Shape=RoundedRectangle|*
%AMROUNDEDRECTD39*
21,1,5.0000,1.5000,0,0,180.0*
21,1,3.5000,3.0000,0,0,180.0*
1,1,1.5000,-1.7500,0.7500*
1,1,1.5000,1.7500,0.7500*
1,1,1.5000,1.7500,-0.7500*
1,1,1.5000,-1.7500,-0.7500*
%
%ADD39ROUNDEDRECTD39*%
G04:AMPARAMS|DCode=40|XSize=0.635mm|YSize=0.61mm|CornerRadius=0.1525mm|HoleSize=0mm|Usage=FLASHONLY|Rotation=270.000|XOffset=0mm|YOffset=0mm|HoleType=Round|Shape=RoundedRectangle|*
%AMROUNDEDRECTD40*
21,1,0.6350,0.3050,0,0,270.0*
21,1,0.3300,0.6100,0,0,270.0*
1,1,0.3050,-0.1525,-0.1650*
1,1,0.3050,-0.1525,0.1650*
1,1,0.3050,0.1525,0.1650*
1,1,0.3050,0.1525,-0.1650*
%
%ADD40ROUNDEDRECTD40*%
G04:AMPARAMS|DCode=41|XSize=0.635mm|YSize=0.61mm|CornerRadius=0.1525mm|HoleSize=0mm|Usage=FLASHONLY|Rotation=180.000|XOffset=0mm|YOffset=0mm|HoleType=Round|Shape=RoundedRectangle|*
%AMROUNDEDRECTD41*
21,1,0.6350,0.3050,0,0,180.0*
21,1,0.3300,0.6100,0,0,180.0*
1,1,0.3050,-0.1650,0.1525*
1,1,0.3050,0.1650,0.1525*
1,1,0.3050,0.1650,-0.1525*
1,1,0.3050,-0.1650,-0.1525*
%
%ADD41ROUNDEDRECTD41*%
%ADD42R,1.7000X0.8000*%
%ADD43R,0.6000X0.4000*%
%ADD44R,0.4000X0.6000*%
%ADD45R,0.9000X0.5000*%
%ADD46R,1.2000X2.3000*%
%ADD47C,0.5000*%
%ADD48C,1.0000*%
G36*
X213947Y1182784D02*
X213300Y1180368D01*
Y1177472D01*
X214050Y1174674D01*
X215498Y1172166D01*
X217546Y1170118D01*
X220054Y1168670D01*
X222852Y1167920D01*
X225748D01*
X228546Y1168670D01*
X231054Y1170118D01*
X233102Y1172166D01*
X234550Y1174674D01*
X235300Y1177472D01*
Y1180368D01*
X235195Y1180760D01*
X238506Y1184072D01*
X239522Y1183292D01*
X239450Y1183166D01*
X238700Y1180368D01*
Y1177472D01*
X239450Y1174674D01*
X240217Y1173344D01*
X232682Y1165809D01*
X148522D01*
X148036Y1166982D01*
X170897Y1189843D01*
X193280D01*
X193620Y1188573D01*
X192146Y1187722D01*
X190098Y1185674D01*
X188650Y1183166D01*
X187900Y1180368D01*
Y1179920D01*
X209900D01*
Y1180368D01*
X209150Y1183166D01*
X207702Y1185674D01*
X205654Y1187722D01*
X204180Y1188573D01*
X204520Y1189843D01*
X206888D01*
X213947Y1182784D01*
D02*
G37*
G36*
X376275Y1113986D02*
Y1070124D01*
X366500D01*
Y1071500D01*
X353500D01*
Y1070059D01*
X348898D01*
X348000Y1070957D01*
Y1072000D01*
X348000Y1072270D01*
Y1075000D01*
X343000D01*
X338000D01*
Y1072270D01*
X338000Y1072000D01*
Y1071000D01*
X337316Y1070351D01*
X336046Y1070783D01*
Y1076610D01*
X326553D01*
X317060D01*
Y1071164D01*
Y1058465D01*
Y1045764D01*
Y1033064D01*
Y1020365D01*
Y1007664D01*
Y994965D01*
Y991596D01*
X315790Y991281D01*
X314832Y992239D01*
X312995Y993000D01*
X311005D01*
X309168Y992239D01*
X307761Y990832D01*
X307000Y988995D01*
Y987005D01*
X307761Y985168D01*
X309168Y983761D01*
X311005Y983000D01*
X312995D01*
X314832Y983761D01*
X315790Y984719D01*
X317060Y984405D01*
Y978596D01*
X315790Y978281D01*
X314832Y979239D01*
X312995Y980000D01*
X311005D01*
X309168Y979239D01*
X307761Y977832D01*
X307000Y975995D01*
Y974005D01*
X307761Y972168D01*
X309168Y970761D01*
X311005Y970000D01*
X312995D01*
X314832Y970761D01*
X315790Y971719D01*
X317060Y971404D01*
Y954807D01*
X315790Y954281D01*
X314832Y955239D01*
X312995Y956000D01*
X311005D01*
X309168Y955239D01*
X307761Y953832D01*
X307000Y951995D01*
Y950005D01*
X307761Y948168D01*
X309168Y946761D01*
X311005Y946000D01*
X312995D01*
X314832Y946761D01*
X315790Y947719D01*
X317060Y947681D01*
Y942347D01*
X315790Y941821D01*
X315372Y942239D01*
X313535Y943000D01*
X311545D01*
X309708Y942239D01*
X308301Y940832D01*
X307540Y938995D01*
Y937005D01*
X308301Y935168D01*
X309708Y933761D01*
X311545Y933000D01*
X313535D01*
X315372Y933761D01*
X315790Y934179D01*
X317060Y933653D01*
Y917547D01*
X315790Y917021D01*
X282648Y950163D01*
X281656Y950826D01*
X280485Y951059D01*
X280485Y951059D01*
X161040D01*
Y956864D01*
Y972005D01*
X163924D01*
X165168Y970761D01*
X167005Y970000D01*
X168995D01*
X170832Y970761D01*
X172239Y972168D01*
X173000Y974005D01*
Y975995D01*
X172239Y977832D01*
X170832Y979239D01*
X168995Y980000D01*
X167005D01*
X165168Y979239D01*
X164052Y978123D01*
X161040D01*
Y982264D01*
Y994965D01*
Y1007664D01*
Y1014192D01*
X161225Y1014229D01*
X162217Y1014892D01*
X167738Y1020412D01*
X168401Y1021405D01*
X168634Y1022575D01*
Y1081425D01*
X168634Y1081425D01*
X168401Y1082595D01*
X167738Y1083588D01*
X167738Y1083588D01*
X164000Y1087326D01*
X164486Y1088499D01*
X329093D01*
X329873Y1088654D01*
X330535Y1089096D01*
X330977Y1089758D01*
X331132Y1090538D01*
Y1152514D01*
X330977Y1153295D01*
X330535Y1153956D01*
X329873Y1154398D01*
X329093Y1154553D01*
X258605D01*
X258480Y1155823D01*
X258986Y1155924D01*
X259979Y1156587D01*
X271806Y1168415D01*
X273652Y1167920D01*
X276548D01*
X279346Y1168670D01*
X281854Y1170118D01*
X283902Y1172166D01*
X285350Y1174674D01*
X286100Y1177472D01*
Y1180368D01*
X285350Y1183166D01*
X283902Y1185674D01*
X281854Y1187722D01*
X281102Y1188156D01*
X281443Y1189426D01*
X300835D01*
X376275Y1113986D01*
D02*
G37*
G36*
X269098Y1188156D02*
X268346Y1187722D01*
X266298Y1185674D01*
X264850Y1183166D01*
X264100Y1180368D01*
Y1177472D01*
X264850Y1174674D01*
X266298Y1172166D01*
X266602Y1171862D01*
X256549Y1161809D01*
X238993D01*
X238507Y1162982D01*
X244655Y1169131D01*
X245454Y1168670D01*
X248252Y1167920D01*
X251148D01*
X253946Y1168670D01*
X256454Y1170118D01*
X258502Y1172166D01*
X259950Y1174674D01*
X260700Y1177472D01*
Y1180368D01*
X259950Y1183166D01*
X258502Y1185674D01*
X256454Y1187722D01*
X255702Y1188156D01*
X256042Y1189426D01*
X268757D01*
X269098Y1188156D01*
D02*
G37*
G36*
X376941Y1054267D02*
X364733Y1042059D01*
X360865D01*
X360191Y1043066D01*
X359025Y1043846D01*
X357650Y1044119D01*
X354350D01*
X352975Y1043846D01*
X351809Y1043066D01*
X351764Y1042999D01*
X350236D01*
X350191Y1043066D01*
X349059Y1043823D01*
Y1046102D01*
X349957Y1047000D01*
X351000D01*
X351270Y1047000D01*
X354000D01*
Y1052000D01*
Y1057000D01*
X351270D01*
X351000Y1057000D01*
X350000D01*
X349730Y1057000D01*
X342000D01*
Y1055059D01*
X336046D01*
Y1063941D01*
X338000D01*
Y1063000D01*
X348000D01*
Y1063941D01*
X353500D01*
Y1062500D01*
X366500D01*
Y1064006D01*
X376941D01*
Y1054267D01*
D02*
G37*
G36*
X139941Y1151613D02*
Y1090832D01*
X139941Y1090832D01*
X140174Y1089661D01*
X140837Y1088669D01*
X144181Y1085324D01*
X143655Y1084054D01*
X142054D01*
Y1078609D01*
X151547D01*
Y1076609D01*
X142054D01*
Y1071164D01*
Y1060046D01*
X140784Y1059520D01*
X134501Y1065803D01*
Y1147832D01*
X138768Y1152099D01*
X139941Y1151613D01*
D02*
G37*
G36*
X128384Y1145671D02*
Y1064536D01*
X128384Y1064536D01*
X128617Y1063365D01*
X129280Y1062373D01*
X133793Y1057860D01*
X133025Y1056845D01*
X131650Y1057119D01*
X128350D01*
X126975Y1056845D01*
X125858Y1056099D01*
X125567Y1056157D01*
X124588Y1056526D01*
Y1143534D01*
X127211Y1146157D01*
X128384Y1145671D01*
D02*
G37*
G36*
X142054Y1045113D02*
X46261D01*
X45775Y1046287D01*
X46901Y1047412D01*
X116590D01*
X116975Y1047154D01*
X118350Y1046881D01*
X121650D01*
X123025Y1047154D01*
X124191Y1047934D01*
X124236Y1048001D01*
X125764D01*
X125809Y1047934D01*
X126975Y1047154D01*
X128350Y1046881D01*
X131650D01*
X133025Y1047154D01*
X134191Y1047934D01*
X134865Y1048941D01*
X142054D01*
Y1045113D01*
D02*
G37*
G36*
Y1029868D02*
X79110D01*
X79110Y1029868D01*
X77939Y1029635D01*
X76947Y1028972D01*
X53578Y1005604D01*
X52860Y1006019D01*
X50317Y1006700D01*
X47684D01*
X45140Y1006019D01*
X42860Y1004702D01*
X40998Y1002840D01*
X39681Y1000560D01*
X39329Y999243D01*
X38059Y999411D01*
Y1019389D01*
X39329Y1019557D01*
X39681Y1018240D01*
X40998Y1015960D01*
X42860Y1014098D01*
X45140Y1012782D01*
X47684Y1012100D01*
X48000D01*
Y1022100D01*
Y1032100D01*
X47684D01*
X45140Y1031419D01*
X42860Y1030102D01*
X40998Y1028240D01*
X39681Y1025960D01*
X39329Y1024643D01*
X38059Y1024811D01*
Y1031481D01*
X45574Y1038996D01*
X142054D01*
Y1029868D01*
D02*
G37*
G36*
X437021Y1013991D02*
Y1000302D01*
X435848Y999816D01*
X417119Y1018545D01*
Y1020650D01*
X416845Y1022025D01*
X416066Y1023191D01*
X414900Y1023970D01*
X413525Y1024244D01*
X410475D01*
X409100Y1023970D01*
X407934Y1023191D01*
X407155Y1022025D01*
X406881Y1020650D01*
Y1017350D01*
X407155Y1015975D01*
X407934Y1014809D01*
X407955Y1013577D01*
X407011Y1012559D01*
X392898D01*
X392086Y1013371D01*
X392000Y1013829D01*
Y1015000D01*
X392000Y1015270D01*
Y1018000D01*
X387000D01*
X382000D01*
Y1015270D01*
X382000Y1015000D01*
Y1014000D01*
X381008Y1013059D01*
X369195D01*
X354198Y1028056D01*
X354724Y1029326D01*
X384384D01*
X384384Y1029326D01*
X385555Y1029558D01*
X386216Y1030000D01*
X392000D01*
Y1030441D01*
X407062D01*
X407155Y1029975D01*
X407934Y1028809D01*
X409100Y1028029D01*
X410475Y1027756D01*
X413525D01*
X414900Y1028029D01*
X416066Y1028809D01*
X416845Y1029975D01*
X417119Y1031350D01*
Y1032234D01*
X418292Y1032720D01*
X437021Y1013991D01*
D02*
G37*
G36*
X142054Y1017168D02*
X134791D01*
X134191Y1018066D01*
X133025Y1018846D01*
X131650Y1019119D01*
X128350D01*
X126975Y1018846D01*
X125809Y1018066D01*
X125764Y1017999D01*
X124236D01*
X124191Y1018066D01*
X123025Y1018846D01*
X121650Y1019119D01*
X118350D01*
X116975Y1018846D01*
X115809Y1018066D01*
X115029Y1016900D01*
X114756Y1015525D01*
Y1012475D01*
X115029Y1011100D01*
X115412Y1010527D01*
Y916588D01*
X84800D01*
X59000Y942389D01*
Y955900D01*
X45489D01*
X31338Y970050D01*
Y984711D01*
X32608Y985096D01*
X32837Y984753D01*
X40688Y976903D01*
X39681Y975160D01*
X39000Y972617D01*
Y969983D01*
X39681Y967440D01*
X40998Y965160D01*
X42860Y963298D01*
X45140Y961982D01*
X47684Y961300D01*
X50317D01*
X52860Y961982D01*
X55140Y963298D01*
X57002Y965160D01*
X58319Y967440D01*
X59000Y969983D01*
Y972617D01*
X58319Y975160D01*
X57002Y977440D01*
X55140Y979302D01*
X52860Y980619D01*
X50317Y981300D01*
X47684D01*
X45521Y980721D01*
X38059Y988183D01*
Y993989D01*
X39329Y994156D01*
X39681Y992840D01*
X40998Y990560D01*
X42860Y988698D01*
X45140Y987382D01*
X47684Y986700D01*
X50317D01*
X52860Y987382D01*
X55140Y988698D01*
X57002Y990560D01*
X58319Y992840D01*
X59000Y995383D01*
Y998017D01*
X58319Y1000560D01*
X57904Y1001278D01*
X80377Y1023751D01*
X142054D01*
Y1017168D01*
D02*
G37*
G36*
Y1007664D02*
Y994965D01*
Y982264D01*
Y969565D01*
Y956864D01*
Y944165D01*
Y931464D01*
Y918764D01*
Y915059D01*
X134865D01*
X134191Y916066D01*
X133025Y916845D01*
X131650Y917119D01*
X128350D01*
X126975Y916845D01*
X125858Y916099D01*
X125567Y916157D01*
X124588Y916526D01*
Y1009474D01*
X125567Y1009843D01*
X125858Y1009901D01*
X126975Y1009155D01*
X128350Y1008881D01*
X131650D01*
X133025Y1009155D01*
X134191Y1009934D01*
X134938Y1011051D01*
X142054D01*
Y1007664D01*
D02*
G37*
G36*
X365765Y1007837D02*
X365765Y1007837D01*
X366757Y1007174D01*
X367928Y1006941D01*
X382000D01*
Y1006000D01*
X392000D01*
Y1006441D01*
X407062D01*
X407155Y1005975D01*
X407934Y1004809D01*
X409100Y1004030D01*
X410475Y1003756D01*
X413525D01*
X414900Y1004030D01*
X416066Y1004809D01*
X416845Y1005975D01*
X417119Y1007350D01*
Y1008234D01*
X418292Y1008720D01*
X432481Y994531D01*
Y970249D01*
X431211Y969496D01*
X429995Y970000D01*
X428005D01*
X426329Y969305D01*
X425631Y969571D01*
X425059Y969926D01*
Y985338D01*
X425059Y985338D01*
X424826Y986508D01*
X424163Y987501D01*
X424163Y987501D01*
X417119Y994545D01*
Y996650D01*
X416845Y998025D01*
X416066Y999191D01*
X414900Y999970D01*
X413525Y1000244D01*
X410475D01*
X409100Y999970D01*
X407934Y999191D01*
X407155Y998025D01*
X406881Y996650D01*
Y993350D01*
X407155Y991975D01*
X407934Y990809D01*
X407955Y989576D01*
X407011Y988559D01*
X392898D01*
X392086Y989371D01*
X392000Y989829D01*
Y991000D01*
X392000Y991270D01*
Y994000D01*
X387000D01*
X382000D01*
Y991270D01*
X382000Y991000D01*
Y990000D01*
X381008Y989059D01*
X374845D01*
X347631Y1016272D01*
X346639Y1016935D01*
X345468Y1017168D01*
X345468Y1017168D01*
X336046D01*
Y1023751D01*
X349851D01*
X365765Y1007837D01*
D02*
G37*
G36*
X371415Y983837D02*
X371415Y983837D01*
X372407Y983174D01*
X373578Y982941D01*
X382000D01*
Y982000D01*
X392000D01*
Y982441D01*
X407062D01*
X407155Y981975D01*
X407934Y980809D01*
X409100Y980030D01*
X410475Y979756D01*
X413525D01*
X414900Y980030D01*
X416066Y980809D01*
X416845Y981975D01*
X417119Y983350D01*
Y983516D01*
X418389Y984138D01*
X418941Y983709D01*
Y968823D01*
X417809Y968066D01*
X417764Y967999D01*
X416236D01*
X416191Y968066D01*
X415025Y968846D01*
X413650Y969119D01*
X410350D01*
X408975Y968846D01*
X407809Y968066D01*
X407029Y966900D01*
X406756Y965525D01*
Y962475D01*
X407029Y961100D01*
X407809Y959934D01*
X408941Y959177D01*
Y955823D01*
X407809Y955066D01*
X407029Y953900D01*
X406756Y952525D01*
Y949475D01*
X407029Y948100D01*
X407809Y946934D01*
X408941Y946177D01*
Y942823D01*
X407809Y942066D01*
X407029Y940900D01*
X406756Y939525D01*
Y936475D01*
X407029Y935100D01*
X407809Y933934D01*
X408941Y933177D01*
Y913188D01*
X359059D01*
Y933177D01*
X360191Y933934D01*
X360970Y935100D01*
X361244Y936475D01*
Y939525D01*
X360970Y940900D01*
X360191Y942066D01*
X359059Y942823D01*
Y946177D01*
X360191Y946934D01*
X360970Y948100D01*
X361244Y949475D01*
Y952525D01*
X360970Y953900D01*
X360191Y955066D01*
X359059Y955823D01*
Y971177D01*
X360191Y971934D01*
X360970Y973100D01*
X361244Y974475D01*
Y977525D01*
X360970Y978900D01*
X360191Y980066D01*
X359059Y980823D01*
Y984177D01*
X360191Y984934D01*
X360970Y986100D01*
X361244Y987475D01*
Y990525D01*
X360970Y991900D01*
X360191Y993066D01*
X359025Y993846D01*
X357650Y994119D01*
X354350D01*
X352975Y993846D01*
X351809Y993066D01*
X351764Y992999D01*
X350236D01*
X350191Y993066D01*
X349025Y993846D01*
X347650Y994119D01*
X344350D01*
X342975Y993846D01*
X341809Y993066D01*
X341135Y992059D01*
X336046D01*
Y1007664D01*
Y1011051D01*
X344201D01*
X371415Y983837D01*
D02*
G37*
G36*
X341809Y971934D02*
X342975Y971154D01*
X344350Y970881D01*
X347650D01*
X349025Y971154D01*
X350191Y971934D01*
X350236Y972001D01*
X351764D01*
X351809Y971934D01*
X352941Y971177D01*
Y955823D01*
X351809Y955066D01*
X351764Y954999D01*
X350236D01*
X350191Y955066D01*
X349025Y955845D01*
X347650Y956119D01*
X344350D01*
X342975Y955845D01*
X341809Y955066D01*
X341135Y954059D01*
X336046D01*
Y969565D01*
Y972941D01*
X341135D01*
X341809Y971934D01*
D02*
G37*
G36*
X283831Y940329D02*
X283305Y939059D01*
X161040D01*
Y944941D01*
X279218D01*
X283831Y940329D01*
D02*
G37*
G36*
X558150Y914361D02*
X557664Y913188D01*
X415059Y913188D01*
Y926959D01*
X416329Y927212D01*
X416761Y926168D01*
X418168Y924761D01*
X420005Y924000D01*
X421995D01*
X423832Y924761D01*
X425239Y926168D01*
X426000Y928005D01*
Y929995D01*
X425239Y931832D01*
X425181Y931890D01*
X425163Y932035D01*
X425652Y933215D01*
X435274D01*
X435274Y933215D01*
X436445Y933448D01*
X437437Y934111D01*
X442243Y938917D01*
X442243Y938917D01*
X442906Y939909D01*
X443139Y941080D01*
X443139Y941080D01*
Y1015258D01*
X442906Y1016429D01*
X442243Y1017421D01*
X442243Y1017421D01*
X417119Y1042545D01*
Y1044650D01*
X416845Y1046025D01*
X416066Y1047191D01*
X414900Y1047971D01*
X413525Y1048244D01*
X410475D01*
X409100Y1047971D01*
X407934Y1047191D01*
X407155Y1046025D01*
X406881Y1044650D01*
Y1041350D01*
X407155Y1039975D01*
X407934Y1038809D01*
X407955Y1037577D01*
X407011Y1036559D01*
X392898D01*
X392086Y1037371D01*
X392000Y1037829D01*
Y1039000D01*
X392000Y1039270D01*
Y1042000D01*
X387000D01*
X382000D01*
Y1039270D01*
X382000Y1039000D01*
Y1038000D01*
X382000Y1037730D01*
Y1035443D01*
X368363D01*
X367977Y1036713D01*
X368163Y1036837D01*
X382163Y1050837D01*
X382163Y1050837D01*
X382826Y1051830D01*
X383059Y1053000D01*
X383059Y1053000D01*
Y1062330D01*
X410181D01*
X558150Y914361D01*
D02*
G37*
G36*
X78673Y909739D02*
X78147Y908469D01*
X69751D01*
X43493Y934727D01*
X43979Y935900D01*
X52511D01*
X78673Y909739D01*
D02*
G37*
G36*
X503001Y878673D02*
X502515Y877500D01*
X489826D01*
X476857Y890469D01*
X476554Y890671D01*
X476939Y891941D01*
X489733D01*
X503001Y878673D01*
D02*
G37*
G36*
X479978Y878696D02*
X479378Y877500D01*
X457800D01*
Y866123D01*
X335981D01*
X318079Y884025D01*
X318083Y884066D01*
X318653Y885247D01*
X473427D01*
X479978Y878696D01*
D02*
G37*
G36*
X279469Y869818D02*
X279918Y868558D01*
X276603Y865244D01*
X274285D01*
X272910Y864970D01*
X271744Y864191D01*
X270987Y863059D01*
X267633D01*
X266876Y864191D01*
X265710Y864970D01*
X264335Y865244D01*
X261285D01*
X259910Y864970D01*
X258744Y864191D01*
X257964Y863025D01*
X257691Y861650D01*
Y860388D01*
X256518Y859902D01*
X255902Y860518D01*
X254929Y861168D01*
Y861650D01*
X254655Y863025D01*
X253876Y864191D01*
X252710Y864970D01*
X251335Y865244D01*
X248890D01*
X248364Y866514D01*
X251678Y869828D01*
X279461D01*
X279469Y869818D01*
D02*
G37*
G36*
X344178Y814792D02*
X343692Y813619D01*
X342850D01*
X341475Y813345D01*
X340309Y812566D01*
X340264Y812499D01*
X338736D01*
X338691Y812566D01*
X337525Y813345D01*
X336150Y813619D01*
X332850D01*
X331475Y813345D01*
X330309Y812566D01*
X329802Y811809D01*
X326000D01*
Y813000D01*
X316000D01*
Y812059D01*
X313870D01*
X312700Y811826D01*
X311707Y811163D01*
X311707Y811163D01*
X287433Y786889D01*
X286539Y786981D01*
X285601Y787950D01*
Y791550D01*
X285399Y792564D01*
X285108Y793000D01*
X285399Y793436D01*
X285601Y794450D01*
Y796375D01*
X291973Y802747D01*
X292636Y803739D01*
X292869Y804910D01*
Y832000D01*
X293810D01*
Y842000D01*
X292369D01*
Y845470D01*
X292876Y845809D01*
X293655Y846975D01*
X293929Y848350D01*
Y850177D01*
X295154Y850748D01*
X296992Y849987D01*
X298981D01*
X300819Y850748D01*
X302225Y852154D01*
X302987Y853992D01*
Y854188D01*
X304257Y854714D01*
X344178Y814792D01*
D02*
G37*
G36*
X210934Y855809D02*
X211001Y855764D01*
Y854236D01*
X210934Y854191D01*
X210154Y853025D01*
X209881Y851650D01*
Y848350D01*
X210154Y846975D01*
X210934Y845809D01*
X211401Y845496D01*
Y840833D01*
X210695Y840126D01*
X209026D01*
X207188Y839365D01*
X205782Y837959D01*
X205020Y836121D01*
Y834132D01*
X205782Y832294D01*
X207188Y830888D01*
X209026Y830126D01*
X211015D01*
X212853Y830888D01*
X214259Y832294D01*
X214730Y833431D01*
X216000Y833178D01*
Y832000D01*
X219000D01*
Y837000D01*
X221000D01*
Y832000D01*
X224000D01*
Y832000D01*
X224754D01*
X226024Y831407D01*
Y767095D01*
X221222Y762293D01*
X220049Y762779D01*
Y799765D01*
X219816Y800935D01*
X219153Y801928D01*
X191193Y829887D01*
Y831236D01*
X191957Y832000D01*
X193000D01*
X193270Y832000D01*
X196000D01*
Y837000D01*
Y842000D01*
X193270D01*
X193000Y842000D01*
X192000D01*
X191559Y842441D01*
Y844962D01*
X191900Y845030D01*
X193066Y845809D01*
X193846Y846975D01*
X194119Y848350D01*
Y851177D01*
X195352Y851741D01*
X196881Y850211D01*
Y848350D01*
X197155Y846975D01*
X197934Y845809D01*
X199100Y845030D01*
X200475Y844756D01*
X203525D01*
X204900Y845030D01*
X206066Y845809D01*
X206845Y846975D01*
X207119Y848350D01*
Y851650D01*
X206845Y853025D01*
X206066Y854191D01*
X205999Y854236D01*
Y855764D01*
X206066Y855809D01*
X206823Y856941D01*
X210177D01*
X210934Y855809D01*
D02*
G37*
G36*
X341809Y933934D02*
X342975Y933155D01*
X344350Y932881D01*
X347650D01*
X349025Y933155D01*
X350191Y933934D01*
X350236Y934001D01*
X351764D01*
X351809Y933934D01*
X352941Y933177D01*
Y911968D01*
X352756Y911844D01*
X351761Y910356D01*
X351412Y908600D01*
X351761Y906844D01*
X352756Y905356D01*
X354244Y904361D01*
X356000Y904012D01*
X411000D01*
X565812Y904012D01*
Y877500D01*
X559400D01*
Y861552D01*
Y838500D01*
X569662D01*
Y836030D01*
X569258Y835719D01*
X568135Y834257D01*
X567430Y832554D01*
X567286Y831457D01*
X566151Y831177D01*
X565968Y831174D01*
X564140Y833002D01*
X561860Y834318D01*
X559317Y835000D01*
X556684D01*
X554140Y834318D01*
X551860Y833002D01*
X549998Y831140D01*
X548681Y828860D01*
X548000Y826317D01*
Y823683D01*
X548681Y821140D01*
X549998Y818860D01*
X551860Y816998D01*
X554140Y815682D01*
X554230Y815657D01*
Y814343D01*
X554140Y814318D01*
X551860Y813002D01*
X549998Y811140D01*
X548681Y808860D01*
X548000Y806317D01*
Y803683D01*
X548681Y801140D01*
X549998Y798860D01*
X551860Y796998D01*
X554140Y795682D01*
X554230Y795657D01*
Y794343D01*
X554140Y794318D01*
X551860Y793002D01*
X549998Y791140D01*
X548681Y788860D01*
X548000Y786317D01*
Y783683D01*
X548681Y781140D01*
X549998Y778860D01*
X551860Y776998D01*
X554140Y775682D01*
X556684Y775000D01*
X559317D01*
X561860Y775682D01*
X564140Y776998D01*
X565920Y778777D01*
X566512Y778723D01*
X567190Y778542D01*
Y686174D01*
X341076Y460060D01*
X251039D01*
Y501000D01*
Y504949D01*
X251119Y505350D01*
Y508650D01*
X251039Y509051D01*
Y510348D01*
X252148Y511285D01*
X262088D01*
X262869Y511440D01*
X263530Y511882D01*
X263972Y512543D01*
X264128Y513324D01*
Y519336D01*
X264127Y519338D01*
X264128Y519340D01*
X264050Y519727D01*
X263972Y520116D01*
X263971Y520118D01*
X263971Y520120D01*
X263753Y520444D01*
X263530Y520778D01*
X263528Y520779D01*
X263527Y520781D01*
X262627Y521677D01*
X262625Y521678D01*
X262624Y521680D01*
X262295Y521897D01*
X261964Y522117D01*
X261962Y522118D01*
X261960Y522119D01*
X261575Y522194D01*
X261184Y522271D01*
X261182Y522271D01*
X261179Y522271D01*
X247691Y522211D01*
X247525Y522244D01*
X244475D01*
X244231Y522196D01*
X242167Y522186D01*
X241781Y522108D01*
X241396Y522031D01*
X241392Y522029D01*
X241387Y522028D01*
X241060Y521807D01*
X240734Y521589D01*
X240731Y521585D01*
X240728Y521583D01*
X240510Y521254D01*
X240292Y520928D01*
X240291Y520923D01*
X240289Y520919D01*
X240214Y520533D01*
X240137Y520147D01*
Y518868D01*
X224030D01*
X223833Y518829D01*
X223632D01*
X223174Y518738D01*
X218625D01*
X218531Y518719D01*
X218435Y518729D01*
X218143Y518642D01*
X217845Y518582D01*
X217764Y518529D01*
X217672Y518501D01*
X217436Y518310D01*
X217183Y518140D01*
X217129Y518060D01*
X217055Y517999D01*
X216138Y516893D01*
X215994Y516626D01*
X215825Y516373D01*
X215806Y516278D01*
X215760Y516193D01*
X215729Y515891D01*
X215669Y515592D01*
Y513324D01*
X215825Y512543D01*
X216219Y511953D01*
X215934Y510693D01*
X215703Y510544D01*
X214679Y510205D01*
X212108Y512776D01*
X211446Y513218D01*
X211076Y514408D01*
Y516251D01*
X210921Y517031D01*
X210479Y517693D01*
X209817Y518135D01*
X209037Y518290D01*
X208431D01*
X208375Y518301D01*
X200625D01*
X200569Y518290D01*
X174500D01*
X173720Y518135D01*
X173518Y518000D01*
X172500D01*
Y516448D01*
X172461Y516251D01*
Y508000D01*
X172500Y507803D01*
Y506000D01*
X174303D01*
X174500Y505961D01*
X194416D01*
X194416Y505961D01*
X195196Y506116D01*
X195858Y506558D01*
X195858Y506558D01*
X196787Y507488D01*
X197961Y507002D01*
Y460060D01*
X123925D01*
X94060Y489925D01*
Y640412D01*
X307724D01*
X309480Y640761D01*
X310968Y641756D01*
X376567Y707354D01*
X377561Y708842D01*
X377910Y710598D01*
Y721953D01*
X377997Y722387D01*
Y758816D01*
Y792051D01*
X377648Y793807D01*
X376653Y795295D01*
X303390Y868558D01*
X303916Y869828D01*
X304123D01*
X304123Y869828D01*
X305294Y870061D01*
X306286Y870724D01*
X308506Y872944D01*
X310166D01*
X312003Y873705D01*
X313410Y875111D01*
X314171Y876949D01*
Y877485D01*
X315441Y878011D01*
X332551Y860901D01*
X332551Y860901D01*
X333543Y860238D01*
X334714Y860005D01*
X334714Y860005D01*
X457800D01*
Y838500D01*
X479800D01*
Y877078D01*
X480996Y877678D01*
X483200Y875474D01*
Y861552D01*
Y838500D01*
X505200D01*
Y874815D01*
X506373Y875301D01*
X508600Y873074D01*
Y861552D01*
Y838500D01*
X530600D01*
Y877500D01*
X512826D01*
X493163Y897163D01*
X492171Y897826D01*
X491000Y898059D01*
X491000Y898059D01*
X321267D01*
X317059Y902267D01*
Y904795D01*
X317060Y906065D01*
X336046D01*
Y918764D01*
Y931464D01*
Y934941D01*
X341135D01*
X341809Y933934D01*
D02*
G37*
G36*
X271744Y855809D02*
X271811Y855764D01*
Y854236D01*
X271744Y854191D01*
X270965Y853025D01*
X270691Y851650D01*
Y848350D01*
X270965Y846975D01*
X271744Y845809D01*
X272910Y845030D01*
X274285Y844756D01*
X277335D01*
X278710Y845030D01*
X279876Y845809D01*
X280655Y846975D01*
X280929Y848350D01*
Y849062D01*
X281866Y849688D01*
X282518Y850340D01*
X283691Y849854D01*
Y848350D01*
X283965Y846975D01*
X284744Y845809D01*
X285910Y845030D01*
X286251Y844962D01*
Y842441D01*
X285810Y842000D01*
X284810D01*
X284540Y842000D01*
X281810D01*
Y837000D01*
Y832000D01*
X284540D01*
X284810Y832000D01*
X285810D01*
X286751Y831008D01*
Y806177D01*
X281275Y800701D01*
X265150D01*
X264135Y800499D01*
X263276Y799924D01*
X262701Y799064D01*
X262499Y798050D01*
Y797231D01*
X261326Y796745D01*
X251869Y806202D01*
Y831206D01*
X252810Y832000D01*
X253810D01*
Y832000D01*
X256810D01*
Y837000D01*
X258810D01*
Y832000D01*
X261810D01*
Y837206D01*
X263080Y837732D01*
X263767Y837046D01*
X265604Y836284D01*
X267593D01*
X269431Y837046D01*
X270838Y838452D01*
X271599Y840290D01*
Y842279D01*
X270838Y844117D01*
X269694Y845260D01*
Y846653D01*
X269694Y846653D01*
X269461Y847824D01*
X268798Y848816D01*
X268798Y848816D01*
X267929Y849686D01*
Y851650D01*
X267655Y853025D01*
X266876Y854191D01*
X266809Y854236D01*
Y855764D01*
X266876Y855809D01*
X267633Y856941D01*
X270987D01*
X271744Y855809D01*
D02*
G37*
G36*
X329529Y805600D02*
X330309Y804434D01*
X331475Y803655D01*
X332850Y803381D01*
X335746D01*
X336289Y802328D01*
X336313Y802152D01*
X334930Y800769D01*
X332850D01*
X331475Y800496D01*
X330309Y799716D01*
X329529Y798550D01*
X329256Y797175D01*
Y794125D01*
X329529Y792750D01*
X329773Y792384D01*
X328761Y791372D01*
X328000Y789535D01*
Y787545D01*
X328761Y785708D01*
X330168Y784301D01*
X332005Y783540D01*
X333995D01*
X335832Y784301D01*
X337239Y785708D01*
X338000Y787545D01*
Y789535D01*
X337496Y790750D01*
X337525Y790805D01*
X338691Y791584D01*
X338736Y791651D01*
X340264D01*
X340309Y791584D01*
X341475Y790805D01*
X342850Y790531D01*
X346150D01*
X347525Y790805D01*
X348691Y791584D01*
X349365Y792591D01*
X366379D01*
X368820Y790150D01*
Y784726D01*
X367784Y784362D01*
X367550Y784349D01*
X366298Y785601D01*
X364702Y786523D01*
X362921Y787000D01*
X361078D01*
X359298Y786523D01*
X357702Y785601D01*
X356399Y784298D01*
X355477Y782702D01*
X355000Y780922D01*
Y779078D01*
X355477Y777298D01*
X356399Y775702D01*
X357702Y774399D01*
X359298Y773477D01*
X359393Y773452D01*
X359226Y772181D01*
X349713D01*
X349470Y773400D01*
X348691Y774566D01*
X347525Y775346D01*
X346150Y775619D01*
X342850D01*
X341475Y775346D01*
X340309Y774566D01*
X340264Y774499D01*
X338736D01*
X338691Y774566D01*
X337525Y775346D01*
X336150Y775619D01*
X333582D01*
X326163Y783038D01*
X325171Y783701D01*
X324000Y783934D01*
X324000Y783934D01*
X322137D01*
X320832Y785239D01*
X318995Y786000D01*
X317005D01*
X315168Y785239D01*
X313761Y783832D01*
X313000Y781994D01*
Y780005D01*
X313761Y778168D01*
X315168Y776761D01*
X317005Y776000D01*
X318995D01*
X320832Y776761D01*
X321887Y777816D01*
X322733D01*
X329256Y771293D01*
Y768975D01*
X329529Y767600D01*
X330309Y766434D01*
X331475Y765655D01*
X332850Y765381D01*
X334836D01*
X336359Y763857D01*
X336297Y763490D01*
X335801Y762619D01*
X332850D01*
X331475Y762346D01*
X330309Y761566D01*
X329802Y760809D01*
X326898D01*
X326707Y761000D01*
X326000Y762000D01*
Y763000D01*
X326000Y763270D01*
Y766000D01*
X321000D01*
X316000D01*
Y763270D01*
X316000Y763000D01*
Y762000D01*
X315008Y761059D01*
X313687D01*
X295833Y778913D01*
X294841Y779576D01*
X293671Y779809D01*
X293670Y779809D01*
X290656D01*
X290270Y781079D01*
X290283Y781087D01*
X314730Y805534D01*
X316000Y805008D01*
Y804000D01*
X316000Y803730D01*
Y801000D01*
X321000D01*
X326000D01*
Y803730D01*
X326000Y804000D01*
Y805000D01*
X327095Y805691D01*
X329511D01*
X329529Y805600D01*
D02*
G37*
G36*
X192399Y796375D02*
Y794450D01*
X192473Y794079D01*
X191661Y792886D01*
X191529Y792809D01*
X187250D01*
X186079Y792576D01*
X185087Y791913D01*
X154484Y761310D01*
X153500Y762122D01*
X153500Y762270D01*
Y765000D01*
X148500D01*
X143500D01*
Y762270D01*
X143500Y762000D01*
Y761000D01*
X142404Y760309D01*
X139989D01*
X139971Y760400D01*
X139191Y761566D01*
X138025Y762346D01*
X136650Y762619D01*
X133973D01*
X133447Y763889D01*
X134939Y765381D01*
X136650D01*
X138025Y765655D01*
X139191Y766434D01*
X139971Y767600D01*
X140244Y768975D01*
Y772025D01*
X139971Y773400D01*
X139191Y774566D01*
X138250Y775196D01*
Y777702D01*
X139111Y778564D01*
X140076D01*
X141914Y779325D01*
X143320Y780731D01*
X144082Y782569D01*
Y784558D01*
X143320Y786396D01*
X141914Y787802D01*
X140076Y788564D01*
X138216D01*
X137723Y788871D01*
X137106Y789393D01*
X137114Y790391D01*
X137647Y790729D01*
X138025Y790805D01*
X139191Y791584D01*
X139971Y792750D01*
X140244Y794125D01*
Y797175D01*
X139971Y798550D01*
X139191Y799716D01*
X138025Y800496D01*
X136650Y800769D01*
X135346D01*
X135312Y800820D01*
X135312Y800820D01*
X134021Y802111D01*
X134547Y803381D01*
X136650D01*
X138025Y803655D01*
X139191Y804434D01*
X139971Y805600D01*
X139989Y805691D01*
X142809D01*
X143500Y805000D01*
Y804000D01*
X143500Y803730D01*
Y801000D01*
X148500D01*
X153500D01*
Y803730D01*
X153500Y804000D01*
Y805000D01*
X154492Y805941D01*
X182833D01*
X192399Y796375D01*
D02*
G37*
G36*
X176826Y862357D02*
X175761Y861292D01*
X175000Y859455D01*
Y857465D01*
X175761Y855628D01*
X177168Y854221D01*
X179005Y853460D01*
X180995D01*
X182832Y854221D01*
X183731Y855120D01*
X183964Y855099D01*
X184078Y855022D01*
X184934Y854191D01*
X184154Y853025D01*
X183881Y851650D01*
Y848350D01*
X184154Y846975D01*
X184934Y845809D01*
X185441Y845469D01*
Y842000D01*
X184000D01*
Y832000D01*
X184941D01*
Y828755D01*
X184941Y828755D01*
X185174Y827584D01*
X185837Y826592D01*
X210555Y801874D01*
X210069Y800701D01*
X196725D01*
X186263Y811163D01*
X185271Y811826D01*
X184100Y812059D01*
X184100Y812059D01*
X153500D01*
Y813000D01*
X143500D01*
Y811809D01*
X139698D01*
X139191Y812566D01*
X138025Y813345D01*
X136650Y813619D01*
X133350D01*
X131975Y813345D01*
X130809Y812566D01*
X130764Y812499D01*
X129236D01*
X129191Y812566D01*
X128025Y813345D01*
X126650Y813619D01*
X123350D01*
X121975Y813345D01*
X120809Y812566D01*
X120029Y811400D01*
X119756Y810025D01*
Y806975D01*
X120029Y805600D01*
X120809Y804434D01*
X121975Y803655D01*
X123350Y803381D01*
X124295D01*
X124688Y802792D01*
X125441Y802039D01*
X124915Y800769D01*
X123350D01*
X121975Y800496D01*
X120980Y799831D01*
X119817Y799284D01*
X118329Y800279D01*
X116573Y800628D01*
X107427D01*
X105671Y800279D01*
X105610Y800238D01*
X94060D01*
Y849505D01*
X93994Y850010D01*
X107611Y863627D01*
X176342D01*
X176826Y862357D01*
D02*
G37*
G36*
X368820Y759078D02*
Y732691D01*
X367550Y731969D01*
X366721Y732134D01*
X366721Y732134D01*
X349702D01*
X349470Y733300D01*
X348691Y734466D01*
X347525Y735245D01*
X346150Y735519D01*
X345249D01*
X344954Y736231D01*
X344844Y736789D01*
X345475Y737734D01*
X345584Y738281D01*
X346150D01*
X347525Y738555D01*
X348691Y739334D01*
X349470Y740500D01*
X349744Y741875D01*
Y744925D01*
X349470Y746300D01*
X348691Y747466D01*
X347525Y748245D01*
X346150Y748519D01*
X342850D01*
X341475Y748245D01*
X340309Y747466D01*
X340264Y747399D01*
X338736D01*
X338691Y747466D01*
X337525Y748245D01*
X336150Y748519D01*
X332850D01*
X331475Y748245D01*
X330309Y747466D01*
X329836Y746759D01*
X326000D01*
Y748000D01*
X320326D01*
X315310Y753016D01*
X316122Y754000D01*
X326000D01*
Y754691D01*
X329511D01*
X329529Y754600D01*
X330309Y753434D01*
X331475Y752655D01*
X332850Y752381D01*
X336150D01*
X337525Y752655D01*
X338691Y753434D01*
X338736Y753501D01*
X340264D01*
X340309Y753434D01*
X341475Y752655D01*
X342850Y752381D01*
X346150D01*
X347525Y752655D01*
X348691Y753434D01*
X349470Y754600D01*
X349744Y755975D01*
Y759025D01*
X349470Y760400D01*
X348691Y761566D01*
X347525Y762346D01*
X346150Y762619D01*
X345564D01*
X345475Y763064D01*
X344812Y764056D01*
X344812Y764056D01*
X344660Y764208D01*
X345146Y765381D01*
X346150D01*
X347525Y765655D01*
X348138Y766064D01*
X361835D01*
X368820Y759078D01*
D02*
G37*
G36*
X105271Y790702D02*
X105529Y789792D01*
X104545Y788088D01*
X104000Y786053D01*
Y783947D01*
X104545Y781912D01*
X105598Y780088D01*
X107088Y778598D01*
X108912Y777545D01*
X110947Y777000D01*
X113053D01*
X115088Y777545D01*
X116912Y778598D01*
X118401Y780088D01*
X119455Y781912D01*
X119591Y782421D01*
X120861Y782254D01*
Y774602D01*
X120809Y774566D01*
X120029Y773400D01*
X119756Y772025D01*
Y768975D01*
X120029Y767600D01*
X120809Y766434D01*
X121975Y765655D01*
X123350Y765381D01*
X124628D01*
X125114Y764208D01*
X124688Y763781D01*
X124025Y762789D01*
X123991Y762619D01*
X123350D01*
X121975Y762346D01*
X120809Y761566D01*
X120029Y760400D01*
X119756Y759025D01*
Y755975D01*
X120029Y754600D01*
X120809Y753434D01*
X121975Y752655D01*
X123350Y752381D01*
X126650D01*
X128025Y752655D01*
X129191Y753434D01*
X129236Y753501D01*
X130764D01*
X130809Y753434D01*
X131975Y752655D01*
X133350Y752381D01*
X136650D01*
X138025Y752655D01*
X139191Y753434D01*
X139698Y754191D01*
X143500D01*
Y753000D01*
X152378D01*
X152904Y751730D01*
X149174Y748000D01*
X143500D01*
Y746759D01*
X139664D01*
X139191Y747466D01*
X138025Y748245D01*
X136650Y748519D01*
X133350D01*
X131975Y748245D01*
X130809Y747466D01*
X130764Y747399D01*
X129236D01*
X129191Y747466D01*
X128025Y748245D01*
X126650Y748519D01*
X123350D01*
X121975Y748245D01*
X120809Y747466D01*
X120029Y746300D01*
X119756Y744925D01*
Y741875D01*
X120029Y740500D01*
X120809Y739334D01*
X121975Y738555D01*
X123350Y738281D01*
X125352D01*
X126873Y736760D01*
X126797Y736338D01*
X126318Y735519D01*
X123350D01*
X121975Y735245D01*
X120809Y734466D01*
X120135Y733459D01*
X118799D01*
X118006Y733989D01*
X116250Y734338D01*
X94060D01*
Y791062D01*
X105122D01*
X105271Y790702D01*
D02*
G37*
G36*
X245984Y803765D02*
X246647Y802772D01*
X261272Y788147D01*
X261272Y788147D01*
X262265Y787484D01*
X262332Y787470D01*
X262835Y786266D01*
X262701Y786064D01*
X262499Y785050D01*
Y781450D01*
X262701Y780435D01*
X262992Y780000D01*
X262701Y779564D01*
X262499Y778550D01*
Y774950D01*
X262701Y773935D01*
X262992Y773500D01*
X262701Y773064D01*
X262499Y772050D01*
Y768450D01*
X262701Y767436D01*
X262992Y767000D01*
X262701Y766564D01*
X262499Y765550D01*
Y761950D01*
X262701Y760936D01*
X262835Y760734D01*
X262332Y759529D01*
X262265Y759516D01*
X261272Y758853D01*
X261272Y758853D01*
X236108Y733689D01*
X235445Y732697D01*
X235213Y731526D01*
X235213Y731526D01*
Y687447D01*
X234039Y686961D01*
X217530Y703471D01*
X216538Y704134D01*
X215367Y704366D01*
X215367Y704366D01*
X193834D01*
X181471Y716730D01*
X181997Y718000D01*
X185000D01*
Y722000D01*
X186000D01*
Y723000D01*
X191000D01*
Y725730D01*
X191000Y726000D01*
Y726628D01*
X191174Y726694D01*
X191206Y726691D01*
X192399Y725801D01*
Y725750D01*
X203950D01*
X215501D01*
Y726550D01*
X215299Y727564D01*
X215008Y728000D01*
X215299Y728436D01*
X215501Y729450D01*
Y733050D01*
X215427Y733421D01*
X216239Y734614D01*
X216371Y734691D01*
X219235D01*
X219235Y734691D01*
X220406Y734924D01*
X221398Y735587D01*
X243753Y757942D01*
X243753Y757942D01*
X244416Y758934D01*
X244649Y760105D01*
Y803968D01*
X245919Y804093D01*
X245984Y803765D01*
D02*
G37*
G36*
X192399Y758277D02*
Y755450D01*
X192601Y754436D01*
X192892Y754000D01*
X192601Y753564D01*
X192399Y752550D01*
Y748950D01*
X192601Y747935D01*
X192892Y747500D01*
X192601Y747064D01*
X192399Y746050D01*
Y742450D01*
X192601Y741435D01*
X192892Y741000D01*
X192601Y740564D01*
X192399Y739550D01*
Y735950D01*
X191378Y735017D01*
X191000Y735000D01*
X191000Y735000D01*
X181000D01*
Y734059D01*
X177823D01*
X177066Y735191D01*
X175900Y735970D01*
X174525Y736244D01*
X171475D01*
X170100Y735970D01*
X170077Y735956D01*
X169268Y736942D01*
X191129Y758803D01*
X192399Y758277D01*
D02*
G37*
G36*
X340309Y726334D02*
X341475Y725555D01*
X342850Y725281D01*
X346150D01*
X347525Y725555D01*
X348216Y726016D01*
X365454D01*
X368778Y722692D01*
X368734Y722473D01*
Y712499D01*
X366694Y710459D01*
X349365D01*
X348691Y711466D01*
X347525Y712245D01*
X346150Y712519D01*
X342850D01*
X341475Y712245D01*
X340309Y711466D01*
X340264Y711399D01*
X338736D01*
X338691Y711466D01*
X338583Y711539D01*
X338327Y713079D01*
X339089Y714917D01*
Y716906D01*
X338327Y718744D01*
X336921Y720150D01*
X335083Y720911D01*
X334175D01*
X333735Y721571D01*
Y723560D01*
X333541Y724028D01*
X334397Y725281D01*
X336150D01*
X337525Y725555D01*
X338691Y726334D01*
X338736Y726401D01*
X340264D01*
X340309Y726334D01*
D02*
G37*
G36*
X143500Y740000D02*
Y739000D01*
X143500Y738730D01*
Y736000D01*
X148500D01*
Y735000D01*
X149500D01*
Y731000D01*
X153500Y731000D01*
X153773Y729843D01*
Y708157D01*
X153500Y707000D01*
X149500D01*
Y703000D01*
X147500D01*
Y707000D01*
X143500D01*
X143500Y707000D01*
X142278Y707116D01*
X140955Y707664D01*
X140924Y707739D01*
X141294Y708653D01*
X141739Y709100D01*
X142455D01*
X144292Y709861D01*
X145699Y711267D01*
X146460Y713105D01*
Y715094D01*
X145699Y716932D01*
X144292Y718338D01*
X142455Y719100D01*
X141224D01*
X139082Y721242D01*
Y726261D01*
X139191Y726334D01*
X139971Y727500D01*
X140244Y728875D01*
Y731925D01*
X139971Y733300D01*
X139191Y734466D01*
X138025Y735245D01*
X136650Y735519D01*
X136067D01*
X135975Y735980D01*
X135312Y736973D01*
X135177Y737108D01*
X135663Y738281D01*
X136650D01*
X138025Y738555D01*
X139191Y739334D01*
X139971Y740500D01*
X139999Y740641D01*
X142859D01*
X143500Y740000D01*
D02*
G37*
G36*
X316000Y743674D02*
Y740270D01*
X316000Y740000D01*
Y739000D01*
X316000Y738730D01*
Y736000D01*
X321000D01*
X326000D01*
Y738730D01*
X326000Y739000D01*
Y740000D01*
X327116Y740641D01*
X329501D01*
X329529Y740500D01*
X330309Y739334D01*
X331475Y738555D01*
X332850Y738281D01*
X335904D01*
X336303Y737691D01*
X336468Y737049D01*
X334938Y735519D01*
X332850D01*
X331475Y735245D01*
X330309Y734466D01*
X329529Y733300D01*
X329256Y731925D01*
Y729607D01*
X327337Y727688D01*
X327070Y727287D01*
X325903Y726804D01*
X324496Y725397D01*
X323735Y723560D01*
Y721571D01*
X324496Y719733D01*
X325903Y718326D01*
X327740Y717565D01*
X328648D01*
X329089Y716906D01*
Y714917D01*
X329850Y713079D01*
X330412Y712517D01*
X330309Y711466D01*
X329529Y710300D01*
X329256Y708925D01*
Y705875D01*
X329529Y704500D01*
X330309Y703334D01*
X331475Y702554D01*
X332850Y702281D01*
X334264D01*
X335756Y700789D01*
X335230Y699519D01*
X332850D01*
X331475Y699245D01*
X330309Y698466D01*
X329529Y697300D01*
X329521Y697259D01*
X326963D01*
X326000Y698000D01*
Y699000D01*
X326000D01*
Y702000D01*
X321000D01*
Y703000D01*
X320000D01*
Y707000D01*
X316000D01*
Y703979D01*
X314827Y703493D01*
X313059Y705261D01*
Y744750D01*
X313041Y744837D01*
X314212Y745462D01*
X316000Y743674D01*
D02*
G37*
G36*
X262499Y743269D02*
Y742450D01*
X262701Y741435D01*
X262992Y741000D01*
X262701Y740564D01*
X262499Y739550D01*
Y738750D01*
X274050D01*
X285601D01*
Y739550D01*
X285399Y740564D01*
X286096Y741751D01*
X288041D01*
X289000Y741000D01*
Y738000D01*
X294000D01*
Y737000D01*
X295000D01*
Y733000D01*
X299000D01*
X299662Y732004D01*
Y697365D01*
X298392Y696594D01*
X298345Y696614D01*
X297294Y697302D01*
X298000Y699005D01*
Y700994D01*
X297239Y702832D01*
X295832Y704239D01*
X294420Y704824D01*
X294398Y704857D01*
X291282Y707973D01*
X290289Y708636D01*
X289119Y708869D01*
X289119Y708869D01*
X286681D01*
X285601Y709950D01*
Y713550D01*
X285399Y714564D01*
X285108Y715000D01*
X285399Y715435D01*
X285601Y716450D01*
Y720050D01*
X285399Y721064D01*
X285108Y721500D01*
X285399Y721936D01*
X285601Y722950D01*
Y726550D01*
X285399Y727564D01*
X285108Y728000D01*
X285399Y728436D01*
X285601Y729450D01*
Y733050D01*
X285399Y734064D01*
X285108Y734500D01*
X285399Y734936D01*
X285601Y735950D01*
Y736750D01*
X274050D01*
X262499D01*
Y735950D01*
X262701Y734936D01*
X262992Y734500D01*
X262701Y734064D01*
X262499Y733050D01*
Y731460D01*
X261229Y730611D01*
X260253Y731016D01*
X258264D01*
X256426Y730255D01*
X255019Y728848D01*
X254258Y727010D01*
Y725021D01*
X255019Y723184D01*
X255471Y722731D01*
X255224Y721486D01*
X255007Y721396D01*
X253600Y719989D01*
X252839Y718152D01*
Y716163D01*
X253600Y714325D01*
X255007Y712918D01*
X255216Y711868D01*
X254896Y711548D01*
X254135Y709711D01*
Y707721D01*
X254896Y705884D01*
X255875Y704905D01*
X255781Y704431D01*
X254375Y703024D01*
X253613Y701187D01*
Y699197D01*
X254117Y697981D01*
X253364Y696711D01*
X251487D01*
X249837Y698360D01*
Y732266D01*
X261326Y743755D01*
X262499Y743269D01*
D02*
G37*
G36*
X170100Y716030D02*
X171475Y715756D01*
X173793D01*
X190404Y699145D01*
X191397Y698482D01*
X192567Y698249D01*
X192568Y698249D01*
X214100D01*
X216020Y696329D01*
X215494Y695059D01*
X186267D01*
X168059Y713267D01*
Y715982D01*
X168105Y716025D01*
X169329Y716545D01*
X170100Y716030D01*
D02*
G37*
G36*
X185000Y688941D02*
X185000Y688941D01*
X215905D01*
X220673Y684173D01*
X220187Y683000D01*
X216000D01*
Y679000D01*
X220000D01*
Y678000D01*
X221000D01*
Y673000D01*
X224000D01*
Y673000D01*
X224171D01*
X225441Y671913D01*
Y670038D01*
X225100Y669970D01*
X223934Y669191D01*
X223155Y668025D01*
X222881Y666650D01*
Y665143D01*
X221611Y664617D01*
X220901Y665327D01*
X220119Y665850D01*
Y666650D01*
X219846Y668025D01*
X219066Y669191D01*
X217900Y669970D01*
X216525Y670244D01*
X213475D01*
X212514Y670053D01*
X211435Y670500D01*
X209445D01*
X207608Y669739D01*
X206958Y669089D01*
X205916Y669191D01*
X204750Y669970D01*
X203375Y670244D01*
X200325D01*
X198950Y669970D01*
X197784Y669191D01*
X197005Y668025D01*
X196731Y666650D01*
Y665102D01*
X195389Y663760D01*
X194119Y664286D01*
Y666650D01*
X193846Y668025D01*
X193066Y669191D01*
X191900Y669970D01*
X191559Y670038D01*
Y672559D01*
X192000Y673000D01*
X193000D01*
X193270Y673000D01*
X196000D01*
Y678000D01*
Y683000D01*
X193270D01*
X193000Y683000D01*
X192000D01*
X191730Y683000D01*
X188276D01*
X183436Y687840D01*
X183838Y689101D01*
X183915Y689157D01*
X185000Y688941D01*
D02*
G37*
G36*
X120767Y726339D02*
X120877Y726288D01*
X121941Y725577D01*
Y712223D01*
X120809Y711466D01*
X120029Y710300D01*
X119756Y708925D01*
Y705875D01*
X120029Y704500D01*
X120809Y703334D01*
X121975Y702554D01*
X123350Y702281D01*
X124368D01*
X124854Y701108D01*
X124688Y700941D01*
X124025Y699949D01*
X123939Y699519D01*
X123350D01*
X121975Y699245D01*
X120809Y698466D01*
X120029Y697300D01*
X119756Y695925D01*
Y692875D01*
X120029Y691500D01*
X120809Y690334D01*
X121975Y689555D01*
X123350Y689281D01*
X126650D01*
X128025Y689555D01*
X129191Y690334D01*
X129236Y690401D01*
X130764D01*
X130809Y690334D01*
X131975Y689555D01*
X133350Y689281D01*
X136650D01*
X138025Y689555D01*
X139191Y690334D01*
X139731Y691141D01*
X143500D01*
Y690000D01*
X153500D01*
Y693674D01*
X155110Y695284D01*
X155129Y695297D01*
X158995Y699163D01*
X158995Y699163D01*
X159658Y700155D01*
X159826Y701002D01*
X161035Y701589D01*
X184000Y678624D01*
Y673000D01*
X185441D01*
Y669530D01*
X184934Y669191D01*
X184154Y668025D01*
X183881Y666650D01*
Y663350D01*
X184154Y661975D01*
X184934Y660809D01*
X184274Y659722D01*
X183878Y659293D01*
X182462D01*
X182239Y659832D01*
X180832Y661239D01*
X178995Y662000D01*
X177005D01*
X175168Y661239D01*
X173761Y659832D01*
X173000Y657995D01*
Y656005D01*
X173761Y654168D01*
X175168Y652761D01*
X177005Y652000D01*
X178995D01*
X180832Y652761D01*
X181247Y653176D01*
X183916D01*
X184154Y651975D01*
X184900Y650858D01*
X184843Y650567D01*
X184474Y649588D01*
X94060D01*
Y725162D01*
X116250D01*
X118006Y725511D01*
X119494Y726506D01*
X120767Y726339D01*
D02*
G37*
G36*
X272133Y674619D02*
Y669452D01*
X271744Y669191D01*
X270965Y668025D01*
X270691Y666650D01*
Y663350D01*
X270965Y661975D01*
X271744Y660809D01*
X271811Y660764D01*
Y659236D01*
X271744Y659191D01*
X270987Y658059D01*
X267633D01*
X266876Y659191D01*
X266809Y659236D01*
Y660764D01*
X266876Y660809D01*
X267655Y661975D01*
X267929Y663350D01*
Y666650D01*
X267655Y668025D01*
X266876Y669191D01*
X265710Y669970D01*
X264335Y670244D01*
X261285D01*
X259910Y669970D01*
X258744Y669191D01*
X257964Y668025D01*
X257691Y666650D01*
Y664868D01*
X256199Y663376D01*
X254929Y663902D01*
Y666650D01*
X254655Y668025D01*
X253876Y669191D01*
X252710Y669970D01*
X252369Y670038D01*
Y672559D01*
X252810Y673000D01*
X253810D01*
X254080Y673000D01*
X256810D01*
Y678000D01*
Y683000D01*
X254080D01*
X253810Y683000D01*
X252810D01*
X252540Y683000D01*
X250056D01*
X249373Y684155D01*
X249915Y685280D01*
X261472D01*
X272133Y674619D01*
D02*
G37*
G36*
X314371Y695297D02*
X314371Y695297D01*
X314390Y695285D01*
X316000Y693674D01*
Y690000D01*
X326000D01*
Y691141D01*
X329769D01*
X330309Y690334D01*
X331475Y689555D01*
X332850Y689281D01*
X336150D01*
X337525Y689555D01*
X338691Y690334D01*
X338736Y690401D01*
X340264D01*
X340309Y690334D01*
X341475Y689555D01*
X342850Y689281D01*
X343857D01*
X344343Y688108D01*
X310012Y653776D01*
X308838Y654262D01*
Y699170D01*
X310012Y699656D01*
X314371Y695297D01*
D02*
G37*
G36*
X293378Y687848D02*
X295215Y687086D01*
X297205D01*
X298392Y687578D01*
X299662Y686808D01*
Y653901D01*
X295350Y649588D01*
X293336D01*
X292967Y650567D01*
X292910Y650858D01*
X293655Y651975D01*
X293929Y653350D01*
Y656650D01*
X293655Y658025D01*
X292876Y659191D01*
X292809Y659236D01*
Y660764D01*
X292876Y660809D01*
X293655Y661975D01*
X293929Y663350D01*
Y666650D01*
X293655Y668025D01*
X292876Y669191D01*
X292369Y669530D01*
Y673000D01*
X293810D01*
Y683000D01*
X292869D01*
Y685469D01*
X292636Y686640D01*
X292327Y687103D01*
X293313Y687912D01*
X293378Y687848D01*
D02*
G37*
G36*
X262088Y519336D02*
Y513324D01*
X217708D01*
Y515592D01*
X218625Y516698D01*
X223375D01*
X224030Y516829D01*
X242176D01*
Y520147D01*
X261188Y520232D01*
X262088Y519336D01*
D02*
G37*
G36*
X209037Y514408D02*
X208375Y513301D01*
X200625D01*
X200331Y513243D01*
X199659D01*
X199338Y512922D01*
X198732Y512517D01*
X198328Y511912D01*
X194416Y508000D01*
X174500D01*
Y516251D01*
X209037D01*
Y514408D01*
D02*
G37*
G36*
X210666Y511334D02*
X216000Y506000D01*
X239000D01*
X243348Y510348D01*
X249000D01*
Y501000D01*
Y448000D01*
X200000D01*
Y510756D01*
X200023Y510779D01*
X200203Y511047D01*
X200471Y511227D01*
X200477Y511233D01*
X200529Y511243D01*
X200729D01*
X200826Y511262D01*
X208375D01*
X208621Y511311D01*
X208872Y511324D01*
X208894Y511334D01*
X210666D01*
D02*
G37*
G36*
X167415Y1200000D02*
X167540Y1198730D01*
X167241Y1198670D01*
X165752Y1197676D01*
X116756Y1148679D01*
X115761Y1147191D01*
X115412Y1145435D01*
Y1056588D01*
X45000D01*
X43244Y1056239D01*
X41756Y1055244D01*
X24982Y1038471D01*
X23809Y1038957D01*
Y1044483D01*
X44412Y1065086D01*
X44759Y1064981D01*
X44860Y1064971D01*
X44953Y1064932D01*
X46399Y1064644D01*
X46500D01*
X46596Y1064615D01*
X48063Y1064471D01*
X48164Y1064481D01*
X48263Y1064461D01*
X49000D01*
X49737Y1064461D01*
X49836Y1064481D01*
X49937Y1064471D01*
X51403Y1064615D01*
X51500Y1064644D01*
X51601D01*
X53047Y1064932D01*
X53140Y1064971D01*
X53241Y1064981D01*
X54651Y1065408D01*
X54741Y1065456D01*
X54840Y1065476D01*
X56201Y1066040D01*
X56285Y1066096D01*
X56382Y1066125D01*
X57682Y1066820D01*
X57760Y1066884D01*
X57854Y1066923D01*
X59079Y1067742D01*
X59151Y1067813D01*
X59240Y1067861D01*
X60379Y1068796D01*
X60443Y1068874D01*
X60527Y1068930D01*
X61569Y1069973D01*
X61626Y1070057D01*
X61704Y1070121D01*
X62639Y1071260D01*
X62687Y1071349D01*
X62758Y1071421D01*
X63577Y1072646D01*
X63616Y1072740D01*
X63680Y1072818D01*
X64374Y1074118D01*
X64404Y1074214D01*
X64460Y1074298D01*
X65024Y1075660D01*
X65044Y1075759D01*
X65092Y1075848D01*
X65519Y1077259D01*
X65529Y1077359D01*
X65568Y1077453D01*
X65855Y1078898D01*
Y1079000D01*
X65885Y1079096D01*
X66029Y1080563D01*
X66019Y1080664D01*
X66039Y1080763D01*
Y1081500D01*
X66039Y1081500D01*
X66025Y1081572D01*
X66034Y1081645D01*
X65948Y1081960D01*
X65884Y1082280D01*
X65843Y1082341D01*
X65824Y1082412D01*
X65624Y1082670D01*
X65442Y1082942D01*
X65381Y1082983D01*
X65336Y1083040D01*
X65052Y1083202D01*
X64853Y1083335D01*
X64756Y1084088D01*
X64854Y1084666D01*
X65442Y1085058D01*
X65884Y1085720D01*
X66039Y1086500D01*
Y1087237D01*
X66019Y1087336D01*
X66029Y1087437D01*
X65885Y1088904D01*
X65855Y1089000D01*
Y1089101D01*
X65568Y1090547D01*
X65529Y1090640D01*
X65519Y1090741D01*
X65092Y1092151D01*
X65044Y1092241D01*
X65024Y1092340D01*
X64751Y1093000D01*
X49000D01*
X33249D01*
X32976Y1092340D01*
X32956Y1092241D01*
X32908Y1092151D01*
X32481Y1090741D01*
X32471Y1090640D01*
X32432Y1090547D01*
X32144Y1089101D01*
Y1089000D01*
X32115Y1088904D01*
X31971Y1087437D01*
X31981Y1087336D01*
X31961Y1087237D01*
Y1086500D01*
X31961Y1086500D01*
X31975Y1086428D01*
X31966Y1086356D01*
X32052Y1086040D01*
X32116Y1085720D01*
X32157Y1085659D01*
X32176Y1085588D01*
X32376Y1085330D01*
X32558Y1085058D01*
X32619Y1085017D01*
X32664Y1084959D01*
X32948Y1084798D01*
X33147Y1084664D01*
X33244Y1083913D01*
X33145Y1083334D01*
X32558Y1082942D01*
X32116Y1082280D01*
X31961Y1081500D01*
Y1080763D01*
X31981Y1080664D01*
X31971Y1080563D01*
X32115Y1079097D01*
X32144Y1079000D01*
Y1078898D01*
X32432Y1077453D01*
X32471Y1077360D01*
X32481Y1077259D01*
X32908Y1075849D01*
X32956Y1075759D01*
X32976Y1075660D01*
X33540Y1074298D01*
X33596Y1074214D01*
X33625Y1074118D01*
X34320Y1072818D01*
X34384Y1072740D01*
X34423Y1072646D01*
X35242Y1071421D01*
X35313Y1071349D01*
X35361Y1071260D01*
X36296Y1070121D01*
X36374Y1070057D01*
X36430Y1069973D01*
X37473Y1068930D01*
X37557Y1068874D01*
X37621Y1068796D01*
X37906Y1068562D01*
X37968Y1067294D01*
X18587Y1047913D01*
X17924Y1046920D01*
X17691Y1045750D01*
X17691Y1045750D01*
Y953144D01*
X17691Y953144D01*
X17924Y951973D01*
X18587Y950981D01*
X66321Y903247D01*
X66321Y903247D01*
X67313Y902584D01*
X68484Y902351D01*
X123822D01*
X123822Y902351D01*
X124993Y902584D01*
X125985Y903247D01*
X129619Y906881D01*
X131650D01*
X133025Y907154D01*
X134191Y907934D01*
X134865Y908941D01*
X142054D01*
Y906065D01*
X161040D01*
Y918764D01*
Y932941D01*
X282733D01*
X304941Y910733D01*
Y898515D01*
X304941Y898515D01*
X305174Y897344D01*
X305837Y896352D01*
X309941Y892248D01*
X309937Y892207D01*
X309367Y891026D01*
X302645D01*
Y899000D01*
X296200D01*
Y900000D01*
X295200D01*
Y909493D01*
X175974D01*
Y912721D01*
X181473Y918221D01*
X182005Y918000D01*
X183995D01*
X185832Y918761D01*
X187239Y920168D01*
X188000Y922005D01*
Y923995D01*
X187239Y925832D01*
X185832Y927239D01*
X183995Y928000D01*
X182005D01*
X180168Y927239D01*
X178761Y925832D01*
X178000Y923995D01*
Y923399D01*
X170752Y916151D01*
X170089Y915159D01*
X169856Y913988D01*
X169856Y913988D01*
Y890627D01*
X169856Y890627D01*
X170089Y889456D01*
X170752Y888464D01*
X173412Y885804D01*
X174404Y885141D01*
X175575Y884908D01*
X175575Y884908D01*
X295252D01*
X295931Y883638D01*
X295829Y883486D01*
X249466D01*
X249466Y883486D01*
X248295Y883253D01*
X247303Y882590D01*
X247303Y882590D01*
X233427Y868714D01*
X232764Y867722D01*
X232531Y866551D01*
X232531Y866551D01*
Y865408D01*
X231261Y864729D01*
X230900Y864970D01*
X229525Y865244D01*
X226475D01*
X225100Y864970D01*
X223934Y864191D01*
X223155Y863025D01*
X222881Y861650D01*
Y859930D01*
X221389Y858438D01*
X220119Y858964D01*
Y861650D01*
X219846Y863025D01*
X219066Y864191D01*
X217900Y864970D01*
X216525Y865244D01*
X213475D01*
X212100Y864970D01*
X210934Y864191D01*
X210177Y863059D01*
X206823D01*
X206066Y864191D01*
X204900Y864970D01*
X203525Y865244D01*
X201207D01*
X198455Y867996D01*
X198498Y868215D01*
X198149Y869971D01*
X197154Y871459D01*
X195666Y872454D01*
X193910Y872803D01*
X105710D01*
X103954Y872454D01*
X102466Y871459D01*
X87505Y856499D01*
X87000Y856565D01*
X85173Y856325D01*
X83470Y855619D01*
X82008Y854497D01*
X80885Y853035D01*
X80180Y851332D01*
X79940Y849505D01*
Y795650D01*
Y729750D01*
Y645000D01*
Y487000D01*
X80180Y485173D01*
X80885Y483470D01*
X82008Y482008D01*
X116008Y448008D01*
X117470Y446885D01*
X119173Y446180D01*
X121000Y445940D01*
X204000D01*
X204161Y445961D01*
X244839D01*
X245000Y445940D01*
X344000D01*
X345827Y446180D01*
X347530Y446885D01*
X348993Y448008D01*
X579243Y678258D01*
X580364Y679720D01*
X581070Y681423D01*
X581310Y683250D01*
Y830727D01*
X581070Y832554D01*
X580364Y834257D01*
X579243Y835719D01*
X578838Y836030D01*
Y838500D01*
X581400D01*
Y877500D01*
X574988D01*
Y908600D01*
X574639Y910356D01*
X573644Y911844D01*
X415326Y1070163D01*
X413838Y1071157D01*
X412082Y1071506D01*
X385452D01*
Y1115887D01*
X385103Y1117642D01*
X384108Y1119131D01*
X305980Y1197259D01*
X304491Y1198253D01*
X302736Y1198603D01*
X241960D01*
X240205Y1198253D01*
X238716Y1197259D01*
X229866Y1188408D01*
X228546Y1189170D01*
X225748Y1189920D01*
X222852D01*
X220436Y1189273D01*
X212033Y1197676D01*
X210544Y1198670D01*
X210245Y1198730D01*
X210370Y1200000D01*
X570000Y1200000D01*
X571966Y1200000D01*
X575865Y1199487D01*
X579664Y1198469D01*
X583297Y1196964D01*
X586703Y1194998D01*
X589823Y1192604D01*
X592604Y1189823D01*
X594998Y1186703D01*
X596964Y1183297D01*
X598469Y1179664D01*
X599487Y1175865D01*
X600000Y1171966D01*
Y1170000D01*
X600000Y1170000D01*
X600000Y1170000D01*
X600000Y30000D01*
X600000Y28033D01*
X599487Y24134D01*
X598469Y20336D01*
X596964Y16703D01*
X594998Y13297D01*
X592604Y10177D01*
X589823Y7396D01*
X586703Y5002D01*
X583297Y3036D01*
X579664Y1531D01*
X575866Y513D01*
X571967Y-0D01*
X570000Y0D01*
X28033D01*
X24135Y513D01*
X20336Y1531D01*
X16703Y3036D01*
X13297Y5002D01*
X10177Y7396D01*
X7396Y10177D01*
X5002Y13297D01*
X3036Y16703D01*
X1531Y20336D01*
X513Y24134D01*
X0Y28033D01*
X0Y30000D01*
Y1170000D01*
Y1171966D01*
X513Y1175865D01*
X1531Y1179664D01*
X3036Y1183297D01*
X5002Y1186703D01*
X7396Y1189823D01*
X10177Y1192604D01*
X13297Y1194998D01*
X16703Y1196964D01*
X20336Y1198469D01*
X24135Y1199487D01*
X28034Y1200000D01*
X30000D01*
Y1200000D01*
X167415Y1200000D01*
D02*
G37*
%LPC*%
G36*
X209900Y1177920D02*
X199900D01*
Y1167920D01*
X200348D01*
X203146Y1168670D01*
X205654Y1170118D01*
X207702Y1172166D01*
X209150Y1174674D01*
X209900Y1177472D01*
Y1177920D01*
D02*
G37*
G36*
X197900D02*
X187900D01*
Y1177472D01*
X188650Y1174674D01*
X190098Y1172166D01*
X192146Y1170118D01*
X194654Y1168670D01*
X197452Y1167920D01*
X197900D01*
Y1177920D01*
D02*
G37*
G36*
X366500Y1086500D02*
X361000D01*
Y1083000D01*
X366500D01*
Y1086500D01*
D02*
G37*
G36*
X359000D02*
X353500D01*
Y1083000D01*
X359000D01*
Y1086500D01*
D02*
G37*
G36*
X336046Y1084054D02*
X327553D01*
Y1078610D01*
X336046D01*
Y1084054D01*
D02*
G37*
G36*
X325553D02*
X317060D01*
Y1078610D01*
X325553D01*
Y1084054D01*
D02*
G37*
G36*
X366500Y1081000D02*
X361000D01*
Y1077500D01*
X366500D01*
Y1081000D01*
D02*
G37*
G36*
X359000D02*
X353500D01*
Y1077500D01*
X359000D01*
Y1081000D01*
D02*
G37*
G36*
X348000Y1080000D02*
X344000D01*
Y1077000D01*
X348000D01*
Y1080000D01*
D02*
G37*
G36*
X342000D02*
X338000D01*
Y1077000D01*
X342000D01*
Y1080000D01*
D02*
G37*
G36*
X261612Y1020834D02*
X260506D01*
X260342Y1020834D01*
X255061D01*
Y1014389D01*
X253061D01*
Y1020834D01*
X247781D01*
X247616Y1020834D01*
X246511D01*
X246346Y1020834D01*
X241066D01*
Y1014389D01*
X240066D01*
Y1013389D01*
X233621D01*
Y1008109D01*
X233621Y1007944D01*
Y1006839D01*
X233621Y1006674D01*
Y1001394D01*
X240066D01*
Y999394D01*
X233621D01*
Y994113D01*
X233621Y993949D01*
Y992843D01*
X233621Y992679D01*
Y987398D01*
X240066D01*
Y986398D01*
X241066D01*
Y979953D01*
X246346D01*
X246511Y979953D01*
X247616D01*
X247781Y979953D01*
X253061D01*
Y986398D01*
X255061D01*
Y979953D01*
X260342D01*
X260506Y979953D01*
X261612D01*
X261776Y979953D01*
X267057D01*
Y986398D01*
X268057D01*
Y987398D01*
X274502D01*
Y992679D01*
X274502Y992843D01*
Y993949D01*
X274502Y994113D01*
Y999394D01*
X268057D01*
Y1001394D01*
X274502D01*
Y1006674D01*
X274502Y1006839D01*
Y1007944D01*
X274502Y1008109D01*
Y1013389D01*
X268057D01*
Y1014389D01*
X267057D01*
Y1020834D01*
X261776D01*
X261612Y1020834D01*
D02*
G37*
G36*
X269057Y1020834D02*
Y1015389D01*
X274502D01*
Y1020834D01*
X269057D01*
D02*
G37*
G36*
X239066D02*
X233621D01*
Y1015389D01*
X239066D01*
Y1020834D01*
D02*
G37*
G36*
X274502Y985398D02*
X269057D01*
Y979953D01*
X274502D01*
Y985398D01*
D02*
G37*
G36*
X239066D02*
X233621D01*
Y979953D01*
X239066D01*
Y985398D01*
D02*
G37*
G36*
X356000Y1057000D02*
Y1053000D01*
X359000D01*
Y1057000D01*
X356000D01*
D02*
G37*
G36*
X359000Y1051000D02*
X356000D01*
Y1047000D01*
X359000D01*
Y1051000D01*
D02*
G37*
G36*
X50317Y1032100D02*
X50000D01*
Y1023100D01*
X59000D01*
Y1023417D01*
X58319Y1025960D01*
X57002Y1028240D01*
X55140Y1030102D01*
X52860Y1031419D01*
X50317Y1032100D01*
D02*
G37*
G36*
X59000Y1021100D02*
X50000D01*
Y1012100D01*
X50317D01*
X52860Y1012782D01*
X55140Y1014098D01*
X57002Y1015960D01*
X58319Y1018240D01*
X59000Y1020783D01*
Y1021100D01*
D02*
G37*
G36*
X392000Y1023000D02*
X388000D01*
Y1020000D01*
X392000D01*
Y1023000D01*
D02*
G37*
G36*
X386000D02*
X382000D01*
Y1020000D01*
X386000D01*
Y1023000D01*
D02*
G37*
G36*
X392000Y999000D02*
X388000D01*
Y996000D01*
X392000D01*
Y999000D01*
D02*
G37*
G36*
X386000D02*
X382000D01*
Y996000D01*
X386000D01*
Y999000D01*
D02*
G37*
G36*
X392000Y1047000D02*
X388000D01*
Y1044000D01*
X392000D01*
Y1047000D01*
D02*
G37*
G36*
X386000D02*
X382000D01*
Y1044000D01*
X386000D01*
Y1047000D01*
D02*
G37*
G36*
X198000Y842000D02*
Y838000D01*
X201000D01*
Y842000D01*
X198000D01*
D02*
G37*
G36*
X201000Y836000D02*
X198000D01*
Y832000D01*
X201000D01*
Y836000D01*
D02*
G37*
G36*
X363053Y833000D02*
X360947D01*
X358912Y832455D01*
X357088Y831402D01*
X355598Y829912D01*
X354545Y828088D01*
X354000Y826053D01*
Y823947D01*
X354545Y821912D01*
X355598Y820088D01*
X357088Y818598D01*
X358912Y817545D01*
X360947Y817000D01*
X363053D01*
X365088Y817545D01*
X366912Y818598D01*
X368401Y820088D01*
X369455Y821912D01*
X370000Y823947D01*
Y826053D01*
X369455Y828088D01*
X368401Y829912D01*
X366912Y831402D01*
X365088Y832455D01*
X363053Y833000D01*
D02*
G37*
G36*
X509317Y835000D02*
X506684D01*
X504140Y834318D01*
X501860Y833002D01*
X499998Y831140D01*
X498681Y828860D01*
X498000Y826317D01*
Y823683D01*
X498681Y821140D01*
X499998Y818860D01*
X501860Y816998D01*
X504140Y815682D01*
X504230Y815657D01*
Y814343D01*
X504140Y814318D01*
X501860Y813002D01*
X499998Y811140D01*
X498681Y808860D01*
X498000Y806317D01*
Y803683D01*
X498464Y801953D01*
X321256Y624744D01*
X320261Y623256D01*
X319912Y621500D01*
Y619582D01*
X290250D01*
X287770Y619255D01*
X285459Y618298D01*
X283475Y616775D01*
X283264Y616501D01*
X282757D01*
X282321Y616588D01*
X266423D01*
X264667Y616239D01*
X263178Y615244D01*
X230256Y582322D01*
X229261Y580833D01*
X228912Y579077D01*
Y576500D01*
X222000D01*
Y565039D01*
X221220Y564884D01*
X220558Y564442D01*
X220558Y564442D01*
X199002Y542886D01*
X147778D01*
X146022Y542537D01*
X144534Y541542D01*
X136006Y533014D01*
X135011Y531526D01*
X134662Y529770D01*
Y504750D01*
X135011Y502994D01*
X136006Y501506D01*
X143647Y493864D01*
X143000Y491448D01*
Y488552D01*
X143750Y485754D01*
X145198Y483246D01*
X147246Y481198D01*
X149754Y479750D01*
X152552Y479000D01*
X155448D01*
X158246Y479750D01*
X160754Y481198D01*
X162802Y483246D01*
X164250Y485754D01*
X165000Y488552D01*
Y491448D01*
X164250Y494246D01*
X162802Y496754D01*
X160754Y498802D01*
X158246Y500250D01*
X155448Y501000D01*
X152552D01*
X150136Y500353D01*
X143838Y506651D01*
Y527869D01*
X149678Y533710D01*
X171524D01*
X172500Y533000D01*
Y530396D01*
X172450Y530143D01*
X172450Y530142D01*
X172450Y530141D01*
X172461Y522997D01*
X172500Y522801D01*
Y521000D01*
X174303D01*
X174500Y520961D01*
X191750D01*
X191947Y521000D01*
X193500D01*
Y521641D01*
X209059D01*
X209840Y521796D01*
X210501Y522238D01*
X210943Y522900D01*
X211098Y523680D01*
Y526137D01*
X211079Y526236D01*
X211089Y526337D01*
X211002Y526623D01*
X210943Y526917D01*
X210887Y527001D01*
X210858Y527098D01*
X210668Y527330D01*
X210501Y527579D01*
X210498Y527614D01*
X214667Y531783D01*
X215937Y531257D01*
Y529660D01*
X215937Y529660D01*
X215949Y529603D01*
Y529375D01*
X216152Y528351D01*
X216733Y527482D01*
X217601Y526902D01*
X218625Y526698D01*
X223375D01*
X223497Y526723D01*
X231147D01*
X231147Y526723D01*
X231928Y526878D01*
X232589Y527320D01*
X238669Y533400D01*
X261213D01*
X261219Y533401D01*
X261224Y533400D01*
X261611Y533479D01*
X261994Y533555D01*
X261998Y533558D01*
X262004Y533559D01*
X262328Y533778D01*
X262656Y533997D01*
X262659Y534002D01*
X262663Y534005D01*
X263556Y534907D01*
X263559Y534912D01*
X263564Y534915D01*
X263778Y535243D01*
X263995Y535571D01*
X263996Y535576D01*
X263999Y535581D01*
X264072Y535967D01*
X264146Y536352D01*
X265167Y536941D01*
X308000D01*
X308000Y536941D01*
X309170Y537174D01*
X310163Y537837D01*
X521703Y749377D01*
X522366Y750369D01*
X522599Y751540D01*
X522599Y751540D01*
Y813460D01*
X522366Y814631D01*
X521703Y815623D01*
X516904Y820422D01*
X517318Y821140D01*
X518000Y823683D01*
Y826317D01*
X517318Y828860D01*
X516002Y831140D01*
X514140Y833002D01*
X511860Y834318D01*
X509317Y835000D01*
D02*
G37*
G36*
X112921Y627000D02*
X111078D01*
X109298Y626523D01*
X107702Y625601D01*
X106399Y624298D01*
X105477Y622702D01*
X105000Y620922D01*
Y619078D01*
X105477Y617298D01*
X106399Y615702D01*
X107702Y614399D01*
X109298Y613477D01*
X111078Y613000D01*
X112921D01*
X114702Y613477D01*
X116298Y614399D01*
X117601Y615702D01*
X118523Y617298D01*
X119000Y619078D01*
Y620922D01*
X118523Y622702D01*
X117601Y624298D01*
X116298Y625601D01*
X114702Y626523D01*
X112921Y627000D01*
D02*
G37*
G36*
X113053Y583000D02*
X110947D01*
X108912Y582455D01*
X107088Y581402D01*
X105598Y579912D01*
X104545Y578088D01*
X104000Y576053D01*
Y573947D01*
X104545Y571912D01*
X105598Y570088D01*
X107088Y568598D01*
X108912Y567545D01*
X110947Y567000D01*
X113053D01*
X115088Y567545D01*
X116912Y568598D01*
X118401Y570088D01*
X119455Y571912D01*
X120000Y573947D01*
Y576053D01*
X119455Y578088D01*
X118401Y579912D01*
X116912Y581402D01*
X115088Y582455D01*
X113053Y583000D01*
D02*
G37*
G36*
X362921Y577000D02*
X361078D01*
X359298Y576523D01*
X357702Y575601D01*
X356399Y574298D01*
X355477Y572702D01*
X355000Y570922D01*
Y569078D01*
X355477Y567298D01*
X356399Y565702D01*
X357702Y564399D01*
X359298Y563477D01*
X361078Y563000D01*
X362921D01*
X364702Y563477D01*
X366298Y564399D01*
X367601Y565702D01*
X368523Y567298D01*
X369000Y569078D01*
Y570922D01*
X368523Y572702D01*
X367601Y574298D01*
X366298Y575601D01*
X364702Y576523D01*
X362921Y577000D01*
D02*
G37*
%LPD*%
G36*
X498146Y786861D02*
X498000Y786317D01*
Y783683D01*
X498681Y781140D01*
X499998Y778860D01*
X501860Y776998D01*
X504140Y775682D01*
X506684Y775000D01*
X509317D01*
X511860Y775682D01*
X514140Y776998D01*
X515211Y778069D01*
X516481Y777543D01*
Y752807D01*
X306733Y543059D01*
X264077D01*
X264076Y543193D01*
X263996Y543572D01*
X263920Y543952D01*
X263915Y543961D01*
X263912Y543972D01*
X263694Y544292D01*
X263479Y544614D01*
X263470Y544620D01*
X263463Y544629D01*
X263139Y544841D01*
X262817Y545056D01*
X262806Y545058D01*
X262797Y545064D01*
X262416Y545136D01*
X262036Y545211D01*
X260689D01*
X260525Y545244D01*
X257475D01*
X257311Y545211D01*
X238073D01*
X238036Y545204D01*
X237999Y545210D01*
X237647Y545127D01*
X237293Y545056D01*
X237262Y545035D01*
X237225Y545026D01*
X236932Y544815D01*
X236631Y544614D01*
X236610Y544583D01*
X236580Y544561D01*
X227620Y534924D01*
X219604D01*
X219078Y536194D01*
X232384Y549500D01*
X238000D01*
Y566057D01*
X238088Y566500D01*
Y577177D01*
X268323Y607412D01*
X280668D01*
Y595000D01*
X280995Y592520D01*
X281952Y590209D01*
X283475Y588224D01*
X285459Y586702D01*
X287770Y585744D01*
X290250Y585418D01*
X325250D01*
X327730Y585744D01*
X330041Y586702D01*
X332025Y588224D01*
X333548Y590209D01*
X334506Y592520D01*
X334832Y595000D01*
Y610000D01*
X334506Y612480D01*
X333548Y614791D01*
X332025Y616775D01*
X330041Y618298D01*
X329527Y618511D01*
X329355Y619866D01*
X497007Y787519D01*
X498146Y786861D01*
D02*
G37*
G36*
X231000Y562000D02*
Y551000D01*
X209000Y529000D01*
X200139D01*
Y541139D01*
X222000Y563000D01*
X230000D01*
X231000Y562000D01*
D02*
G37*
G36*
X262107Y536342D02*
X261213Y535439D01*
X237824D01*
X231147Y528762D01*
X227431D01*
X218874Y528762D01*
X217976Y529660D01*
X217976Y532885D01*
X228509D01*
X238073Y543172D01*
X262036D01*
X262107Y536342D01*
D02*
G37*
G36*
X198586Y527071D02*
X199349D01*
X199601Y526902D01*
X200625Y526698D01*
X208375D01*
X209059Y526137D01*
Y523680D01*
X192430D01*
X191750Y523000D01*
X174500D01*
X174489Y530144D01*
X175386Y531043D01*
X194613D01*
X198586Y527071D01*
D02*
G37*
%LPC*%
G36*
X363053Y623000D02*
X360947D01*
X358912Y622455D01*
X357088Y621402D01*
X355598Y619912D01*
X354545Y618088D01*
X354000Y616053D01*
Y613947D01*
X354545Y611912D01*
X355598Y610088D01*
X357088Y608598D01*
X358912Y607545D01*
X360947Y607000D01*
X363053D01*
X365088Y607545D01*
X366912Y608598D01*
X368401Y610088D01*
X369455Y611912D01*
X370000Y613947D01*
Y616053D01*
X369455Y618088D01*
X368401Y619912D01*
X366912Y621402D01*
X365088Y622455D01*
X363053Y623000D01*
D02*
G37*
G36*
X279810Y842000D02*
X276810D01*
Y838000D01*
X279810D01*
Y842000D01*
D02*
G37*
G36*
Y836000D02*
X276810D01*
Y832000D01*
X279810D01*
Y836000D01*
D02*
G37*
G36*
X326000Y799000D02*
X322000D01*
Y796000D01*
X326000D01*
Y799000D01*
D02*
G37*
G36*
X320000D02*
X316000D01*
Y796000D01*
X320000D01*
Y799000D01*
D02*
G37*
G36*
X326000Y771000D02*
X322000D01*
Y768000D01*
X326000D01*
Y771000D01*
D02*
G37*
G36*
X320000D02*
X316000D01*
Y768000D01*
X320000D01*
Y771000D01*
D02*
G37*
G36*
X153500Y799000D02*
X149500D01*
Y796000D01*
X153500D01*
Y799000D01*
D02*
G37*
G36*
X147500D02*
X143500D01*
Y796000D01*
X147500D01*
Y799000D01*
D02*
G37*
G36*
X153500Y770000D02*
X149500D01*
Y767000D01*
X153500D01*
Y770000D01*
D02*
G37*
G36*
X147500D02*
X143500D01*
Y767000D01*
X147500D01*
Y770000D01*
D02*
G37*
G36*
X112921Y837000D02*
X111078D01*
X109298Y836523D01*
X107702Y835601D01*
X106399Y834298D01*
X105477Y832702D01*
X105000Y830922D01*
Y829078D01*
X105477Y827298D01*
X106399Y825702D01*
X107702Y824399D01*
X109298Y823477D01*
X111078Y823000D01*
X112921D01*
X114702Y823477D01*
X116298Y824399D01*
X117601Y825702D01*
X118523Y827298D01*
X119000Y829078D01*
Y830922D01*
X118523Y832702D01*
X117601Y834298D01*
X116298Y835601D01*
X114702Y836523D01*
X112921Y837000D01*
D02*
G37*
G36*
X215501Y723750D02*
X203950D01*
X192399D01*
Y722950D01*
X192601Y721936D01*
X192892Y721500D01*
X192601Y721064D01*
X192399Y720050D01*
Y719250D01*
X203950D01*
X215501D01*
Y720050D01*
X215299Y721064D01*
X215008Y721500D01*
X215299Y721936D01*
X215501Y722950D01*
Y723750D01*
D02*
G37*
G36*
X191000Y721000D02*
X187000D01*
Y718000D01*
X191000D01*
Y721000D01*
D02*
G37*
G36*
X215501Y717250D02*
X203950D01*
X192399D01*
Y716450D01*
X192601Y715435D01*
X192892Y715000D01*
X192601Y714564D01*
X192399Y713550D01*
Y712750D01*
X203950D01*
X215501D01*
Y713550D01*
X215299Y714564D01*
X215008Y715000D01*
X215299Y715435D01*
X215501Y716450D01*
Y717250D01*
D02*
G37*
G36*
Y710750D02*
X204950D01*
Y707299D01*
X212850D01*
X213864Y707501D01*
X214725Y708075D01*
X215299Y708935D01*
X215501Y709950D01*
Y710750D01*
D02*
G37*
G36*
X202950D02*
X192399D01*
Y709950D01*
X192601Y708935D01*
X193176Y708075D01*
X194036Y707501D01*
X195050Y707299D01*
X202950D01*
Y710750D01*
D02*
G37*
G36*
X147500Y734000D02*
X143500D01*
Y731000D01*
X147500D01*
Y734000D01*
D02*
G37*
G36*
X326000D02*
X322000D01*
Y731000D01*
X326000D01*
Y734000D01*
D02*
G37*
G36*
X320000D02*
X316000D01*
Y731000D01*
X320000D01*
Y734000D01*
D02*
G37*
G36*
X326000Y707000D02*
X322000D01*
Y704000D01*
X326000D01*
Y707000D01*
D02*
G37*
G36*
X293000Y736000D02*
X289000D01*
Y733000D01*
X293000D01*
Y736000D01*
D02*
G37*
G36*
X198000Y683000D02*
Y679000D01*
X201000D01*
Y683000D01*
X198000D01*
D02*
G37*
G36*
X219000Y677000D02*
X216000D01*
Y673000D01*
X219000D01*
Y677000D01*
D02*
G37*
G36*
X201000D02*
X198000D01*
Y673000D01*
X201000D01*
Y677000D01*
D02*
G37*
G36*
X258810Y683000D02*
Y679000D01*
X261810D01*
Y683000D01*
X258810D01*
D02*
G37*
G36*
X261810Y677000D02*
X258810D01*
Y673000D01*
X261810D01*
Y677000D01*
D02*
G37*
G36*
X470248Y1119500D02*
X469800D01*
Y1109500D01*
X479800D01*
Y1109948D01*
X479050Y1112746D01*
X477602Y1115254D01*
X475554Y1117302D01*
X473046Y1118750D01*
X470248Y1119500D01*
D02*
G37*
G36*
X467800D02*
X467352D01*
X464554Y1118750D01*
X462046Y1117302D01*
X459998Y1115254D01*
X458550Y1112746D01*
X457800Y1109948D01*
Y1109500D01*
X467800D01*
Y1119500D01*
D02*
G37*
G36*
X479800Y1107500D02*
X469800D01*
Y1097500D01*
X470248D01*
X473046Y1098250D01*
X475554Y1099698D01*
X477602Y1101746D01*
X479050Y1104254D01*
X479800Y1107052D01*
Y1107500D01*
D02*
G37*
G36*
X467800D02*
X457800D01*
Y1107052D01*
X458550Y1104254D01*
X459998Y1101746D01*
X462046Y1099698D01*
X464554Y1098250D01*
X467352Y1097500D01*
X467800D01*
Y1107500D01*
D02*
G37*
G36*
X547600Y1135500D02*
X525600D01*
Y1112448D01*
Y1096500D01*
X547600D01*
Y1135500D01*
D02*
G37*
G36*
X50000Y1103523D02*
Y1095000D01*
X63777D01*
X63680Y1095182D01*
X63616Y1095260D01*
X63577Y1095354D01*
X62758Y1096579D01*
X62687Y1096651D01*
X62639Y1096740D01*
X61704Y1097879D01*
X61626Y1097943D01*
X61570Y1098027D01*
X60527Y1099070D01*
X60443Y1099126D01*
X60379Y1099204D01*
X59240Y1100139D01*
X59151Y1100187D01*
X59079Y1100258D01*
X57854Y1101077D01*
X57760Y1101116D01*
X57682Y1101180D01*
X56382Y1101875D01*
X56286Y1101904D01*
X56201Y1101960D01*
X54840Y1102524D01*
X54741Y1102544D01*
X54651Y1102591D01*
X53241Y1103019D01*
X53140Y1103029D01*
X53047Y1103068D01*
X51601Y1103355D01*
X51500D01*
X51403Y1103385D01*
X50000Y1103523D01*
D02*
G37*
G36*
X48000Y1103523D02*
X46597Y1103385D01*
X46500Y1103355D01*
X46399D01*
X44953Y1103068D01*
X44860Y1103029D01*
X44759Y1103019D01*
X43349Y1102591D01*
X43259Y1102544D01*
X43160Y1102524D01*
X41799Y1101960D01*
X41715Y1101904D01*
X41618Y1101875D01*
X40318Y1101180D01*
X40240Y1101116D01*
X40146Y1101077D01*
X38921Y1100258D01*
X38849Y1100187D01*
X38760Y1100139D01*
X37621Y1099204D01*
X37557Y1099126D01*
X37473Y1099070D01*
X36430Y1098027D01*
X36374Y1097943D01*
X36296Y1097879D01*
X35361Y1096740D01*
X35313Y1096651D01*
X35242Y1096579D01*
X34423Y1095354D01*
X34384Y1095260D01*
X34320Y1095182D01*
X34223Y1095000D01*
X48000D01*
Y1103523D01*
D02*
G37*
G36*
X302645Y909493D02*
X297200D01*
Y901000D01*
X302645D01*
Y909493D01*
D02*
G37*
G36*
X585250Y619582D02*
X550250D01*
X547770Y619255D01*
X545459Y618298D01*
X543475Y616775D01*
X541952Y614791D01*
X540994Y612480D01*
X540668Y610000D01*
Y595000D01*
X540994Y592520D01*
X541952Y590209D01*
X543475Y588224D01*
X545459Y586702D01*
X547770Y585744D01*
X550250Y585418D01*
X585250D01*
X587730Y585744D01*
X590041Y586702D01*
X592025Y588224D01*
X593548Y590209D01*
X594506Y592520D01*
X594832Y595000D01*
Y610000D01*
X594506Y612480D01*
X593548Y614791D01*
X592025Y616775D01*
X590041Y618298D01*
X587730Y619255D01*
X585250Y619582D01*
D02*
G37*
G36*
Y499582D02*
X550250D01*
X547770Y499255D01*
X545459Y498298D01*
X543475Y496775D01*
X541952Y494791D01*
X540994Y492480D01*
X540668Y490000D01*
Y475000D01*
X540994Y472520D01*
X541952Y470209D01*
X543475Y468224D01*
X545459Y466702D01*
X547770Y465744D01*
X550250Y465418D01*
X585250D01*
X587730Y465744D01*
X590041Y466702D01*
X592025Y468224D01*
X593548Y470209D01*
X594506Y472520D01*
X594832Y475000D01*
Y490000D01*
X594506Y492480D01*
X593548Y494791D01*
X592025Y496775D01*
X590041Y498298D01*
X587730Y499255D01*
X585250Y499582D01*
D02*
G37*
G36*
X112921Y417000D02*
X111078D01*
X109298Y416523D01*
X107702Y415601D01*
X106399Y414298D01*
X105477Y412702D01*
X105000Y410922D01*
Y409078D01*
X105477Y407298D01*
X106399Y405702D01*
X107702Y404399D01*
X109298Y403477D01*
X111078Y403000D01*
X112921D01*
X114702Y403477D01*
X116298Y404399D01*
X117601Y405702D01*
X118523Y407298D01*
X119000Y409078D01*
Y410922D01*
X118523Y412702D01*
X117601Y414298D01*
X116298Y415601D01*
X114702Y416523D01*
X112921Y417000D01*
D02*
G37*
G36*
X363053Y413000D02*
X360947D01*
X358912Y412455D01*
X357088Y411402D01*
X355598Y409912D01*
X354545Y408088D01*
X354000Y406053D01*
Y403947D01*
X354545Y401912D01*
X355598Y400088D01*
X357088Y398598D01*
X358912Y397545D01*
X360947Y397000D01*
X363053D01*
X365088Y397545D01*
X366912Y398598D01*
X368401Y400088D01*
X369455Y401912D01*
X370000Y403947D01*
Y406053D01*
X369455Y408088D01*
X368401Y409912D01*
X366912Y411402D01*
X365088Y412455D01*
X363053Y413000D01*
D02*
G37*
G36*
X113053Y373000D02*
X110947D01*
X108912Y372455D01*
X107088Y371402D01*
X105598Y369912D01*
X104545Y368088D01*
X104000Y366053D01*
Y363947D01*
X104545Y361912D01*
X105598Y360088D01*
X107088Y358598D01*
X108912Y357545D01*
X110947Y357000D01*
X113053D01*
X115088Y357545D01*
X116912Y358598D01*
X118401Y360088D01*
X119455Y361912D01*
X120000Y363947D01*
Y366053D01*
X119455Y368088D01*
X118401Y369912D01*
X116912Y371402D01*
X115088Y372455D01*
X113053Y373000D01*
D02*
G37*
G36*
X362921Y367000D02*
X361078D01*
X359298Y366523D01*
X357702Y365601D01*
X356399Y364298D01*
X355477Y362702D01*
X355000Y360922D01*
Y359078D01*
X355477Y357298D01*
X356399Y355702D01*
X357702Y354399D01*
X359298Y353477D01*
X361078Y353000D01*
X362921D01*
X364702Y353477D01*
X366298Y354399D01*
X367601Y355702D01*
X368523Y357298D01*
X369000Y359078D01*
Y360922D01*
X368523Y362702D01*
X367601Y364298D01*
X366298Y365601D01*
X364702Y366523D01*
X362921Y367000D01*
D02*
G37*
G36*
X580000Y302060D02*
X570000D01*
X569839Y302039D01*
X565000D01*
X564803Y302000D01*
X563000D01*
Y300197D01*
X562961Y300000D01*
Y295161D01*
X562940Y295000D01*
Y225000D01*
X562961Y224839D01*
Y220000D01*
X563000Y219803D01*
Y218000D01*
X564803D01*
X565000Y217961D01*
X569839D01*
X570000Y217940D01*
X580000D01*
X580161Y217961D01*
X585000D01*
X585197Y218000D01*
X587000D01*
Y219803D01*
X587039Y220000D01*
Y224839D01*
X587060Y225000D01*
Y295000D01*
X587039Y295161D01*
Y300000D01*
X587000Y300197D01*
Y302000D01*
X585197D01*
X585000Y302039D01*
X580161D01*
X580000Y302060D01*
D02*
G37*
G36*
X30000D02*
X20000D01*
X19839Y302039D01*
X15000D01*
X14803Y302000D01*
X13000D01*
Y300197D01*
X12961Y300000D01*
Y295161D01*
X12940Y295000D01*
Y225000D01*
X12961Y224839D01*
Y220000D01*
X13000Y219803D01*
Y218000D01*
X14803D01*
X15000Y217961D01*
X19839D01*
X20000Y217940D01*
X30000D01*
X30161Y217961D01*
X35000D01*
X35197Y218000D01*
X37000D01*
Y219803D01*
X37039Y220000D01*
Y224839D01*
X37060Y225000D01*
Y295000D01*
X37039Y295161D01*
Y300000D01*
X37000Y300197D01*
Y302000D01*
X35197D01*
X35000Y302039D01*
X30161D01*
X30000Y302060D01*
D02*
G37*
G36*
X112921Y207000D02*
X111078D01*
X109298Y206523D01*
X107702Y205601D01*
X106399Y204298D01*
X105477Y202702D01*
X105000Y200922D01*
Y199078D01*
X105477Y197298D01*
X106399Y195702D01*
X107702Y194399D01*
X109298Y193477D01*
X111078Y193000D01*
X112921D01*
X114702Y193477D01*
X116298Y194399D01*
X117601Y195702D01*
X118523Y197298D01*
X119000Y199078D01*
Y200922D01*
X118523Y202702D01*
X117601Y204298D01*
X116298Y205601D01*
X114702Y206523D01*
X112921Y207000D01*
D02*
G37*
G36*
X363053Y203000D02*
X360947D01*
X358912Y202455D01*
X357088Y201402D01*
X355598Y199912D01*
X354545Y198088D01*
X354000Y196053D01*
Y193947D01*
X354545Y191912D01*
X355598Y190088D01*
X357088Y188598D01*
X358912Y187545D01*
X360947Y187000D01*
X363053D01*
X365088Y187545D01*
X366912Y188598D01*
X368401Y190088D01*
X369455Y191912D01*
X370000Y193947D01*
Y196053D01*
X369455Y198088D01*
X368401Y199912D01*
X366912Y201402D01*
X365088Y202455D01*
X363053Y203000D01*
D02*
G37*
G36*
X113053Y163000D02*
X110947D01*
X108912Y162455D01*
X107088Y161402D01*
X105598Y159912D01*
X104545Y158088D01*
X104000Y156053D01*
Y153947D01*
X104545Y151912D01*
X105598Y150088D01*
X107088Y148598D01*
X108912Y147545D01*
X110947Y147000D01*
X113053D01*
X115088Y147545D01*
X116912Y148598D01*
X118401Y150088D01*
X119455Y151912D01*
X120000Y153947D01*
Y156053D01*
X119455Y158088D01*
X118401Y159912D01*
X116912Y161402D01*
X115088Y162455D01*
X113053Y163000D01*
D02*
G37*
G36*
X362921Y157000D02*
X361078D01*
X359298Y156523D01*
X357702Y155601D01*
X356399Y154298D01*
X355477Y152702D01*
X355000Y150922D01*
Y149078D01*
X355477Y147298D01*
X356399Y145702D01*
X357702Y144399D01*
X359298Y143477D01*
X361078Y143000D01*
X362921D01*
X364702Y143477D01*
X366298Y144399D01*
X367601Y145702D01*
X368523Y147298D01*
X369000Y149078D01*
Y150922D01*
X368523Y152702D01*
X367601Y154298D01*
X366298Y155601D01*
X364702Y156523D01*
X362921Y157000D01*
D02*
G37*
%LPD*%
G36*
G01X34000Y1086500D02*
G01X64000Y1086500D01*
G03X49000Y1101500I-15000J0D01*
G03X34000Y1086500I0J-15000D01*
D02*
G37*
G36*
G01X64000Y1081500D02*
G01X34000Y1081500D01*
G03X49000Y1066500I15000J0D01*
G03X64000Y1081500I-0J15000D01*
D02*
G37*
D11*
X183000Y512000D02*
X186000Y515000D01*
X204500D01*
X235109Y681551D02*
X236689Y679972D01*
X215367Y701308D02*
X235109Y681565D01*
X192567Y701308D02*
X215367D01*
X235109Y681551D02*
Y681565D01*
X236689Y650439D02*
Y679972D01*
X242717Y679946D02*
X247810D01*
X238271Y684392D02*
Y731526D01*
Y684392D02*
X242717Y679946D01*
X245894Y686486D02*
X247746Y688338D01*
X244811Y686486D02*
X245894D01*
X160333Y1086667D02*
X165575Y1081425D01*
X143000Y1090832D02*
X147164Y1086667D01*
X160333D01*
X143000Y1090832D02*
Y1155000D01*
X146750Y1158750D01*
X131443Y1149100D02*
X145093Y1162750D01*
X233949D01*
X131443Y1064536D02*
Y1149100D01*
X146750Y1158750D02*
X257816D01*
X275100Y1176034D01*
X233949Y1162750D02*
X249700Y1178501D01*
X165575Y1022575D02*
Y1081425D01*
X219235Y737750D02*
X241590Y760105D01*
X203950Y737750D02*
X215990D01*
X219235D01*
X380196Y1067065D02*
X380702Y1066558D01*
X360065Y1067065D02*
X380196D01*
X344625Y795650D02*
X368000D01*
X373322Y722473D02*
X373409Y722387D01*
X366721Y729075D02*
X373322Y722473D01*
X344500Y707400D02*
X368250D01*
X345825Y729075D02*
X366721D01*
X344500Y770500D02*
X345877Y769123D01*
X363102D02*
X373409Y758816D01*
X345877Y769123D02*
X363102D01*
X411000Y908600D02*
X412000Y909600D01*
X356000Y908600D02*
Y938000D01*
X412000Y909600D02*
Y938000D01*
X295000Y745000D02*
X296414D01*
X294000Y746000D02*
X295000Y745000D01*
X296414D02*
X304250Y737164D01*
X293000Y746000D02*
X294000D01*
X247746Y688338D02*
X262739D01*
X238271Y731526D02*
X263435Y756690D01*
X247810Y679946D02*
X249310Y678446D01*
Y665500D02*
Y678446D01*
X262739Y688338D02*
X275192Y675885D01*
X246779Y697093D02*
X250220Y693652D01*
X263654D01*
X246779Y697093D02*
Y733533D01*
X381000Y995000D02*
X387000D01*
X376000Y1000000D02*
X381000Y995000D01*
X375000Y1000000D02*
X376000D01*
X386250Y1019750D02*
X387000Y1019000D01*
X375250Y1019750D02*
X386250D01*
X374500Y1020500D02*
X375250Y1019750D01*
X380000Y1053000D02*
Y1065514D01*
X366000Y1039000D02*
X380000Y1053000D01*
Y1065514D02*
X380702Y1066216D01*
X343000Y1067000D02*
X360000D01*
Y1082000D02*
X360250Y1082250D01*
Y1105750D01*
X283450Y700301D02*
X290899Y692852D01*
X295445D02*
X296210Y692086D01*
X290899Y692852D02*
X295445D01*
X293830Y730150D02*
X294210Y729770D01*
X293830Y730150D02*
Y735910D01*
X292235Y700765D02*
X293000Y700000D01*
X292235Y700765D02*
Y702694D01*
X289119Y705810D02*
X292235Y702694D01*
X274344Y763456D02*
X291294D01*
X310000Y703994D02*
Y744750D01*
X291294Y763456D02*
X310000Y744750D01*
X328735Y722565D02*
X329500Y723330D01*
Y725525D01*
X334500Y730525D02*
Y730559D01*
X334294Y707606D02*
Y715706D01*
X310000Y703994D02*
X316534Y697460D01*
X329500Y725525D02*
X334500Y730525D01*
X334089Y715911D02*
X334294Y715706D01*
Y707606D02*
X336351Y705549D01*
X297301Y866715D02*
X297629Y866387D01*
X282400Y866715D02*
X297301D01*
X293769Y858149D02*
X296931Y854987D01*
X297987D01*
X250411Y872887D02*
X304123D01*
X241590Y864066D02*
X250411Y872887D01*
X344500Y730400D02*
X345825Y729075D01*
X87000Y645000D02*
X90000Y648000D01*
X275810Y655000D02*
X276567Y654243D01*
Y650183D02*
Y654243D01*
Y650183D02*
X281750Y645000D01*
X261118Y653308D02*
X262810Y655000D01*
X255000Y645000D02*
X261118Y651118D01*
Y653308D01*
X217050Y652531D02*
X224581Y645000D01*
X215000Y654591D02*
Y655000D01*
X217050Y652531D02*
Y652541D01*
X215000Y654591D02*
X217050Y652541D01*
X201850Y655000D02*
X215000D01*
X231250Y645000D02*
X236689Y650439D01*
X116250Y729750D02*
X116900Y730400D01*
X125000D01*
X116963Y795650D02*
X125000D01*
X116573Y796040D02*
X116963Y795650D01*
X193910Y868215D02*
X202000Y860125D01*
X180765Y859225D02*
X188225D01*
X180000Y858460D02*
X180765Y859225D01*
X188225D02*
X189000Y860000D01*
X20750Y953144D02*
X68484Y905410D01*
X20750Y1045750D02*
X49000Y1074000D01*
X20750Y953144D02*
Y1045750D01*
X271880Y576380D02*
Y592283D01*
X272929Y593332D01*
X264000Y568500D02*
X271880Y576380D01*
X260070Y726016D02*
X261276Y724810D01*
X259258Y726016D02*
X260070D01*
X257615Y812195D02*
Y836805D01*
X257420Y812000D02*
X257615Y812195D01*
Y836805D02*
X257810Y837000D01*
X219000Y812000D02*
X219500Y812500D01*
Y836500D02*
X220000Y837000D01*
X219500Y812500D02*
Y836500D01*
X210020Y835126D02*
X214460Y839566D01*
Y849460D01*
X275192Y665618D02*
Y675885D01*
X160832Y706118D02*
Y740832D01*
X188000Y678000D02*
Y679000D01*
X187000Y680000D02*
X188000Y679000D01*
X186950Y680000D02*
X187000D01*
X160832Y706118D02*
X186950Y680000D01*
X275192Y665618D02*
X277661Y663149D01*
X279407D01*
X286959Y656851D02*
X288810Y655000D01*
X279407Y663149D02*
X285705Y656851D01*
X286959D01*
X228000Y679000D02*
X229000Y678000D01*
X185000Y692000D02*
X217172D01*
X228000Y681172D01*
Y679000D02*
Y681172D01*
X260298Y663149D02*
X260959D01*
X262810Y665000D01*
X253767Y656618D02*
X260298Y663149D01*
X249810Y655000D02*
X251428Y656618D01*
X253767D01*
X226149Y656851D02*
X228000Y655000D01*
X214500Y665500D02*
X216836Y663164D01*
X218738D01*
X225052Y656851D01*
X226149D01*
X190851D02*
X192806D01*
X199104Y663149D01*
X199999D01*
X201850Y665000D01*
X189000Y655000D02*
X190851Y656851D01*
X210690Y665250D02*
X214250D01*
X214500Y665500D01*
X210440D02*
X210690Y665250D01*
X173000Y720875D02*
Y721000D01*
Y720875D02*
X192567Y701308D01*
X228000Y665000D02*
X228500Y665500D01*
Y677500D01*
X229000Y678000D01*
X288810Y665000D02*
X289310Y665500D01*
Y677500D01*
X289810Y678000D01*
X249310Y665500D02*
X249810Y665000D01*
X262810Y655000D02*
X275810D01*
X188000Y678000D02*
X188500Y677500D01*
Y665500D02*
Y677500D01*
Y665500D02*
X189000Y665000D01*
X203390Y763190D02*
X203950Y763750D01*
X191190Y763190D02*
X203390D01*
X165000Y737000D02*
X191190Y763190D01*
X165000Y712000D02*
Y737000D01*
Y712000D02*
X185000Y692000D01*
X244540Y657098D02*
X245305Y656333D01*
X248477D01*
X249810Y655000D01*
X289810Y678000D02*
Y679000D01*
X273490Y750190D02*
X274050Y750750D01*
X263435Y750190D02*
X273490D01*
X246779Y733533D02*
X263435Y750190D01*
X263654Y693652D02*
X265923Y695921D01*
X279358D01*
X289810Y685469D01*
Y679000D02*
Y685469D01*
X203390Y769690D02*
X203950Y770250D01*
X189690Y769690D02*
X203390D01*
X160832Y740832D02*
X189690Y769690D01*
X273490Y756690D02*
X274050Y757250D01*
X263435Y756690D02*
X273490D01*
X178000Y657000D02*
X178765Y656235D01*
X187765D01*
X189000Y655000D01*
X279810Y679000D02*
Y681227D01*
Y679000D02*
X280810Y678000D01*
X275820Y685217D02*
Y687381D01*
Y685217D02*
X279810Y681227D01*
X258722Y700301D02*
X283450D01*
X258613Y700192D02*
X258722Y700301D01*
X221000Y525000D02*
X222270D01*
X222520Y524750D01*
X221000Y520000D02*
Y525000D01*
X259554Y708716D02*
X262460Y705810D01*
X258651Y717157D02*
X259715Y718221D01*
X259135Y708716D02*
X259554D01*
X257839Y717157D02*
X258651D01*
X259715Y718221D02*
X266050D01*
X132324Y789809D02*
Y792363D01*
X131559Y789044D02*
X132324Y789809D01*
Y792363D02*
X133149Y793188D01*
Y793640D01*
X134854Y795344D01*
X135306D01*
X139082Y782860D02*
Y783564D01*
X135191Y778969D02*
X139082Y782860D01*
X135191Y770691D02*
Y778969D01*
X148500Y766000D02*
X149500D01*
X133149Y768649D02*
X135191Y770691D01*
X228000Y850000D02*
X229342Y848658D01*
X229000Y837000D02*
X229342Y837342D01*
Y848658D01*
X214565Y751310D02*
X229083Y765828D01*
Y836917D01*
X136023Y719975D02*
X141460Y714538D01*
X148292Y703208D02*
Y734792D01*
X152966Y697460D02*
X156832Y701326D01*
X148000Y722000D02*
X148292Y722292D01*
X156832Y743832D02*
X189190Y776190D01*
X148292Y703208D02*
X148500Y703000D01*
X148292Y734792D02*
X148500Y735000D01*
X156832Y701326D02*
Y743832D01*
X141460Y714100D02*
Y714538D01*
X254061Y1000394D02*
X268057D01*
X254061D02*
Y1014389D01*
X240066Y1000394D02*
X254061D01*
Y986398D02*
Y1000394D01*
X49000Y971300D02*
Y972916D01*
X145954Y1042055D02*
X148499Y1039510D01*
X151547D01*
X35000Y986916D02*
X49000Y972916D01*
X35000Y1032748D02*
X44307Y1042055D01*
X35000Y986916D02*
Y1032748D01*
X44307Y1042055D02*
X145954D01*
X264000Y563000D02*
Y568500D01*
X329998Y1036065D02*
X334242D01*
X337922Y1032384D01*
X326553Y1039510D02*
X329998Y1036065D01*
X337922Y1032384D02*
X384384D01*
X386000Y1034000D01*
X387000D01*
X356000Y1039000D02*
X366000D01*
X308000Y898515D02*
X318209Y888306D01*
X308000Y898515D02*
Y912000D01*
X284000Y936000D02*
X308000Y912000D01*
X280485Y948000D02*
X314000Y914485D01*
Y901000D02*
X320000Y895000D01*
X314000Y901000D02*
Y914485D01*
X153456Y936000D02*
X284000D01*
X159383Y948000D02*
X280485D01*
X262460Y705810D02*
X289119D01*
X133149Y732251D02*
X136023Y729377D01*
Y719975D02*
Y729377D01*
X320706Y799706D02*
X321000Y800000D01*
X320706Y791585D02*
Y799706D01*
X318000Y781000D02*
X318125Y780875D01*
X324000D01*
X274426Y737374D02*
X293626D01*
X294000Y737000D01*
X274050Y737750D02*
X274426Y737374D01*
X274050Y744250D02*
X274610Y744810D01*
X291810D02*
X293000Y746000D01*
X274610Y744810D02*
X291810D01*
X235590Y764280D02*
Y866551D01*
X241590Y760105D02*
Y864066D01*
X304123Y872887D02*
X309171Y877935D01*
X235590Y866551D02*
X249466Y880427D01*
X301000D01*
X229500Y530000D02*
X237500Y538000D01*
X221000Y530000D02*
X229500D01*
X237500Y538000D02*
X246000D01*
X202000Y860000D02*
Y860125D01*
X412000Y938000D02*
Y951000D01*
X249700Y1178501D02*
Y1178920D01*
X491000Y895000D02*
X519600Y866400D01*
X320000Y895000D02*
X491000D01*
X151547Y950610D02*
X153992Y948165D01*
X159219D02*
X159383Y948000D01*
X153992Y948165D02*
X159219D01*
X151547Y937909D02*
X153456Y936000D01*
X172915Y913988D02*
X181544Y922617D01*
X172915Y890627D02*
Y913988D01*
Y890627D02*
X175575Y887967D01*
X309811D01*
X151547Y976010D02*
X152493Y975064D01*
X182617Y922617D02*
X183000Y923000D01*
X334714Y863064D02*
X468736D01*
X309811Y887967D02*
X334714Y863064D01*
X309171Y877935D02*
Y877944D01*
X181544Y922617D02*
X182617D01*
X152493Y975064D02*
X167936D01*
X130000Y1052000D02*
X151337D01*
X149285Y1054472D02*
X151547Y1052209D01*
X141507Y1054472D02*
X149285D01*
X131443Y1064536D02*
X141507Y1054472D01*
X323108Y1068354D02*
X326553Y1064910D01*
X151547Y1014109D02*
X154492Y1017055D01*
X160054D01*
X165575Y1022575D01*
X275100Y1176034D02*
Y1178920D01*
X130110Y1014109D02*
X151547D01*
X261276Y724810D02*
X273990D01*
X249810Y860000D02*
X251455Y858355D01*
X253739D01*
X249310Y849500D02*
X249810Y850000D01*
X260959Y851851D02*
X263362Y849448D01*
X260243Y851851D02*
X260959D01*
X253739Y858355D02*
X260243Y851851D01*
X249310Y837500D02*
Y849500D01*
X248810Y837000D02*
X249310Y837500D01*
X273990Y724810D02*
X274050Y724750D01*
X203950Y744250D02*
X215750D01*
Y744440D02*
X235590Y764280D01*
X326553Y951000D02*
X346000D01*
X326358Y950805D02*
X326553Y951000D01*
X204510Y751310D02*
X214565D01*
X203950Y750750D02*
X204510Y751310D01*
X196850Y796250D02*
X203950D01*
X184100Y809000D02*
X196850Y796250D01*
X187250Y789750D02*
X203950D01*
X274050Y776750D02*
X293671D01*
X274050Y783250D02*
X288120D01*
X204075Y711875D02*
X223875D01*
X203950Y711750D02*
X204075Y711875D01*
X274050Y796250D02*
X281150D01*
X203950Y757250D02*
X204510Y757810D01*
X214565D01*
X186125Y731125D02*
X203825D01*
X186000Y731000D02*
X186125Y731125D01*
X248810Y804935D02*
X263435Y790310D01*
X248810Y804935D02*
Y837000D01*
X274050Y770250D02*
X293750D01*
X189190Y776190D02*
X203390D01*
X188190Y782690D02*
X203390D01*
X149500Y744000D02*
X188190Y782690D01*
X274050Y763750D02*
X274344Y763456D01*
X203825Y731125D02*
X203950Y731250D01*
X273490Y790310D02*
X274050Y789750D01*
X263435Y790310D02*
X273490D01*
X203390Y776190D02*
X203950Y776750D01*
X203390Y782690D02*
X203950Y783250D01*
X320000Y694000D02*
X321000D01*
X316540Y697460D02*
X320000Y694000D01*
X316534Y697460D02*
X316540D01*
X148500Y744000D02*
X149500D01*
X152960Y697460D02*
X152966D01*
X149500Y694000D02*
X152960Y697460D01*
X148500Y694000D02*
X149500D01*
X320000Y744000D02*
X321000D01*
X293750Y770250D02*
X320000Y744000D01*
X188000Y828755D02*
Y837000D01*
Y828755D02*
X216990Y799765D01*
Y760235D02*
Y799765D01*
X214565Y757810D02*
X216990Y760235D01*
X289810Y804910D02*
Y837000D01*
X281150Y796250D02*
X289810Y804910D01*
X223875Y711875D02*
X224000Y712000D01*
X313870Y809000D02*
X321000D01*
X288120Y783250D02*
X313870Y809000D01*
X312421Y758000D02*
X321000D01*
X293671Y776750D02*
X312421Y758000D01*
X154500Y757000D02*
X187250Y789750D01*
X148500Y757000D02*
X154500D01*
X148500Y809000D02*
X184100D01*
X312000Y951000D02*
X312195Y950805D01*
X326358D01*
X312540Y938000D02*
X326463D01*
X491521Y865679D02*
X494200Y863000D01*
X474694Y888306D02*
X491521Y871479D01*
X318209Y888306D02*
X474694D01*
X491521Y865679D02*
Y871479D01*
X334375Y770500D02*
X334500D01*
X324000Y780875D02*
X334375Y770500D01*
X204500Y520000D02*
X221000D01*
X136302Y706273D02*
X139910Y702664D01*
X139960D01*
X134032Y706273D02*
X136302D01*
X133149Y705390D02*
X134032Y706273D01*
X126851Y696251D02*
Y698779D01*
X133149Y705077D02*
Y705390D01*
X126851Y698779D02*
X133149Y705077D01*
X125000Y694400D02*
X126851Y696251D01*
X423726Y949000D02*
X433000D01*
Y949632D01*
X435540Y952172D02*
Y995798D01*
X433000Y949632D02*
X435540Y952172D01*
X422000Y951000D02*
X423726Y949274D01*
X133149Y732251D02*
Y734810D01*
X127175Y740784D02*
X133149Y734810D01*
X125000Y743241D02*
X127175Y741066D01*
Y740784D02*
Y741066D01*
X125000Y743241D02*
Y743400D01*
X216851Y851851D02*
X219128D01*
X225426Y858149D02*
X226149D01*
X219128Y851851D02*
X225426Y858149D01*
X226149D02*
X228000Y860000D01*
X214460Y849460D02*
X216851Y851851D01*
X129874Y911715D02*
Y912000D01*
X123822Y905410D02*
X130000Y911588D01*
X68484Y905410D02*
X123822D01*
X130000Y912000D02*
X151038D01*
X190851Y858149D02*
X193269D01*
X199567Y851851D01*
X200149D01*
X202000Y850000D01*
X342649Y804163D02*
Y806649D01*
X334500Y795650D02*
Y795809D01*
X336675Y797984D01*
Y798189D01*
X342649Y804163D01*
X336351Y768191D02*
X342649Y761893D01*
Y759351D02*
Y761893D01*
X334500Y770500D02*
X336351Y768649D01*
Y768191D02*
Y768649D01*
X342649Y738904D02*
Y741549D01*
X334500Y730559D02*
X336675Y732734D01*
Y732930D01*
X342649Y738904D01*
X336351Y704520D02*
Y705549D01*
X342649Y696251D02*
Y698222D01*
X336351Y704520D02*
X342649Y698222D01*
Y696251D02*
X344500Y694400D01*
X133149Y767917D02*
Y768649D01*
X126851Y759351D02*
Y761618D01*
X133149Y767917D01*
X266635Y841321D02*
Y846653D01*
X262969Y850000D02*
X265144Y847825D01*
X262810Y850000D02*
X262969D01*
X263362Y849448D02*
X264536Y848274D01*
X265144Y847825D02*
X265464D01*
X266635Y846653D01*
X286959Y858149D02*
X288810Y860000D01*
X277661Y851851D02*
X279703D01*
X286001Y858149D01*
X286959D01*
X126851Y804955D02*
X133149Y798657D01*
X126851Y804955D02*
Y806649D01*
X133149Y797501D02*
Y798657D01*
X125000Y808500D02*
X126851Y806649D01*
X421500Y937500D02*
X422000Y938000D01*
X421500Y929500D02*
Y937500D01*
X421000Y929000D02*
X421500Y929500D01*
X423726Y936274D02*
X435274D01*
X440080Y941080D01*
X422500Y964500D02*
X428500D01*
X429000Y965000D01*
X422000Y964000D02*
X422500Y964500D01*
X412000Y951000D02*
Y964000D01*
X422000Y938000D02*
X423726Y936274D01*
X440080Y941080D02*
Y1015258D01*
X414189Y1041149D02*
X440080Y1015258D01*
X413851Y1041149D02*
X414189D01*
X412000Y1043000D02*
X413851Y1041149D01*
X422000Y964000D02*
Y985338D01*
X414189Y993149D02*
X422000Y985338D01*
X413851Y993149D02*
X414189D01*
X412000Y995000D02*
X413851Y993149D01*
X414189Y1017149D02*
X435540Y995798D01*
X413851Y1017149D02*
X414189D01*
X412000Y1019000D02*
X413851Y1017149D01*
X243726Y514885D02*
X245841Y517000D01*
X221115Y514885D02*
X243726D01*
X245841Y517000D02*
X259000D01*
X123920Y794570D02*
X125000Y795650D01*
X123920Y771580D02*
Y794570D01*
X326843Y989000D02*
X346000D01*
X326553Y988709D02*
X326843Y989000D01*
X325844Y988000D02*
X326553Y988709D01*
X311000Y988000D02*
X325844D01*
X323505Y976010D02*
X326553D01*
X322495Y975000D02*
X323505Y976010D01*
X312000Y975000D02*
X322495D01*
X328643Y1067000D02*
X343000D01*
X326763Y1052000D02*
X346000D01*
X326553Y1052209D02*
X326763Y1052000D01*
X326553Y1026809D02*
X351118D01*
X326553Y1014109D02*
X345468D01*
X151038Y912000D02*
X151547Y912510D01*
X79110Y1026809D02*
X151547D01*
X326562Y976000D02*
X346000D01*
X326553Y976010D02*
X326562Y976000D01*
X326643Y938000D02*
X346000D01*
X519600Y863000D02*
Y866400D01*
X326553Y937909D02*
X326643Y938000D01*
X326463D02*
X326553Y937909D01*
X49000Y996700D02*
X79110Y1026809D01*
X373578Y986000D02*
X387000D01*
X345468Y1014109D02*
X373578Y986000D01*
X367928Y1010000D02*
X387000D01*
X351118Y1026809D02*
X367928Y1010000D01*
X290661Y858149D02*
X293769D01*
X288810Y860000D02*
X290661Y858149D01*
X133149Y797501D02*
X135306Y795344D01*
X123920Y771580D02*
X125000Y770500D01*
X135200Y694200D02*
X148300D01*
X135000Y694400D02*
X135200Y694200D01*
X148300D02*
X148500Y694000D01*
X333750Y789290D02*
Y795059D01*
X333000Y788540D02*
X333750Y789290D01*
X259000Y540000D02*
X308000D01*
X519540Y751540D02*
Y813460D01*
X308000Y540000D02*
X519540Y751540D01*
X202000Y860000D02*
X215000D01*
X202000Y860000D02*
X202000Y860000D01*
X125000Y707400D02*
Y730400D01*
X262810Y860000D02*
X275810D01*
Y860125D02*
X282400Y866715D01*
X275810Y860000D02*
Y860125D01*
X173000Y731000D02*
X186000D01*
X148200Y743700D02*
X148500Y744000D01*
X135300Y743700D02*
X148200D01*
X135000Y743400D02*
X135300Y743700D01*
X135000Y757500D02*
X135250Y757250D01*
X148250D01*
X148500Y757000D01*
X125000Y757500D02*
X126851Y759351D01*
X148250Y808750D02*
X148500Y809000D01*
X135250Y808750D02*
X148250D01*
X135000Y808500D02*
X135250Y808750D01*
X188500Y849500D02*
X189000Y850000D01*
X188500Y837500D02*
Y849500D01*
X188000Y837000D02*
X188500Y837500D01*
X189000Y860000D02*
X190851Y858149D01*
X275810Y850000D02*
X277661Y851851D01*
X289310Y837500D02*
X289810Y837000D01*
X289310Y837500D02*
Y849500D01*
X288810Y850000D02*
X289310Y849500D01*
X334250Y808750D02*
X334500Y808500D01*
X321250Y808750D02*
X334250D01*
X321000Y809000D02*
X321250Y808750D01*
X342649Y806649D02*
X344500Y808500D01*
X342649Y759351D02*
X344500Y757500D01*
X321000Y758000D02*
X321250Y757750D01*
X334250D01*
X334500Y757500D01*
X334200Y743700D02*
X334500Y743400D01*
X321300Y743700D02*
X334200D01*
X321000Y744000D02*
X321300Y743700D01*
X342649Y741549D02*
X344500Y743400D01*
X321000Y694000D02*
X321200Y694200D01*
X334300D01*
X334500Y694400D01*
X258841Y540000D02*
X259000D01*
X508000Y825000D02*
X519540Y813460D01*
X356000Y976000D02*
Y989000D01*
Y951000D02*
Y976000D01*
Y938000D02*
Y951000D01*
X387000Y986000D02*
X387500Y985500D01*
X411500D01*
X412000Y985000D01*
X387000Y1010000D02*
X387500Y1009500D01*
X411500D01*
X412000Y1009000D01*
X387000Y1034000D02*
X387500Y1033500D01*
X411500D01*
X412000Y1033000D01*
X346000Y1039000D02*
Y1052000D01*
Y1039000D02*
X346000Y1039000D01*
X246000Y538000D02*
X256841D01*
X258841Y540000D01*
X185000Y525000D02*
X204500D01*
X183000Y527000D02*
X185000Y525000D01*
D21*
X198900Y1178920D02*
D03*
X224300D02*
D03*
X249700D02*
D03*
X275100D02*
D03*
X154000Y490000D02*
D03*
Y515000D02*
D03*
X570400Y863000D02*
D03*
X545000D02*
D03*
X519600D02*
D03*
X494200D02*
D03*
X468800D02*
D03*
X536600Y1111000D02*
D03*
X468800Y1108500D02*
D03*
D26*
X49000Y945900D02*
D03*
D27*
Y971300D02*
D03*
Y996700D02*
D03*
Y1022100D02*
D03*
X508000Y825000D02*
D03*
Y805000D02*
D03*
Y785000D02*
D03*
X558000Y825000D02*
D03*
Y805000D02*
D03*
Y785000D02*
D03*
D28*
X25000Y260000D02*
D03*
X575000D02*
D03*
D29*
X570000Y30000D02*
D03*
X30000D02*
D03*
X570000Y1170000D02*
D03*
X30000D02*
D03*
D30*
X244811Y686486D02*
D03*
X550000Y1050000D02*
D03*
Y1000000D02*
D03*
Y950000D02*
D03*
Y750000D02*
D03*
Y700000D02*
D03*
Y450000D02*
D03*
Y400000D02*
D03*
Y300000D02*
D03*
Y250000D02*
D03*
Y100000D02*
D03*
X500000Y1150000D02*
D03*
Y1050000D02*
D03*
Y1000000D02*
D03*
Y950000D02*
D03*
Y750000D02*
D03*
Y650000D02*
D03*
Y500000D02*
D03*
Y450000D02*
D03*
Y400000D02*
D03*
Y300000D02*
D03*
Y250000D02*
D03*
Y100000D02*
D03*
Y50000D02*
D03*
X450000Y1150000D02*
D03*
Y1100000D02*
D03*
Y1050000D02*
D03*
Y1000000D02*
D03*
Y950000D02*
D03*
Y850000D02*
D03*
Y800000D02*
D03*
Y700000D02*
D03*
Y650000D02*
D03*
Y600000D02*
D03*
Y500000D02*
D03*
Y450000D02*
D03*
Y300000D02*
D03*
Y250000D02*
D03*
Y100000D02*
D03*
Y50000D02*
D03*
X400000Y1150000D02*
D03*
Y1100000D02*
D03*
Y1050000D02*
D03*
Y1000000D02*
D03*
Y950000D02*
D03*
Y850000D02*
D03*
Y800000D02*
D03*
Y750000D02*
D03*
Y650000D02*
D03*
Y600000D02*
D03*
Y550000D02*
D03*
Y450000D02*
D03*
Y400000D02*
D03*
Y350000D02*
D03*
Y300000D02*
D03*
Y250000D02*
D03*
Y200000D02*
D03*
Y150000D02*
D03*
Y100000D02*
D03*
Y50000D02*
D03*
X350000Y1100000D02*
D03*
Y850000D02*
D03*
Y600000D02*
D03*
Y550000D02*
D03*
Y500000D02*
D03*
Y350000D02*
D03*
Y50000D02*
D03*
X300000Y1050000D02*
D03*
Y1000000D02*
D03*
Y550000D02*
D03*
Y300000D02*
D03*
Y250000D02*
D03*
Y100000D02*
D03*
Y50000D02*
D03*
X250000Y1050000D02*
D03*
Y150000D02*
D03*
Y100000D02*
D03*
Y50000D02*
D03*
X200000Y1050000D02*
D03*
Y1000000D02*
D03*
Y300000D02*
D03*
Y250000D02*
D03*
Y100000D02*
D03*
Y50000D02*
D03*
X150000Y900000D02*
D03*
Y850000D02*
D03*
Y600000D02*
D03*
Y550000D02*
D03*
Y400000D02*
D03*
Y350000D02*
D03*
Y300000D02*
D03*
Y250000D02*
D03*
Y200000D02*
D03*
Y150000D02*
D03*
Y100000D02*
D03*
Y50000D02*
D03*
X100000Y1150000D02*
D03*
Y1100000D02*
D03*
Y1000000D02*
D03*
Y950000D02*
D03*
Y700000D02*
D03*
Y600000D02*
D03*
Y550000D02*
D03*
Y500000D02*
D03*
Y400000D02*
D03*
Y350000D02*
D03*
Y50000D02*
D03*
X50000Y900000D02*
D03*
Y850000D02*
D03*
Y800000D02*
D03*
Y750000D02*
D03*
Y700000D02*
D03*
Y650000D02*
D03*
Y600000D02*
D03*
Y550000D02*
D03*
Y500000D02*
D03*
Y450000D02*
D03*
Y300000D02*
D03*
Y250000D02*
D03*
Y100000D02*
D03*
X369189Y1058460D02*
D03*
X151547Y1077458D02*
D03*
X375000Y1000000D02*
D03*
X374500Y1020500D02*
D03*
X389250Y1053750D02*
D03*
X360250Y1105750D02*
D03*
X294210Y729770D02*
D03*
X296210Y692086D02*
D03*
X293000Y700000D02*
D03*
X334089Y715911D02*
D03*
X318540Y725240D02*
D03*
X328735Y722565D02*
D03*
X301000Y880427D02*
D03*
X297987Y854987D02*
D03*
X180000Y858460D02*
D03*
X272929Y593332D02*
D03*
X259258Y726016D02*
D03*
X257420Y812000D02*
D03*
X219000D02*
D03*
X210020Y835126D02*
D03*
X266583Y675245D02*
D03*
X210440Y665500D02*
D03*
X275820Y687381D02*
D03*
X258613Y700192D02*
D03*
X257839Y717157D02*
D03*
X259135Y708716D02*
D03*
X159000Y781000D02*
D03*
X131559Y789044D02*
D03*
X139082Y783564D02*
D03*
X244540Y657098D02*
D03*
X208104Y680159D02*
D03*
X141460Y714100D02*
D03*
X148292Y722409D02*
D03*
X307500Y476000D02*
D03*
Y491000D02*
D03*
X292500D02*
D03*
Y476000D02*
D03*
X322500Y476000D02*
D03*
Y491000D02*
D03*
X292000Y914000D02*
D03*
X320706Y791585D02*
D03*
X318000Y781000D02*
D03*
X309171Y877944D02*
D03*
X312000Y951000D02*
D03*
X312540Y938000D02*
D03*
X178000Y657000D02*
D03*
X139960Y702664D02*
D03*
X421000Y929000D02*
D03*
X429000Y965000D02*
D03*
X282000Y385000D02*
D03*
X224000Y712000D02*
D03*
X312000Y988000D02*
D03*
Y975000D02*
D03*
X266599Y841284D02*
D03*
X433000Y949000D02*
D03*
X333000Y788540D02*
D03*
X168000Y975000D02*
D03*
X183000Y923000D02*
D03*
D31*
X570400Y858000D02*
D03*
X562000Y1116000D02*
D03*
X536600D02*
D03*
X511200D02*
D03*
X545000Y858000D02*
D03*
X519600D02*
D03*
X494200D02*
D03*
X468800D02*
D03*
D32*
X254061Y1000394D02*
D03*
Y1014389D02*
D03*
X240066D02*
D03*
Y1000394D02*
D03*
Y986398D02*
D03*
X254061D02*
D03*
X268057D02*
D03*
Y1000394D02*
D03*
Y1014389D02*
D03*
D33*
X151547Y1077609D02*
D03*
Y1064910D02*
D03*
Y1052209D02*
D03*
Y1039510D02*
D03*
Y1026809D02*
D03*
Y1014109D02*
D03*
Y1001410D02*
D03*
Y988709D02*
D03*
Y976010D02*
D03*
Y963309D02*
D03*
Y950610D02*
D03*
Y937909D02*
D03*
Y925210D02*
D03*
Y912510D02*
D03*
X326553D02*
D03*
Y925210D02*
D03*
Y937909D02*
D03*
Y950610D02*
D03*
Y963309D02*
D03*
Y976010D02*
D03*
Y988709D02*
D03*
Y1001410D02*
D03*
Y1014109D02*
D03*
Y1026809D02*
D03*
Y1039510D02*
D03*
Y1052209D02*
D03*
Y1064910D02*
D03*
Y1077609D02*
D03*
D34*
X181900Y900000D02*
D03*
X194600D02*
D03*
X207300D02*
D03*
X220000D02*
D03*
X232700D02*
D03*
X245400D02*
D03*
X258100D02*
D03*
X270800D02*
D03*
X283500D02*
D03*
X296200D02*
D03*
D35*
X274050Y796250D02*
D03*
Y789750D02*
D03*
Y783250D02*
D03*
Y776750D02*
D03*
Y770250D02*
D03*
Y763750D02*
D03*
Y757250D02*
D03*
Y750750D02*
D03*
Y744250D02*
D03*
Y737750D02*
D03*
Y731250D02*
D03*
Y724750D02*
D03*
Y718250D02*
D03*
Y711750D02*
D03*
X203950D02*
D03*
Y718250D02*
D03*
Y724750D02*
D03*
Y731250D02*
D03*
Y737750D02*
D03*
Y744250D02*
D03*
Y750750D02*
D03*
Y757250D02*
D03*
Y763750D02*
D03*
Y770250D02*
D03*
Y776750D02*
D03*
Y783250D02*
D03*
Y789750D02*
D03*
Y796250D02*
D03*
D36*
X221000Y530000D02*
D03*
Y525000D02*
D03*
Y520000D02*
D03*
Y515000D02*
D03*
Y510000D02*
D03*
D37*
X204500Y530000D02*
D03*
Y525000D02*
D03*
Y515000D02*
D03*
Y510000D02*
D03*
D38*
X206500Y520000D02*
D03*
D39*
X567750Y482500D02*
D03*
X307750D02*
D03*
Y602500D02*
D03*
X567750D02*
D03*
D40*
X288810Y655000D02*
D03*
Y665000D02*
D03*
X412000Y995000D02*
D03*
Y985000D02*
D03*
X249810Y655000D02*
D03*
Y665000D02*
D03*
X275810D02*
D03*
Y655000D02*
D03*
X262810Y665000D02*
D03*
Y655000D02*
D03*
X412000Y1019000D02*
D03*
Y1009000D02*
D03*
X189000Y655000D02*
D03*
Y665000D02*
D03*
X228000Y655000D02*
D03*
Y665000D02*
D03*
X201850D02*
D03*
Y655000D02*
D03*
X215000Y665000D02*
D03*
Y655000D02*
D03*
X412000Y1043000D02*
D03*
Y1033000D02*
D03*
X249810Y860000D02*
D03*
Y850000D02*
D03*
X189000Y860000D02*
D03*
Y850000D02*
D03*
X288810Y860000D02*
D03*
Y850000D02*
D03*
X228000Y860000D02*
D03*
Y850000D02*
D03*
X262810D02*
D03*
Y860000D02*
D03*
X275810Y850000D02*
D03*
Y860000D02*
D03*
X202000Y850000D02*
D03*
Y860000D02*
D03*
X215000Y850000D02*
D03*
Y860000D02*
D03*
X173000Y731000D02*
D03*
Y721000D02*
D03*
X259000Y517000D02*
D03*
Y507000D02*
D03*
Y540000D02*
D03*
Y530000D02*
D03*
X246000Y507000D02*
D03*
Y517000D02*
D03*
D41*
X125000Y808500D02*
D03*
X135000D02*
D03*
X125000Y757500D02*
D03*
X135000D02*
D03*
X412000Y964000D02*
D03*
X422000D02*
D03*
X135000Y795650D02*
D03*
X125000D02*
D03*
X135000Y770500D02*
D03*
X125000D02*
D03*
X344500Y694400D02*
D03*
X334500D02*
D03*
X125000Y743400D02*
D03*
X135000D02*
D03*
X344500D02*
D03*
X334500D02*
D03*
X125000Y694400D02*
D03*
X135000D02*
D03*
X334500Y707400D02*
D03*
X344500D02*
D03*
X334500Y730400D02*
D03*
X344500D02*
D03*
X135000D02*
D03*
X125000D02*
D03*
X135000Y707400D02*
D03*
X125000D02*
D03*
X412000Y951000D02*
D03*
X422000D02*
D03*
X344500Y757500D02*
D03*
X334500D02*
D03*
X344500Y808500D02*
D03*
X334500D02*
D03*
Y770500D02*
D03*
X344500D02*
D03*
X334500Y795650D02*
D03*
X344500D02*
D03*
X412000Y938000D02*
D03*
X422000D02*
D03*
X120000Y1052000D02*
D03*
X130000D02*
D03*
X120000Y1014000D02*
D03*
X130000D02*
D03*
X120000Y912000D02*
D03*
X130000D02*
D03*
X356000Y1039000D02*
D03*
X346000D02*
D03*
X356000Y938000D02*
D03*
X346000D02*
D03*
X356000Y951000D02*
D03*
X346000D02*
D03*
X356000Y976000D02*
D03*
X346000D02*
D03*
X356000Y989000D02*
D03*
X346000D02*
D03*
D42*
X183000Y527000D02*
D03*
Y512000D02*
D03*
D43*
X387000Y986000D02*
D03*
Y995000D02*
D03*
X148500Y809000D02*
D03*
Y800000D02*
D03*
Y757000D02*
D03*
Y766000D02*
D03*
X321000Y694000D02*
D03*
Y703000D02*
D03*
X148500Y744000D02*
D03*
Y735000D02*
D03*
X321000Y744000D02*
D03*
Y735000D02*
D03*
X148500Y694000D02*
D03*
Y703000D02*
D03*
X387000Y1010000D02*
D03*
Y1019000D02*
D03*
X321000Y758000D02*
D03*
Y767000D02*
D03*
Y809000D02*
D03*
Y800000D02*
D03*
X387000Y1034000D02*
D03*
Y1043000D02*
D03*
X186000Y731000D02*
D03*
Y722000D02*
D03*
X343000Y1067000D02*
D03*
Y1076000D02*
D03*
X294000Y746000D02*
D03*
Y737000D02*
D03*
X246000Y538000D02*
D03*
Y529000D02*
D03*
D44*
X289810Y678000D02*
D03*
X280810D02*
D03*
X248810D02*
D03*
X257810D02*
D03*
X188000Y678000D02*
D03*
X197000D02*
D03*
X229000D02*
D03*
X220000D02*
D03*
X248810Y837000D02*
D03*
X257810D02*
D03*
X188000Y837000D02*
D03*
X197000D02*
D03*
X289810Y837000D02*
D03*
X280810D02*
D03*
X229000Y837000D02*
D03*
X220000D02*
D03*
X346000Y1052000D02*
D03*
X355000D02*
D03*
D45*
X360000Y1082000D02*
D03*
Y1067000D02*
D03*
D46*
X264000Y484500D02*
D03*
X230000D02*
D03*
X264000Y563000D02*
D03*
X230000D02*
D03*
D47*
X233500Y566500D02*
Y579077D01*
X266423Y612000D01*
X282321D01*
X226500Y559500D02*
X233500Y566500D01*
X298337Y611913D02*
X307750Y602500D01*
X282408Y611913D02*
X298337D01*
X282321Y612000D02*
X282408Y611913D01*
X380864Y1066918D02*
X412082D01*
X380702D02*
X380864D01*
X168997Y1194432D02*
X208789D01*
X120000Y1052000D02*
Y1145435D01*
X168997Y1194432D01*
X208789D02*
X224300Y1178920D01*
X302736Y1194015D02*
X380864Y1115887D01*
X226866Y1178920D02*
X241960Y1194015D01*
X302736D01*
X380864Y1066918D02*
Y1115887D01*
X574250Y844202D02*
X575937Y845889D01*
X574250Y830727D02*
Y844202D01*
X570400Y863000D02*
Y908600D01*
X299072Y866387D02*
X373409Y792051D01*
X297250Y645000D02*
X307724D01*
X373322Y710598D02*
Y722473D01*
X307724Y645000D02*
X373322Y710598D01*
X373409Y722387D02*
Y758816D01*
Y792051D01*
X411000Y908600D02*
X570400Y908600D01*
X356000Y908600D02*
X411000D01*
X304250Y652000D02*
Y737164D01*
X297250Y645000D02*
X304250Y652000D01*
X255000Y645000D02*
X281750D01*
X297250D01*
X231250D02*
X255000D01*
X224581D02*
X231250D01*
X87000D02*
X224581D01*
X87000Y729750D02*
X116250D01*
X87000Y795650D02*
X107037D01*
X107427Y796040D01*
X116573D01*
X105710Y868215D02*
X193910D01*
X87000Y849505D02*
X105710Y868215D01*
X412082Y1066918D02*
X570400Y908600D01*
X224300Y1178920D02*
X226866D01*
X26750Y968150D02*
X49000Y945900D01*
X26750Y1033750D02*
X45000Y1052000D01*
X26750Y968150D02*
Y1033750D01*
X139250Y504750D02*
X154000Y490000D01*
X139250Y504750D02*
Y529770D01*
X147778Y538298D01*
X211432D01*
X324500Y615081D02*
Y621500D01*
X311919Y602500D02*
X324500Y615081D01*
X307750Y602500D02*
X311919D01*
X324500Y621500D02*
X508000Y805000D01*
X210671Y537537D02*
X226500Y553365D01*
X49000Y945900D02*
X82900Y912000D01*
X226500Y553365D02*
Y559500D01*
X45000Y1052000D02*
X120000D01*
X82900Y912000D02*
X120000D01*
Y1014000D01*
D48*
X344000Y453000D02*
X574250Y683250D01*
X245000Y453000D02*
X344000D01*
X574250Y683250D02*
Y830727D01*
X571931Y855813D02*
Y861469D01*
Y855813D02*
X572181Y855563D01*
X570400Y863000D02*
X571931Y861469D01*
X87000Y729750D02*
Y795650D01*
Y645000D02*
Y729750D01*
Y795650D02*
Y849505D01*
X121000Y453000D02*
X204000D01*
X87000Y487000D02*
X121000Y453000D01*
X87000Y487000D02*
Y645000D01*
X204000Y453000D02*
X230000Y479000D01*
Y484500D01*
M02*
